%TF.GenerationSoftware,KiCad,Pcbnew,10.0.1*%
%TF.CreationDate,2026-07-11T21:17:00-07:00*%
%TF.ProjectId,Rotary_Encoder_Motor_Controller,526f7461-7279-45f4-956e-636f6465725f,rev?*%
%TF.SameCoordinates,Original*%
%TF.FileFunction,Copper,L1,Top*%
%TF.FilePolarity,Positive*%
%FSLAX46Y46*%
G04 Gerber Fmt 4.6, Leading zero omitted, Abs format (unit mm)*
G04 Created by KiCad (PCBNEW 10.0.1) date 2026-07-11 21:17:00*
%MOMM*%
%LPD*%
G01*
G04 APERTURE LIST*
G04 Aperture macros list*
%AMRoundRect*
0 Rectangle with rounded corners*
0 $1 Rounding radius*
0 $2 $3 $4 $5 $6 $7 $8 $9 X,Y pos of 4 corners*
0 Add a 4 corners polygon primitive as box body*
4,1,4,$2,$3,$4,$5,$6,$7,$8,$9,$2,$3,0*
0 Add four circle primitives for the rounded corners*
1,1,$1+$1,$2,$3*
1,1,$1+$1,$4,$5*
1,1,$1+$1,$6,$7*
1,1,$1+$1,$8,$9*
0 Add four rect primitives between the rounded corners*
20,1,$1+$1,$2,$3,$4,$5,0*
20,1,$1+$1,$4,$5,$6,$7,0*
20,1,$1+$1,$6,$7,$8,$9,0*
20,1,$1+$1,$8,$9,$2,$3,0*%
G04 Aperture macros list end*
%TA.AperFunction,ComponentPad*%
%ADD10C,1.700000*%
%TD*%
%TA.AperFunction,ComponentPad*%
%ADD11R,1.700000X1.700000*%
%TD*%
%TA.AperFunction,ComponentPad*%
%ADD12R,1.600000X1.600000*%
%TD*%
%TA.AperFunction,ComponentPad*%
%ADD13O,1.600000X1.600000*%
%TD*%
%TA.AperFunction,ComponentPad*%
%ADD14C,1.600000*%
%TD*%
%TA.AperFunction,ComponentPad*%
%ADD15R,2.000000X2.000000*%
%TD*%
%TA.AperFunction,ComponentPad*%
%ADD16C,2.000000*%
%TD*%
%TA.AperFunction,ComponentPad*%
%ADD17R,2.000000X3.200000*%
%TD*%
%TA.AperFunction,ComponentPad*%
%ADD18R,1.905000X2.000000*%
%TD*%
%TA.AperFunction,ComponentPad*%
%ADD19O,1.905000X2.000000*%
%TD*%
%TA.AperFunction,ComponentPad*%
%ADD20RoundRect,0.249999X0.850001X0.850001X-0.850001X0.850001X-0.850001X-0.850001X0.850001X-0.850001X0*%
%TD*%
%TA.AperFunction,ComponentPad*%
%ADD21C,2.200000*%
%TD*%
%TA.AperFunction,Conductor*%
%ADD22C,0.200000*%
%TD*%
%TA.AperFunction,Conductor*%
%ADD23C,0.800000*%
%TD*%
G04 APERTURE END LIST*
D10*
%TO.P,M1,2,-_2*%
%TO.N,Net-(D1-A)*%
X157500000Y-128000000D03*
D11*
%TO.P,M1,1,+_1*%
%TO.N,VCC*%
X160040000Y-128000000D03*
%TD*%
D12*
%TO.P,A1,1,NC_1*%
%TO.N,unconnected-(A1-NC-Pad1)*%
X151565000Y-67315000D03*
D13*
%TO.P,A1,2,IOREF_2*%
%TO.N,unconnected-(A1-IOREF-Pad2)*%
X154105000Y-67315000D03*
%TO.P,A1,3,~{RESET}_3*%
%TO.N,unconnected-(A1-~{RESET}-Pad3)*%
X156645000Y-67315000D03*
%TO.P,A1,4,3V3_4*%
%TO.N,unconnected-(A1-3V3-Pad4)*%
X159185000Y-67315000D03*
%TO.P,A1,5,+5V_5*%
%TO.N,unconnected-(A1-+5V-Pad5)*%
X161725000Y-67315000D03*
%TO.P,A1,6,GND_6*%
%TO.N,unconnected-(A1-GND-Pad6)*%
X164265000Y-67315000D03*
%TO.P,A1,7,GND_7*%
%TO.N,unconnected-(A1-GND-Pad7)*%
X166805000Y-67315000D03*
%TO.P,A1,8,VIN_8*%
%TO.N,unconnected-(A1-VIN-Pad8)*%
X169345000Y-67315000D03*
%TO.P,A1,9,A0_9*%
%TO.N,unconnected-(A1-A0-Pad9)*%
X174425000Y-67315000D03*
%TO.P,A1,10,A1_10*%
%TO.N,unconnected-(A1-A1-Pad10)*%
X176965000Y-67315000D03*
%TO.P,A1,11,A2_11*%
%TO.N,unconnected-(A1-A2-Pad11)*%
X179505000Y-67315000D03*
%TO.P,A1,12,A3_12*%
%TO.N,unconnected-(A1-A3-Pad12)*%
X182045000Y-67315000D03*
%TO.P,A1,13,SDA/A4_13*%
%TO.N,unconnected-(A1-SDA{slash}A4-Pad13)*%
X184585000Y-67315000D03*
%TO.P,A1,14,SCL/A5_14*%
%TO.N,unconnected-(A1-SCL{slash}A5-Pad14)*%
X187125000Y-67315000D03*
%TO.P,A1,15,D0/RX_15*%
%TO.N,unconnected-(A1-D0{slash}RX-Pad15)*%
X187125000Y-115575000D03*
%TO.P,A1,16,D1/TX_16*%
%TO.N,unconnected-(A1-D1{slash}TX-Pad16)*%
X184585000Y-115575000D03*
%TO.P,A1,17,D2_17*%
%TO.N,/ENC_A*%
X182045000Y-115575000D03*
%TO.P,A1,18,D3_18*%
%TO.N,/ENC_B*%
X179505000Y-115575000D03*
%TO.P,A1,19,D4_19*%
%TO.N,/ENC_SW*%
X176965000Y-115575000D03*
%TO.P,A1,20,D5_20*%
%TO.N,unconnected-(A1-D5-Pad20)*%
X174425000Y-115575000D03*
%TO.P,A1,21,D6_21*%
%TO.N,unconnected-(A1-D6-Pad21)*%
X171885000Y-115575000D03*
%TO.P,A1,22,D7_22*%
%TO.N,unconnected-(A1-D7-Pad22)*%
X169345000Y-115575000D03*
%TO.P,A1,23,D8_23*%
%TO.N,unconnected-(A1-D8-Pad23)*%
X165285000Y-115575000D03*
%TO.P,A1,24,D9_24*%
%TO.N,/PWM_OUT*%
X162745000Y-115575000D03*
%TO.P,A1,25,D10_25*%
%TO.N,unconnected-(A1-D10-Pad25)*%
X160205000Y-115575000D03*
%TO.P,A1,26,D11_26*%
%TO.N,unconnected-(A1-D11-Pad26)*%
X157665000Y-115575000D03*
%TO.P,A1,27,D12_27*%
%TO.N,unconnected-(A1-D12-Pad27)*%
X155125000Y-115575000D03*
%TO.P,A1,28,D13_28*%
%TO.N,unconnected-(A1-D13-Pad28)*%
X152585000Y-115575000D03*
%TO.P,A1,29,GND_29*%
%TO.N,GND*%
X150045000Y-115575000D03*
%TO.P,A1,30,AREF_30*%
%TO.N,unconnected-(A1-AREF-Pad30)*%
X147505000Y-115575000D03*
%TO.P,A1,31,SDA/A4_31*%
%TO.N,unconnected-(A1-SDA{slash}A4-Pad31)*%
X144965000Y-115575000D03*
%TO.P,A1,32,SCL/A5_32*%
%TO.N,unconnected-(A1-SCL{slash}A5-Pad32)*%
X142425000Y-115575000D03*
%TD*%
D14*
%TO.P,R2,1*%
%TO.N,Net-(Q1-G)*%
X144880000Y-121000000D03*
%TO.P,R2,2*%
%TO.N,GND*%
X152500000Y-121000000D03*
%TD*%
D15*
%TO.P,SW1,A,A_A*%
%TO.N,/ENC_A*%
X182000000Y-120500000D03*
D16*
%TO.P,SW1,B,B_B*%
%TO.N,/ENC_B*%
X177000000Y-120500000D03*
%TO.P,SW1,C,C_C*%
%TO.N,GND*%
X179500000Y-120500000D03*
D17*
%TO.P,SW1,MP,MP_MP*%
%TO.N,unconnected-(SW1-PadMP)*%
X185100000Y-128000000D03*
%TO.N,unconnected-(SW1-PadMP)_1*%
X173900000Y-128000000D03*
D16*
%TO.P,SW1,S1,S1_S1*%
%TO.N,/ENC_SW*%
X177000000Y-135000000D03*
%TO.P,SW1,S2,S2_S2*%
%TO.N,GND*%
X182000000Y-135000000D03*
%TD*%
D18*
%TO.P,Q1,1,G_1*%
%TO.N,Net-(Q1-G)*%
X151190000Y-127600000D03*
D19*
%TO.P,Q1,2,D_2*%
%TO.N,Net-(D1-A)*%
X148650000Y-127600000D03*
%TO.P,Q1,3,S_3*%
%TO.N,GND*%
X146110000Y-127600000D03*
%TD*%
D14*
%TO.P,R1,1*%
%TO.N,/PWM_OUT*%
X162810000Y-121000000D03*
%TO.P,R1,2*%
%TO.N,Net-(Q1-G)*%
X155190000Y-121000000D03*
%TD*%
D20*
%TO.P,D1,1,K_1*%
%TO.N,VCC*%
X167120000Y-132000000D03*
D21*
%TO.P,D1,2,A_2*%
%TO.N,Net-(D1-A)*%
X156960000Y-132000000D03*
%TD*%
%TO.N,GND*%
D22*
X179500000Y-120500000D02*
X182000000Y-123000000D01*
X182000000Y-123000000D02*
X182000000Y-135000000D01*
%TO.N,/ENC_B*%
X177080000Y-118000000D02*
X177000000Y-118000000D01*
X179505000Y-115575000D02*
X177080000Y-118000000D01*
X177000000Y-118000000D02*
X177000000Y-120500000D01*
%TO.N,VCC*%
D23*
X163120000Y-128000000D02*
X167120000Y-132000000D01*
X160040000Y-128000000D02*
X163120000Y-128000000D01*
%TO.N,/ENC_A*%
D22*
X182000000Y-120500000D02*
X182000000Y-115620000D01*
X182000000Y-115620000D02*
X182045000Y-115575000D01*
%TO.N,/ENC_SW*%
X175700000Y-116840000D02*
X175700000Y-133700000D01*
X175700000Y-133700000D02*
X177000000Y-135000000D01*
X176965000Y-115575000D02*
X175700000Y-116840000D01*
%TO.N,/PWM_OUT*%
X162810000Y-121000000D02*
X162810000Y-115640000D01*
X162810000Y-115640000D02*
X162745000Y-115575000D01*
%TO.N,GND*%
X152470000Y-118000000D02*
X152500000Y-118000000D01*
X150045000Y-115575000D02*
X150575000Y-115575000D01*
%TO.N,Net-(Q1-G)*%
X145980000Y-122100000D02*
X154090000Y-122100000D01*
X150610000Y-127600000D02*
X151190000Y-127600000D01*
X151190000Y-127310000D02*
X151190000Y-127600000D01*
X155190000Y-121000000D02*
X155190000Y-123600000D01*
X154090000Y-122100000D02*
X155190000Y-121000000D01*
X144880000Y-121000000D02*
X145980000Y-122100000D01*
X155190000Y-123600000D02*
X151190000Y-127600000D01*
%TO.N,Net-(D1-A)*%
D23*
X151345000Y-132000000D02*
X156960000Y-132000000D01*
X157500000Y-131460000D02*
X156960000Y-132000000D01*
X149637500Y-129200000D02*
X148650000Y-128212500D01*
X148650000Y-129305000D02*
X151345000Y-132000000D01*
X148650000Y-127600000D02*
X148650000Y-129305000D01*
X157500000Y-128000000D02*
X156300000Y-129200000D01*
X148650000Y-128212500D02*
X148650000Y-127600000D01*
X156300000Y-129200000D02*
X149637500Y-129200000D01*
X157500000Y-128000000D02*
X157500000Y-131460000D01*
%TD*%
%TA.AperFunction,Conductor*%
%TO.N,GND*%
G36*
X180846445Y-116118865D02*
G01*
X180885485Y-116163919D01*
X180932715Y-116256614D01*
X181053028Y-116422213D01*
X181197784Y-116566969D01*
X181285275Y-116630533D01*
X181348385Y-116676385D01*
X181391051Y-116731714D01*
X181399500Y-116776703D01*
X181399500Y-118875500D01*
X181379815Y-118942539D01*
X181327011Y-118988294D01*
X181275500Y-118999500D01*
X180952130Y-118999500D01*
X180952123Y-118999501D01*
X180892516Y-119005908D01*
X180757671Y-119056202D01*
X180757664Y-119056206D01*
X180642455Y-119142452D01*
X180554009Y-119260599D01*
X180498075Y-119302469D01*
X180428383Y-119307453D01*
X180381858Y-119286605D01*
X180286174Y-119217087D01*
X180075802Y-119109897D01*
X179851247Y-119036934D01*
X179851248Y-119036934D01*
X179618052Y-119000000D01*
X179381948Y-119000000D01*
X179148752Y-119036934D01*
X178924197Y-119109897D01*
X178713830Y-119217084D01*
X178630894Y-119277340D01*
X179370591Y-120017037D01*
X179307007Y-120034075D01*
X179192993Y-120099901D01*
X179099901Y-120192993D01*
X179034075Y-120307007D01*
X179017037Y-120370590D01*
X178270727Y-119624280D01*
X178227052Y-119615105D01*
X178185384Y-119578739D01*
X178144517Y-119522490D01*
X177977510Y-119355483D01*
X177842874Y-119257664D01*
X177786431Y-119216655D01*
X177668204Y-119156415D01*
X177617409Y-119108441D01*
X177600500Y-119045931D01*
X177600500Y-118380096D01*
X177620185Y-118313057D01*
X177636814Y-118292420D01*
X179060158Y-116869075D01*
X179121479Y-116835592D01*
X179186151Y-116838825D01*
X179200466Y-116843477D01*
X179402648Y-116875500D01*
X179402649Y-116875500D01*
X179607351Y-116875500D01*
X179607352Y-116875500D01*
X179809534Y-116843477D01*
X180004219Y-116780220D01*
X180186610Y-116687287D01*
X180279590Y-116619732D01*
X180352213Y-116566971D01*
X180352215Y-116566968D01*
X180352219Y-116566966D01*
X180496966Y-116422219D01*
X180496968Y-116422215D01*
X180496971Y-116422213D01*
X180617284Y-116256614D01*
X180617286Y-116256611D01*
X180617287Y-116256610D01*
X180664516Y-116163917D01*
X180712489Y-116113123D01*
X180780310Y-116096328D01*
X180846445Y-116118865D01*
G37*
%TD.AperFunction*%
%TA.AperFunction,Conductor*%
G36*
X194442539Y-61520185D02*
G01*
X194488294Y-61572989D01*
X194499500Y-61624500D01*
X194499500Y-138875500D01*
X194479815Y-138942539D01*
X194427011Y-138988294D01*
X194375500Y-138999500D01*
X113124500Y-138999500D01*
X113057461Y-138979815D01*
X113011706Y-138927011D01*
X113000500Y-138875500D01*
X113000500Y-120897648D01*
X143579500Y-120897648D01*
X143579500Y-121102352D01*
X143582704Y-121122580D01*
X143611522Y-121304534D01*
X143674781Y-121499223D01*
X143767715Y-121681613D01*
X143888028Y-121847213D01*
X144032786Y-121991971D01*
X144187749Y-122104556D01*
X144198390Y-122112287D01*
X144279499Y-122153614D01*
X144380776Y-122205218D01*
X144380778Y-122205218D01*
X144380781Y-122205220D01*
X144455818Y-122229601D01*
X144575465Y-122268477D01*
X144603555Y-122272926D01*
X144777648Y-122300500D01*
X144777649Y-122300500D01*
X144982351Y-122300500D01*
X144982352Y-122300500D01*
X145184534Y-122268477D01*
X145198842Y-122263827D01*
X145214054Y-122263392D01*
X145228315Y-122258074D01*
X145248268Y-122262414D01*
X145268682Y-122261831D01*
X145282769Y-122269920D01*
X145296588Y-122272926D01*
X145324842Y-122294077D01*
X145495139Y-122464374D01*
X145495149Y-122464385D01*
X145499479Y-122468715D01*
X145499480Y-122468716D01*
X145611284Y-122580520D01*
X145666498Y-122612397D01*
X145698095Y-122630639D01*
X145698097Y-122630641D01*
X145736151Y-122652611D01*
X145748215Y-122659577D01*
X145900943Y-122700501D01*
X145900946Y-122700501D01*
X146066653Y-122700501D01*
X146066669Y-122700500D01*
X154003331Y-122700500D01*
X154003347Y-122700501D01*
X154010943Y-122700501D01*
X154169054Y-122700501D01*
X154169057Y-122700501D01*
X154321785Y-122659577D01*
X154371904Y-122630639D01*
X154403502Y-122612396D01*
X154471400Y-122595924D01*
X154537427Y-122618777D01*
X154580618Y-122673698D01*
X154589500Y-122719784D01*
X154589500Y-123299902D01*
X154569815Y-123366941D01*
X154553181Y-123387583D01*
X151877582Y-126063181D01*
X151816259Y-126096666D01*
X151789901Y-126099500D01*
X150189629Y-126099500D01*
X150189623Y-126099501D01*
X150130016Y-126105908D01*
X149995171Y-126156202D01*
X149995164Y-126156206D01*
X149879955Y-126242452D01*
X149879952Y-126242455D01*
X149793706Y-126357664D01*
X149793703Y-126357670D01*
X149783308Y-126385541D01*
X149741436Y-126441474D01*
X149675972Y-126465891D01*
X149607699Y-126451039D01*
X149594250Y-126442531D01*
X149411538Y-126309783D01*
X149377650Y-126292516D01*
X149207755Y-126205950D01*
X148990248Y-126135278D01*
X148804812Y-126105908D01*
X148764354Y-126099500D01*
X148535646Y-126099500D01*
X148495188Y-126105908D01*
X148309753Y-126135278D01*
X148309750Y-126135278D01*
X148092244Y-126205950D01*
X147888461Y-126309783D01*
X147822551Y-126357670D01*
X147703434Y-126444214D01*
X147703432Y-126444216D01*
X147703431Y-126444216D01*
X147541716Y-126605931D01*
X147541709Y-126605940D01*
X147480007Y-126690864D01*
X147424677Y-126733530D01*
X147355063Y-126739508D01*
X147293269Y-126706901D01*
X147279372Y-126690863D01*
X147217907Y-126606263D01*
X147217902Y-126606257D01*
X147056242Y-126444597D01*
X146871276Y-126310211D01*
X146667568Y-126206417D01*
X146450124Y-126135765D01*
X146360000Y-126121490D01*
X146360000Y-127109252D01*
X146322292Y-127087482D01*
X146182409Y-127050000D01*
X146037591Y-127050000D01*
X145897708Y-127087482D01*
X145860000Y-127109252D01*
X145860000Y-126121490D01*
X145859999Y-126121490D01*
X145769875Y-126135765D01*
X145552431Y-126206417D01*
X145348723Y-126310211D01*
X145163757Y-126444597D01*
X145002097Y-126606257D01*
X144867711Y-126791223D01*
X144763917Y-126994929D01*
X144693265Y-127212371D01*
X144671468Y-127350000D01*
X145619252Y-127350000D01*
X145597482Y-127387708D01*
X145560000Y-127527591D01*
X145560000Y-127672409D01*
X145597482Y-127812292D01*
X145619252Y-127850000D01*
X144671468Y-127850000D01*
X144693265Y-127987628D01*
X144763917Y-128205070D01*
X144867711Y-128408776D01*
X145002097Y-128593742D01*
X145163757Y-128755402D01*
X145348723Y-128889788D01*
X145552429Y-128993582D01*
X145769871Y-129064234D01*
X145860000Y-129078509D01*
X145860000Y-128090747D01*
X145897708Y-128112518D01*
X146037591Y-128150000D01*
X146182409Y-128150000D01*
X146322292Y-128112518D01*
X146360000Y-128090747D01*
X146360000Y-129078508D01*
X146450128Y-129064234D01*
X146667570Y-128993582D01*
X146871276Y-128889788D01*
X147056242Y-128755402D01*
X147217905Y-128593739D01*
X147279371Y-128509137D01*
X147334701Y-128466470D01*
X147404314Y-128460491D01*
X147466109Y-128493096D01*
X147480007Y-128509134D01*
X147541714Y-128594066D01*
X147655464Y-128707816D01*
X147703432Y-128755784D01*
X147706019Y-128757993D01*
X147706730Y-128759082D01*
X147706880Y-128759232D01*
X147706848Y-128759263D01*
X147744220Y-128816495D01*
X147749500Y-128852294D01*
X147749500Y-129393696D01*
X147784103Y-129567659D01*
X147784106Y-129567669D01*
X147806371Y-129621422D01*
X147806376Y-129621432D01*
X147808495Y-129626547D01*
X147851987Y-129731547D01*
X147903662Y-129808884D01*
X147907350Y-129814404D01*
X147907352Y-129814407D01*
X147950532Y-129879031D01*
X147950538Y-129879039D01*
X150645536Y-132574035D01*
X150770965Y-132699464D01*
X150918453Y-132798013D01*
X150918454Y-132798013D01*
X150918455Y-132798014D01*
X150918457Y-132798015D01*
X150961821Y-132815977D01*
X150961822Y-132815977D01*
X151082334Y-132865895D01*
X151253815Y-132900004D01*
X151256304Y-132900499D01*
X151256308Y-132900500D01*
X151256309Y-132900500D01*
X151433692Y-132900500D01*
X155572744Y-132900500D01*
X155639783Y-132920185D01*
X155673060Y-132951612D01*
X155710249Y-133002798D01*
X155739207Y-133042656D01*
X155917345Y-133220794D01*
X155917350Y-133220798D01*
X156095117Y-133349952D01*
X156121155Y-133368870D01*
X156264184Y-133441747D01*
X156345616Y-133483239D01*
X156345618Y-133483239D01*
X156345621Y-133483241D01*
X156585215Y-133561090D01*
X156834038Y-133600500D01*
X156834039Y-133600500D01*
X157085961Y-133600500D01*
X157085962Y-133600500D01*
X157334785Y-133561090D01*
X157574379Y-133483241D01*
X157798845Y-133368870D01*
X158002656Y-133220793D01*
X158180793Y-133042656D01*
X158328870Y-132838845D01*
X158443241Y-132614379D01*
X158521090Y-132374785D01*
X158560500Y-132125962D01*
X158560500Y-131874038D01*
X158521090Y-131625215D01*
X158521089Y-131625211D01*
X158521089Y-131625210D01*
X158443242Y-131385624D01*
X158443242Y-131385623D01*
X158414015Y-131328260D01*
X158400500Y-131271966D01*
X158400500Y-129060758D01*
X158409143Y-129031321D01*
X158415667Y-129001332D01*
X158419422Y-128996315D01*
X158420185Y-128993719D01*
X158436818Y-128973078D01*
X158452413Y-128957483D01*
X158493327Y-128916568D01*
X158554648Y-128883084D01*
X158624340Y-128888068D01*
X158680273Y-128929939D01*
X158697189Y-128960917D01*
X158746202Y-129092328D01*
X158746206Y-129092335D01*
X158832452Y-129207544D01*
X158832455Y-129207547D01*
X158947664Y-129293793D01*
X158947671Y-129293797D01*
X159082517Y-129344091D01*
X159082516Y-129344091D01*
X159089444Y-129344835D01*
X159142127Y-129350500D01*
X160937872Y-129350499D01*
X160997483Y-129344091D01*
X161132331Y-129293796D01*
X161247546Y-129207546D01*
X161333796Y-129092331D01*
X161341149Y-129072615D01*
X161375258Y-128981167D01*
X161417129Y-128925233D01*
X161482593Y-128900816D01*
X161491440Y-128900500D01*
X162695638Y-128900500D01*
X162762677Y-128920185D01*
X162783319Y-128936819D01*
X165483181Y-131636680D01*
X165516666Y-131698003D01*
X165519500Y-131724361D01*
X165519500Y-132900017D01*
X165530000Y-133002796D01*
X165585185Y-133169332D01*
X165585186Y-133169335D01*
X165677288Y-133318656D01*
X165801344Y-133442712D01*
X165950665Y-133534814D01*
X166117202Y-133589999D01*
X166219990Y-133600500D01*
X166219995Y-133600500D01*
X168020005Y-133600500D01*
X168020010Y-133600500D01*
X168122798Y-133589999D01*
X168289335Y-133534814D01*
X168438656Y-133442712D01*
X168562712Y-133318656D01*
X168654814Y-133169335D01*
X168709999Y-133002798D01*
X168720500Y-132900010D01*
X168720500Y-131099990D01*
X168709999Y-130997202D01*
X168654814Y-130830665D01*
X168562712Y-130681344D01*
X168438656Y-130557288D01*
X168289335Y-130465186D01*
X168122798Y-130410001D01*
X168122796Y-130410000D01*
X168020017Y-130399500D01*
X168020010Y-130399500D01*
X166844361Y-130399500D01*
X166777322Y-130379815D01*
X166756680Y-130363181D01*
X163694041Y-127300540D01*
X163694038Y-127300537D01*
X163620771Y-127251582D01*
X163546544Y-127201985D01*
X163546542Y-127201984D01*
X163464607Y-127168046D01*
X163464606Y-127168046D01*
X163382666Y-127134105D01*
X163382658Y-127134103D01*
X163208696Y-127099500D01*
X163208692Y-127099500D01*
X163208691Y-127099500D01*
X161491440Y-127099500D01*
X161424401Y-127079815D01*
X161378646Y-127027011D01*
X161375258Y-127018833D01*
X161333797Y-126907671D01*
X161333793Y-126907664D01*
X161247547Y-126792455D01*
X161247544Y-126792452D01*
X161132335Y-126706206D01*
X161132328Y-126706202D01*
X160997482Y-126655908D01*
X160997483Y-126655908D01*
X160937883Y-126649501D01*
X160937881Y-126649500D01*
X160937873Y-126649500D01*
X160937864Y-126649500D01*
X159142129Y-126649500D01*
X159142123Y-126649501D01*
X159082516Y-126655908D01*
X158947671Y-126706202D01*
X158947664Y-126706206D01*
X158832455Y-126792452D01*
X158832452Y-126792455D01*
X158746206Y-126907664D01*
X158746203Y-126907669D01*
X158697189Y-127039083D01*
X158655317Y-127095016D01*
X158589853Y-127119433D01*
X158521580Y-127104581D01*
X158493326Y-127083430D01*
X158379786Y-126969890D01*
X158207820Y-126844951D01*
X158018414Y-126748444D01*
X158018413Y-126748443D01*
X158018412Y-126748443D01*
X157816243Y-126682754D01*
X157816241Y-126682753D01*
X157816240Y-126682753D01*
X157654957Y-126657208D01*
X157606287Y-126649500D01*
X157393713Y-126649500D01*
X157345042Y-126657208D01*
X157183760Y-126682753D01*
X156981585Y-126748444D01*
X156792179Y-126844951D01*
X156620213Y-126969890D01*
X156469890Y-127120213D01*
X156344951Y-127292179D01*
X156248444Y-127481585D01*
X156182753Y-127683760D01*
X156149500Y-127893713D01*
X156149500Y-128025638D01*
X156140855Y-128055078D01*
X156134332Y-128085065D01*
X156130577Y-128090080D01*
X156129815Y-128092677D01*
X156113181Y-128113319D01*
X155963319Y-128263181D01*
X155901996Y-128296666D01*
X155875638Y-128299500D01*
X152767000Y-128299500D01*
X152699961Y-128279815D01*
X152654206Y-128227011D01*
X152643000Y-128175500D01*
X152642999Y-127047596D01*
X152662684Y-126980557D01*
X152679313Y-126959920D01*
X155558713Y-124080521D01*
X155558716Y-124080520D01*
X155670520Y-123968716D01*
X155720639Y-123881904D01*
X155749577Y-123831785D01*
X155790500Y-123679058D01*
X155790500Y-123520943D01*
X155790500Y-122229601D01*
X155810185Y-122162562D01*
X155858206Y-122119116D01*
X155871610Y-122112287D01*
X156037219Y-121991966D01*
X156181966Y-121847219D01*
X156181968Y-121847215D01*
X156181971Y-121847213D01*
X156272464Y-121722658D01*
X156302287Y-121681610D01*
X156395220Y-121499219D01*
X156458477Y-121304534D01*
X156490500Y-121102352D01*
X156490500Y-120897648D01*
X156469404Y-120764457D01*
X156458477Y-120695465D01*
X156416354Y-120565826D01*
X156395220Y-120500781D01*
X156395218Y-120500777D01*
X156395218Y-120500776D01*
X156302419Y-120318650D01*
X156302287Y-120318390D01*
X156270092Y-120274077D01*
X156181971Y-120152786D01*
X156037213Y-120008028D01*
X155871613Y-119887715D01*
X155871612Y-119887714D01*
X155871610Y-119887713D01*
X155814653Y-119858691D01*
X155689223Y-119794781D01*
X155494534Y-119731522D01*
X155319995Y-119703878D01*
X155292352Y-119699500D01*
X155087648Y-119699500D01*
X155063329Y-119703351D01*
X154885465Y-119731522D01*
X154690776Y-119794781D01*
X154508386Y-119887715D01*
X154342786Y-120008028D01*
X154198028Y-120152786D01*
X154077715Y-120318386D01*
X153984781Y-120500777D01*
X153962668Y-120568834D01*
X153923229Y-120626509D01*
X153858871Y-120653707D01*
X153790024Y-120641792D01*
X153738549Y-120594547D01*
X153726806Y-120568834D01*
X153704754Y-120500968D01*
X153611859Y-120318650D01*
X153579474Y-120274077D01*
X153579474Y-120274076D01*
X152900000Y-120953551D01*
X152900000Y-120947339D01*
X152872741Y-120845606D01*
X152820080Y-120754394D01*
X152745606Y-120679920D01*
X152654394Y-120627259D01*
X152552661Y-120600000D01*
X152546446Y-120600000D01*
X153225922Y-119920524D01*
X153225921Y-119920523D01*
X153181359Y-119888147D01*
X153181350Y-119888141D01*
X152999031Y-119795244D01*
X152804417Y-119732009D01*
X152602317Y-119700000D01*
X152397683Y-119700000D01*
X152195582Y-119732009D01*
X152000968Y-119795244D01*
X151818644Y-119888143D01*
X151774077Y-119920523D01*
X151774077Y-119920524D01*
X152453554Y-120600000D01*
X152447339Y-120600000D01*
X152345606Y-120627259D01*
X152254394Y-120679920D01*
X152179920Y-120754394D01*
X152127259Y-120845606D01*
X152100000Y-120947339D01*
X152100000Y-120953553D01*
X151420524Y-120274077D01*
X151420523Y-120274077D01*
X151388143Y-120318644D01*
X151295244Y-120500968D01*
X151232009Y-120695582D01*
X151200000Y-120897682D01*
X151200000Y-121102317D01*
X151232010Y-121304418D01*
X151232011Y-121304425D01*
X151242655Y-121337183D01*
X151244650Y-121407024D01*
X151208569Y-121466857D01*
X151145868Y-121497684D01*
X151124724Y-121499500D01*
X146280097Y-121499500D01*
X146250656Y-121490855D01*
X146220670Y-121484332D01*
X146215654Y-121480577D01*
X146213058Y-121479815D01*
X146192416Y-121463181D01*
X146174077Y-121444842D01*
X146140592Y-121383519D01*
X146143828Y-121318841D01*
X146148477Y-121304534D01*
X146180500Y-121102352D01*
X146180500Y-120897648D01*
X146159404Y-120764457D01*
X146148477Y-120695465D01*
X146106354Y-120565826D01*
X146085220Y-120500781D01*
X146085218Y-120500777D01*
X146085218Y-120500776D01*
X145992419Y-120318650D01*
X145992287Y-120318390D01*
X145960092Y-120274077D01*
X145871971Y-120152786D01*
X145727213Y-120008028D01*
X145561613Y-119887715D01*
X145561612Y-119887714D01*
X145561610Y-119887713D01*
X145504653Y-119858691D01*
X145379223Y-119794781D01*
X145184534Y-119731522D01*
X145009995Y-119703878D01*
X144982352Y-119699500D01*
X144777648Y-119699500D01*
X144753329Y-119703351D01*
X144575465Y-119731522D01*
X144380776Y-119794781D01*
X144198386Y-119887715D01*
X144032786Y-120008028D01*
X143888028Y-120152786D01*
X143767715Y-120318386D01*
X143674781Y-120500776D01*
X143611522Y-120695465D01*
X143586830Y-120851368D01*
X143579500Y-120897648D01*
X113000500Y-120897648D01*
X113000500Y-115472648D01*
X141124500Y-115472648D01*
X141124500Y-115677351D01*
X141156522Y-115879534D01*
X141219781Y-116074223D01*
X141312715Y-116256613D01*
X141433028Y-116422213D01*
X141577786Y-116566971D01*
X141728383Y-116676384D01*
X141743390Y-116687287D01*
X141830583Y-116731714D01*
X141925776Y-116780218D01*
X141925778Y-116780218D01*
X141925781Y-116780220D01*
X141994186Y-116802446D01*
X142120465Y-116843477D01*
X142213788Y-116858258D01*
X142322648Y-116875500D01*
X142322649Y-116875500D01*
X142527351Y-116875500D01*
X142527352Y-116875500D01*
X142729534Y-116843477D01*
X142924219Y-116780220D01*
X143106610Y-116687287D01*
X143199590Y-116619732D01*
X143272213Y-116566971D01*
X143272215Y-116566968D01*
X143272219Y-116566966D01*
X143416966Y-116422219D01*
X143416968Y-116422215D01*
X143416971Y-116422213D01*
X143537284Y-116256614D01*
X143537286Y-116256611D01*
X143537287Y-116256610D01*
X143584516Y-116163917D01*
X143632489Y-116113123D01*
X143700310Y-116096328D01*
X143766445Y-116118865D01*
X143805485Y-116163919D01*
X143852715Y-116256614D01*
X143973028Y-116422213D01*
X144117786Y-116566971D01*
X144268383Y-116676384D01*
X144283390Y-116687287D01*
X144370583Y-116731714D01*
X144465776Y-116780218D01*
X144465778Y-116780218D01*
X144465781Y-116780220D01*
X144534186Y-116802446D01*
X144660465Y-116843477D01*
X144753788Y-116858258D01*
X144862648Y-116875500D01*
X144862649Y-116875500D01*
X145067351Y-116875500D01*
X145067352Y-116875500D01*
X145269534Y-116843477D01*
X145464219Y-116780220D01*
X145646610Y-116687287D01*
X145739590Y-116619732D01*
X145812213Y-116566971D01*
X145812215Y-116566968D01*
X145812219Y-116566966D01*
X145956966Y-116422219D01*
X145956968Y-116422215D01*
X145956971Y-116422213D01*
X146077284Y-116256614D01*
X146077286Y-116256611D01*
X146077287Y-116256610D01*
X146124516Y-116163917D01*
X146172489Y-116113123D01*
X146240310Y-116096328D01*
X146306445Y-116118865D01*
X146345485Y-116163919D01*
X146392715Y-116256614D01*
X146513028Y-116422213D01*
X146657786Y-116566971D01*
X146808383Y-116676384D01*
X146823390Y-116687287D01*
X146910583Y-116731714D01*
X147005776Y-116780218D01*
X147005778Y-116780218D01*
X147005781Y-116780220D01*
X147074186Y-116802446D01*
X147200465Y-116843477D01*
X147293788Y-116858258D01*
X147402648Y-116875500D01*
X147402649Y-116875500D01*
X147607351Y-116875500D01*
X147607352Y-116875500D01*
X147809534Y-116843477D01*
X148004219Y-116780220D01*
X148186610Y-116687287D01*
X148279590Y-116619732D01*
X148352213Y-116566971D01*
X148352215Y-116566968D01*
X148352219Y-116566966D01*
X148496966Y-116422219D01*
X148496968Y-116422215D01*
X148496971Y-116422213D01*
X148617284Y-116256614D01*
X148617286Y-116256611D01*
X148617287Y-116256610D01*
X148664795Y-116163369D01*
X148712770Y-116112574D01*
X148780591Y-116095779D01*
X148846725Y-116118316D01*
X148885765Y-116163370D01*
X148933140Y-116256349D01*
X149053417Y-116421894D01*
X149053417Y-116421895D01*
X149198104Y-116566582D01*
X149363650Y-116686859D01*
X149545968Y-116779754D01*
X149740578Y-116842988D01*
X149795000Y-116851607D01*
X149795000Y-116008012D01*
X149852007Y-116040925D01*
X149979174Y-116075000D01*
X150110826Y-116075000D01*
X150237993Y-116040925D01*
X150295000Y-116008012D01*
X150295000Y-116851606D01*
X150349421Y-116842988D01*
X150544031Y-116779754D01*
X150726349Y-116686859D01*
X150891894Y-116566582D01*
X150891895Y-116566582D01*
X151036582Y-116421895D01*
X151036582Y-116421894D01*
X151156861Y-116256347D01*
X151204234Y-116163371D01*
X151252208Y-116112575D01*
X151320028Y-116095779D01*
X151386164Y-116118316D01*
X151425203Y-116163369D01*
X151472713Y-116256611D01*
X151593028Y-116422213D01*
X151737786Y-116566971D01*
X151888383Y-116676384D01*
X151903390Y-116687287D01*
X151990583Y-116731714D01*
X152085776Y-116780218D01*
X152085778Y-116780218D01*
X152085781Y-116780220D01*
X152154186Y-116802446D01*
X152280465Y-116843477D01*
X152373788Y-116858258D01*
X152482648Y-116875500D01*
X152482649Y-116875500D01*
X152687351Y-116875500D01*
X152687352Y-116875500D01*
X152889534Y-116843477D01*
X153084219Y-116780220D01*
X153266610Y-116687287D01*
X153359590Y-116619732D01*
X153432213Y-116566971D01*
X153432215Y-116566968D01*
X153432219Y-116566966D01*
X153576966Y-116422219D01*
X153576968Y-116422215D01*
X153576971Y-116422213D01*
X153697284Y-116256614D01*
X153697286Y-116256611D01*
X153697287Y-116256610D01*
X153744516Y-116163917D01*
X153792489Y-116113123D01*
X153860310Y-116096328D01*
X153926445Y-116118865D01*
X153965485Y-116163919D01*
X154012715Y-116256614D01*
X154133028Y-116422213D01*
X154277786Y-116566971D01*
X154428383Y-116676384D01*
X154443390Y-116687287D01*
X154530583Y-116731714D01*
X154625776Y-116780218D01*
X154625778Y-116780218D01*
X154625781Y-116780220D01*
X154694186Y-116802446D01*
X154820465Y-116843477D01*
X154913788Y-116858258D01*
X155022648Y-116875500D01*
X155022649Y-116875500D01*
X155227351Y-116875500D01*
X155227352Y-116875500D01*
X155429534Y-116843477D01*
X155624219Y-116780220D01*
X155806610Y-116687287D01*
X155899590Y-116619732D01*
X155972213Y-116566971D01*
X155972215Y-116566968D01*
X155972219Y-116566966D01*
X156116966Y-116422219D01*
X156116968Y-116422215D01*
X156116971Y-116422213D01*
X156237284Y-116256614D01*
X156237286Y-116256611D01*
X156237287Y-116256610D01*
X156284516Y-116163917D01*
X156332489Y-116113123D01*
X156400310Y-116096328D01*
X156466445Y-116118865D01*
X156505485Y-116163919D01*
X156552715Y-116256614D01*
X156673028Y-116422213D01*
X156817786Y-116566971D01*
X156968383Y-116676384D01*
X156983390Y-116687287D01*
X157070583Y-116731714D01*
X157165776Y-116780218D01*
X157165778Y-116780218D01*
X157165781Y-116780220D01*
X157234186Y-116802446D01*
X157360465Y-116843477D01*
X157453788Y-116858258D01*
X157562648Y-116875500D01*
X157562649Y-116875500D01*
X157767351Y-116875500D01*
X157767352Y-116875500D01*
X157969534Y-116843477D01*
X158164219Y-116780220D01*
X158346610Y-116687287D01*
X158439590Y-116619732D01*
X158512213Y-116566971D01*
X158512215Y-116566968D01*
X158512219Y-116566966D01*
X158656966Y-116422219D01*
X158656968Y-116422215D01*
X158656971Y-116422213D01*
X158777284Y-116256614D01*
X158777286Y-116256611D01*
X158777287Y-116256610D01*
X158824516Y-116163917D01*
X158872489Y-116113123D01*
X158940310Y-116096328D01*
X159006445Y-116118865D01*
X159045485Y-116163919D01*
X159092715Y-116256614D01*
X159213028Y-116422213D01*
X159357786Y-116566971D01*
X159508383Y-116676384D01*
X159523390Y-116687287D01*
X159610583Y-116731714D01*
X159705776Y-116780218D01*
X159705778Y-116780218D01*
X159705781Y-116780220D01*
X159774186Y-116802446D01*
X159900465Y-116843477D01*
X159993788Y-116858258D01*
X160102648Y-116875500D01*
X160102649Y-116875500D01*
X160307351Y-116875500D01*
X160307352Y-116875500D01*
X160509534Y-116843477D01*
X160704219Y-116780220D01*
X160886610Y-116687287D01*
X160979590Y-116619732D01*
X161052213Y-116566971D01*
X161052215Y-116566968D01*
X161052219Y-116566966D01*
X161196966Y-116422219D01*
X161196968Y-116422215D01*
X161196971Y-116422213D01*
X161317284Y-116256614D01*
X161317286Y-116256611D01*
X161317287Y-116256610D01*
X161364516Y-116163917D01*
X161412489Y-116113123D01*
X161480310Y-116096328D01*
X161546445Y-116118865D01*
X161585485Y-116163919D01*
X161632715Y-116256614D01*
X161753028Y-116422213D01*
X161753034Y-116422219D01*
X161897781Y-116566966D01*
X162063390Y-116687287D01*
X162141794Y-116727235D01*
X162192590Y-116775209D01*
X162209500Y-116837720D01*
X162209500Y-119770397D01*
X162189815Y-119837436D01*
X162141800Y-119880879D01*
X162128389Y-119887712D01*
X161962786Y-120008028D01*
X161818028Y-120152786D01*
X161697715Y-120318386D01*
X161604781Y-120500776D01*
X161541522Y-120695465D01*
X161516830Y-120851368D01*
X161509500Y-120897648D01*
X161509500Y-121102352D01*
X161512704Y-121122580D01*
X161541522Y-121304534D01*
X161604781Y-121499223D01*
X161697715Y-121681613D01*
X161818028Y-121847213D01*
X161962786Y-121991971D01*
X162117749Y-122104556D01*
X162128390Y-122112287D01*
X162209499Y-122153614D01*
X162310776Y-122205218D01*
X162310778Y-122205218D01*
X162310781Y-122205220D01*
X162385818Y-122229601D01*
X162505465Y-122268477D01*
X162533555Y-122272926D01*
X162707648Y-122300500D01*
X162707649Y-122300500D01*
X162912351Y-122300500D01*
X162912352Y-122300500D01*
X163114534Y-122268477D01*
X163309219Y-122205220D01*
X163491610Y-122112287D01*
X163617107Y-122021109D01*
X163657213Y-121991971D01*
X163657215Y-121991968D01*
X163657219Y-121991966D01*
X163801966Y-121847219D01*
X163801968Y-121847215D01*
X163801971Y-121847213D01*
X163892464Y-121722658D01*
X163922287Y-121681610D01*
X164015220Y-121499219D01*
X164078477Y-121304534D01*
X164110500Y-121102352D01*
X164110500Y-120897648D01*
X164089404Y-120764457D01*
X164078477Y-120695465D01*
X164036354Y-120565826D01*
X164015220Y-120500781D01*
X164015218Y-120500777D01*
X164015218Y-120500776D01*
X163922419Y-120318650D01*
X163922287Y-120318390D01*
X163890092Y-120274077D01*
X163801971Y-120152786D01*
X163657213Y-120008028D01*
X163491610Y-119887712D01*
X163478200Y-119880879D01*
X163427406Y-119832903D01*
X163410500Y-119770397D01*
X163410500Y-116762172D01*
X163430185Y-116695133D01*
X163461613Y-116661855D01*
X163592219Y-116566966D01*
X163736966Y-116422219D01*
X163736968Y-116422215D01*
X163736971Y-116422213D01*
X163857284Y-116256614D01*
X163857286Y-116256611D01*
X163857287Y-116256610D01*
X163904516Y-116163917D01*
X163952489Y-116113123D01*
X164020310Y-116096328D01*
X164086445Y-116118865D01*
X164125485Y-116163919D01*
X164172715Y-116256614D01*
X164293028Y-116422213D01*
X164437786Y-116566971D01*
X164588383Y-116676384D01*
X164603390Y-116687287D01*
X164690583Y-116731714D01*
X164785776Y-116780218D01*
X164785778Y-116780218D01*
X164785781Y-116780220D01*
X164854186Y-116802446D01*
X164980465Y-116843477D01*
X165073788Y-116858258D01*
X165182648Y-116875500D01*
X165182649Y-116875500D01*
X165387351Y-116875500D01*
X165387352Y-116875500D01*
X165589534Y-116843477D01*
X165784219Y-116780220D01*
X165966610Y-116687287D01*
X166059590Y-116619732D01*
X166132213Y-116566971D01*
X166132215Y-116566968D01*
X166132219Y-116566966D01*
X166276966Y-116422219D01*
X166276968Y-116422215D01*
X166276971Y-116422213D01*
X166329732Y-116349590D01*
X166397287Y-116256610D01*
X166490220Y-116074219D01*
X166553477Y-115879534D01*
X166585500Y-115677352D01*
X166585500Y-115472648D01*
X168044500Y-115472648D01*
X168044500Y-115677351D01*
X168076522Y-115879534D01*
X168139781Y-116074223D01*
X168232715Y-116256613D01*
X168353028Y-116422213D01*
X168497786Y-116566971D01*
X168648383Y-116676384D01*
X168663390Y-116687287D01*
X168750583Y-116731714D01*
X168845776Y-116780218D01*
X168845778Y-116780218D01*
X168845781Y-116780220D01*
X168914186Y-116802446D01*
X169040465Y-116843477D01*
X169133788Y-116858258D01*
X169242648Y-116875500D01*
X169242649Y-116875500D01*
X169447351Y-116875500D01*
X169447352Y-116875500D01*
X169649534Y-116843477D01*
X169844219Y-116780220D01*
X170026610Y-116687287D01*
X170119590Y-116619732D01*
X170192213Y-116566971D01*
X170192215Y-116566968D01*
X170192219Y-116566966D01*
X170336966Y-116422219D01*
X170336968Y-116422215D01*
X170336971Y-116422213D01*
X170457284Y-116256614D01*
X170457286Y-116256611D01*
X170457287Y-116256610D01*
X170504516Y-116163917D01*
X170552489Y-116113123D01*
X170620310Y-116096328D01*
X170686445Y-116118865D01*
X170725485Y-116163919D01*
X170772715Y-116256614D01*
X170893028Y-116422213D01*
X171037786Y-116566971D01*
X171188383Y-116676384D01*
X171203390Y-116687287D01*
X171290583Y-116731714D01*
X171385776Y-116780218D01*
X171385778Y-116780218D01*
X171385781Y-116780220D01*
X171454186Y-116802446D01*
X171580465Y-116843477D01*
X171673788Y-116858258D01*
X171782648Y-116875500D01*
X171782649Y-116875500D01*
X171987351Y-116875500D01*
X171987352Y-116875500D01*
X172189534Y-116843477D01*
X172384219Y-116780220D01*
X172566610Y-116687287D01*
X172659590Y-116619732D01*
X172732213Y-116566971D01*
X172732215Y-116566968D01*
X172732219Y-116566966D01*
X172876966Y-116422219D01*
X172876968Y-116422215D01*
X172876971Y-116422213D01*
X172997284Y-116256614D01*
X172997286Y-116256611D01*
X172997287Y-116256610D01*
X173044516Y-116163917D01*
X173092489Y-116113123D01*
X173160310Y-116096328D01*
X173226445Y-116118865D01*
X173265485Y-116163919D01*
X173312715Y-116256614D01*
X173433028Y-116422213D01*
X173577786Y-116566971D01*
X173728383Y-116676384D01*
X173743390Y-116687287D01*
X173830583Y-116731714D01*
X173925776Y-116780218D01*
X173925778Y-116780218D01*
X173925781Y-116780220D01*
X173994186Y-116802446D01*
X174120465Y-116843477D01*
X174213788Y-116858258D01*
X174322648Y-116875500D01*
X174322649Y-116875500D01*
X174527351Y-116875500D01*
X174527352Y-116875500D01*
X174729534Y-116843477D01*
X174924219Y-116780220D01*
X174924228Y-116780215D01*
X174928053Y-116778632D01*
X174960683Y-116775125D01*
X174993143Y-116770458D01*
X174995234Y-116771412D01*
X174997523Y-116771167D01*
X175026869Y-116785859D01*
X175056699Y-116799481D01*
X175057942Y-116801415D01*
X175060000Y-116802446D01*
X175076740Y-116830664D01*
X175094475Y-116858258D01*
X175094911Y-116861293D01*
X175095649Y-116862537D01*
X175099499Y-116893193D01*
X175099499Y-116919057D01*
X175099499Y-116919059D01*
X175099500Y-116929053D01*
X175099500Y-125777756D01*
X175079815Y-125844795D01*
X175027011Y-125890550D01*
X174962247Y-125901045D01*
X174947873Y-125899500D01*
X174947864Y-125899500D01*
X172852129Y-125899500D01*
X172852123Y-125899501D01*
X172792516Y-125905908D01*
X172657671Y-125956202D01*
X172657664Y-125956206D01*
X172542455Y-126042452D01*
X172542452Y-126042455D01*
X172456206Y-126157664D01*
X172456202Y-126157671D01*
X172405908Y-126292517D01*
X172399501Y-126352116D01*
X172399501Y-126352123D01*
X172399500Y-126352135D01*
X172399500Y-129647870D01*
X172399501Y-129647876D01*
X172405908Y-129707483D01*
X172456202Y-129842328D01*
X172456206Y-129842335D01*
X172542452Y-129957544D01*
X172542455Y-129957547D01*
X172657664Y-130043793D01*
X172657671Y-130043797D01*
X172792517Y-130094091D01*
X172792516Y-130094091D01*
X172794200Y-130094272D01*
X172852127Y-130100500D01*
X174947872Y-130100499D01*
X174962242Y-130098954D01*
X175031001Y-130111357D01*
X175082140Y-130158966D01*
X175099500Y-130222243D01*
X175099500Y-133613330D01*
X175099499Y-133613348D01*
X175099499Y-133779054D01*
X175099498Y-133779054D01*
X175140423Y-133931785D01*
X175169358Y-133981900D01*
X175169359Y-133981904D01*
X175169360Y-133981904D01*
X175219479Y-134068714D01*
X175219481Y-134068717D01*
X175338349Y-134187585D01*
X175338355Y-134187590D01*
X175547200Y-134396435D01*
X175580685Y-134457758D01*
X175577450Y-134522433D01*
X175536447Y-134648628D01*
X175499500Y-134881902D01*
X175499500Y-135118097D01*
X175536446Y-135351368D01*
X175609433Y-135575996D01*
X175716519Y-135786163D01*
X175716657Y-135786433D01*
X175855483Y-135977510D01*
X176022490Y-136144517D01*
X176213567Y-136283343D01*
X176312991Y-136334002D01*
X176424003Y-136390566D01*
X176424005Y-136390566D01*
X176424008Y-136390568D01*
X176544412Y-136429689D01*
X176648631Y-136463553D01*
X176881903Y-136500500D01*
X176881908Y-136500500D01*
X177118097Y-136500500D01*
X177351368Y-136463553D01*
X177352870Y-136463065D01*
X177575992Y-136390568D01*
X177786433Y-136283343D01*
X177977510Y-136144517D01*
X178144517Y-135977510D01*
X178283343Y-135786433D01*
X178390568Y-135575992D01*
X178463553Y-135351368D01*
X178488637Y-135192993D01*
X178500500Y-135118097D01*
X178500500Y-134881947D01*
X180500000Y-134881947D01*
X180500000Y-135118052D01*
X180536934Y-135351247D01*
X180609897Y-135575802D01*
X180717087Y-135786174D01*
X180777338Y-135869104D01*
X180777340Y-135869105D01*
X181517037Y-135129408D01*
X181534075Y-135192993D01*
X181599901Y-135307007D01*
X181692993Y-135400099D01*
X181807007Y-135465925D01*
X181870590Y-135482962D01*
X181130893Y-136222658D01*
X181213828Y-136282914D01*
X181424197Y-136390102D01*
X181648752Y-136463065D01*
X181648751Y-136463065D01*
X181881948Y-136500000D01*
X182118052Y-136500000D01*
X182351247Y-136463065D01*
X182575802Y-136390102D01*
X182786163Y-136282918D01*
X182786169Y-136282914D01*
X182869104Y-136222658D01*
X182869105Y-136222658D01*
X182129408Y-135482962D01*
X182192993Y-135465925D01*
X182307007Y-135400099D01*
X182400099Y-135307007D01*
X182465925Y-135192993D01*
X182482962Y-135129408D01*
X183222658Y-135869105D01*
X183222658Y-135869104D01*
X183282914Y-135786169D01*
X183282918Y-135786163D01*
X183390102Y-135575802D01*
X183463065Y-135351247D01*
X183500000Y-135118052D01*
X183500000Y-134881947D01*
X183463065Y-134648752D01*
X183390102Y-134424197D01*
X183282914Y-134213828D01*
X183222658Y-134130894D01*
X183222658Y-134130893D01*
X182482962Y-134870590D01*
X182465925Y-134807007D01*
X182400099Y-134692993D01*
X182307007Y-134599901D01*
X182192993Y-134534075D01*
X182129409Y-134517037D01*
X182869105Y-133777340D01*
X182869104Y-133777338D01*
X182786174Y-133717087D01*
X182575802Y-133609897D01*
X182351247Y-133536934D01*
X182351248Y-133536934D01*
X182118052Y-133500000D01*
X181881948Y-133500000D01*
X181648752Y-133536934D01*
X181424197Y-133609897D01*
X181213830Y-133717084D01*
X181130894Y-133777340D01*
X181870591Y-134517037D01*
X181807007Y-134534075D01*
X181692993Y-134599901D01*
X181599901Y-134692993D01*
X181534075Y-134807007D01*
X181517037Y-134870591D01*
X180777340Y-134130894D01*
X180717084Y-134213830D01*
X180609897Y-134424197D01*
X180536934Y-134648752D01*
X180500000Y-134881947D01*
X178500500Y-134881947D01*
X178500500Y-134881902D01*
X178463553Y-134648631D01*
X178401534Y-134457758D01*
X178390568Y-134424008D01*
X178390566Y-134424005D01*
X178390566Y-134424003D01*
X178283477Y-134213830D01*
X178283343Y-134213567D01*
X178144517Y-134022490D01*
X177977510Y-133855483D01*
X177786433Y-133716657D01*
X177575996Y-133609433D01*
X177351368Y-133536446D01*
X177118097Y-133499500D01*
X177118092Y-133499500D01*
X176881908Y-133499500D01*
X176881903Y-133499500D01*
X176648630Y-133536447D01*
X176522435Y-133577450D01*
X176507222Y-133577884D01*
X176492962Y-133583203D01*
X176473006Y-133578861D01*
X176452593Y-133579445D01*
X176438506Y-133571356D01*
X176424689Y-133568351D01*
X176396435Y-133547200D01*
X176336818Y-133487582D01*
X176303334Y-133426258D01*
X176300500Y-133399901D01*
X176300500Y-126352135D01*
X183599500Y-126352135D01*
X183599500Y-129647870D01*
X183599501Y-129647876D01*
X183605908Y-129707483D01*
X183656202Y-129842328D01*
X183656206Y-129842335D01*
X183742452Y-129957544D01*
X183742455Y-129957547D01*
X183857664Y-130043793D01*
X183857671Y-130043797D01*
X183992517Y-130094091D01*
X183992516Y-130094091D01*
X183994200Y-130094272D01*
X184052127Y-130100500D01*
X186147872Y-130100499D01*
X186207483Y-130094091D01*
X186342331Y-130043796D01*
X186457546Y-129957546D01*
X186543796Y-129842331D01*
X186594091Y-129707483D01*
X186600500Y-129647873D01*
X186600499Y-126352128D01*
X186594091Y-126292517D01*
X186561804Y-126205952D01*
X186543797Y-126157671D01*
X186543793Y-126157664D01*
X186457547Y-126042455D01*
X186457544Y-126042452D01*
X186342335Y-125956206D01*
X186342328Y-125956202D01*
X186207482Y-125905908D01*
X186207483Y-125905908D01*
X186147883Y-125899501D01*
X186147881Y-125899500D01*
X186147873Y-125899500D01*
X186147864Y-125899500D01*
X184052129Y-125899500D01*
X184052123Y-125899501D01*
X183992516Y-125905908D01*
X183857671Y-125956202D01*
X183857664Y-125956206D01*
X183742455Y-126042452D01*
X183742452Y-126042455D01*
X183656206Y-126157664D01*
X183656202Y-126157671D01*
X183605908Y-126292517D01*
X183599501Y-126352116D01*
X183599501Y-126352123D01*
X183599500Y-126352135D01*
X176300500Y-126352135D01*
X176300500Y-122021109D01*
X176320185Y-121954070D01*
X176372989Y-121908315D01*
X176442147Y-121898371D01*
X176462813Y-121903176D01*
X176575396Y-121939757D01*
X176648631Y-121963553D01*
X176881903Y-122000500D01*
X176881908Y-122000500D01*
X177118097Y-122000500D01*
X177351368Y-121963553D01*
X177352870Y-121963065D01*
X177575992Y-121890568D01*
X177786433Y-121783343D01*
X177977510Y-121644517D01*
X178144517Y-121477510D01*
X178185385Y-121421259D01*
X178240711Y-121378596D01*
X178272543Y-121373902D01*
X179017037Y-120629408D01*
X179034075Y-120692993D01*
X179099901Y-120807007D01*
X179192993Y-120900099D01*
X179307007Y-120965925D01*
X179370589Y-120982962D01*
X178630893Y-121722658D01*
X178713828Y-121782914D01*
X178924197Y-121890102D01*
X179148752Y-121963065D01*
X179148751Y-121963065D01*
X179381948Y-122000000D01*
X179618052Y-122000000D01*
X179851247Y-121963065D01*
X180075802Y-121890102D01*
X180286171Y-121782914D01*
X180381857Y-121713394D01*
X180447663Y-121689914D01*
X180515717Y-121705739D01*
X180554009Y-121739400D01*
X180642455Y-121857547D01*
X180757664Y-121943793D01*
X180757671Y-121943797D01*
X180892517Y-121994091D01*
X180892516Y-121994091D01*
X180899444Y-121994835D01*
X180952127Y-122000500D01*
X183047872Y-122000499D01*
X183107483Y-121994091D01*
X183242331Y-121943796D01*
X183357546Y-121857546D01*
X183443796Y-121742331D01*
X183494091Y-121607483D01*
X183500500Y-121547873D01*
X183500499Y-119452128D01*
X183494091Y-119392517D01*
X183480278Y-119355483D01*
X183443797Y-119257671D01*
X183443793Y-119257664D01*
X183357547Y-119142455D01*
X183357544Y-119142452D01*
X183242335Y-119056206D01*
X183242328Y-119056202D01*
X183107482Y-119005908D01*
X183107483Y-119005908D01*
X183047883Y-118999501D01*
X183047881Y-118999500D01*
X183047873Y-118999500D01*
X183047865Y-118999500D01*
X182724500Y-118999500D01*
X182657461Y-118979815D01*
X182611706Y-118927011D01*
X182600500Y-118875500D01*
X182600500Y-116827530D01*
X182620185Y-116760491D01*
X182668206Y-116717045D01*
X182726610Y-116687287D01*
X182776144Y-116651298D01*
X182892213Y-116566971D01*
X182892215Y-116566968D01*
X182892219Y-116566966D01*
X183036966Y-116422219D01*
X183036968Y-116422215D01*
X183036971Y-116422213D01*
X183157284Y-116256614D01*
X183157286Y-116256611D01*
X183157287Y-116256610D01*
X183204516Y-116163917D01*
X183252489Y-116113123D01*
X183320310Y-116096328D01*
X183386445Y-116118865D01*
X183425485Y-116163919D01*
X183472715Y-116256614D01*
X183593028Y-116422213D01*
X183737786Y-116566971D01*
X183888383Y-116676384D01*
X183903390Y-116687287D01*
X183990583Y-116731714D01*
X184085776Y-116780218D01*
X184085778Y-116780218D01*
X184085781Y-116780220D01*
X184154186Y-116802446D01*
X184280465Y-116843477D01*
X184373788Y-116858258D01*
X184482648Y-116875500D01*
X184482649Y-116875500D01*
X184687351Y-116875500D01*
X184687352Y-116875500D01*
X184889534Y-116843477D01*
X185084219Y-116780220D01*
X185266610Y-116687287D01*
X185359590Y-116619732D01*
X185432213Y-116566971D01*
X185432215Y-116566968D01*
X185432219Y-116566966D01*
X185576966Y-116422219D01*
X185576968Y-116422215D01*
X185576971Y-116422213D01*
X185697284Y-116256614D01*
X185697286Y-116256611D01*
X185697287Y-116256610D01*
X185744516Y-116163917D01*
X185792489Y-116113123D01*
X185860310Y-116096328D01*
X185926445Y-116118865D01*
X185965485Y-116163919D01*
X186012715Y-116256614D01*
X186133028Y-116422213D01*
X186277786Y-116566971D01*
X186428383Y-116676384D01*
X186443390Y-116687287D01*
X186530583Y-116731714D01*
X186625776Y-116780218D01*
X186625778Y-116780218D01*
X186625781Y-116780220D01*
X186694186Y-116802446D01*
X186820465Y-116843477D01*
X186913788Y-116858258D01*
X187022648Y-116875500D01*
X187022649Y-116875500D01*
X187227351Y-116875500D01*
X187227352Y-116875500D01*
X187429534Y-116843477D01*
X187624219Y-116780220D01*
X187806610Y-116687287D01*
X187899590Y-116619732D01*
X187972213Y-116566971D01*
X187972215Y-116566968D01*
X187972219Y-116566966D01*
X188116966Y-116422219D01*
X188116968Y-116422215D01*
X188116971Y-116422213D01*
X188169732Y-116349590D01*
X188237287Y-116256610D01*
X188330220Y-116074219D01*
X188393477Y-115879534D01*
X188425500Y-115677352D01*
X188425500Y-115472648D01*
X188393477Y-115270466D01*
X188392673Y-115267993D01*
X188330218Y-115075776D01*
X188237419Y-114893650D01*
X188237287Y-114893390D01*
X188229556Y-114882749D01*
X188116971Y-114727786D01*
X187972213Y-114583028D01*
X187806613Y-114462715D01*
X187806612Y-114462714D01*
X187806610Y-114462713D01*
X187749653Y-114433691D01*
X187624223Y-114369781D01*
X187429534Y-114306522D01*
X187254995Y-114278878D01*
X187227352Y-114274500D01*
X187022648Y-114274500D01*
X186998329Y-114278351D01*
X186820465Y-114306522D01*
X186625776Y-114369781D01*
X186443386Y-114462715D01*
X186277786Y-114583028D01*
X186133028Y-114727786D01*
X186012715Y-114893386D01*
X185965485Y-114986080D01*
X185917510Y-115036876D01*
X185849689Y-115053671D01*
X185783554Y-115031134D01*
X185744515Y-114986080D01*
X185697419Y-114893650D01*
X185697287Y-114893390D01*
X185689556Y-114882749D01*
X185576971Y-114727786D01*
X185432213Y-114583028D01*
X185266613Y-114462715D01*
X185266612Y-114462714D01*
X185266610Y-114462713D01*
X185209653Y-114433691D01*
X185084223Y-114369781D01*
X184889534Y-114306522D01*
X184714995Y-114278878D01*
X184687352Y-114274500D01*
X184482648Y-114274500D01*
X184458329Y-114278351D01*
X184280465Y-114306522D01*
X184085776Y-114369781D01*
X183903386Y-114462715D01*
X183737786Y-114583028D01*
X183593028Y-114727786D01*
X183472715Y-114893386D01*
X183425485Y-114986080D01*
X183377510Y-115036876D01*
X183309689Y-115053671D01*
X183243554Y-115031134D01*
X183204515Y-114986080D01*
X183157419Y-114893650D01*
X183157287Y-114893390D01*
X183149556Y-114882749D01*
X183036971Y-114727786D01*
X182892213Y-114583028D01*
X182726613Y-114462715D01*
X182726612Y-114462714D01*
X182726610Y-114462713D01*
X182669653Y-114433691D01*
X182544223Y-114369781D01*
X182349534Y-114306522D01*
X182174995Y-114278878D01*
X182147352Y-114274500D01*
X181942648Y-114274500D01*
X181918329Y-114278351D01*
X181740465Y-114306522D01*
X181545776Y-114369781D01*
X181363386Y-114462715D01*
X181197786Y-114583028D01*
X181053028Y-114727786D01*
X180932715Y-114893386D01*
X180885485Y-114986080D01*
X180837510Y-115036876D01*
X180769689Y-115053671D01*
X180703554Y-115031134D01*
X180664515Y-114986080D01*
X180617419Y-114893650D01*
X180617287Y-114893390D01*
X180609556Y-114882749D01*
X180496971Y-114727786D01*
X180352213Y-114583028D01*
X180186613Y-114462715D01*
X180186612Y-114462714D01*
X180186610Y-114462713D01*
X180129653Y-114433691D01*
X180004223Y-114369781D01*
X179809534Y-114306522D01*
X179634995Y-114278878D01*
X179607352Y-114274500D01*
X179402648Y-114274500D01*
X179378329Y-114278351D01*
X179200465Y-114306522D01*
X179005776Y-114369781D01*
X178823386Y-114462715D01*
X178657786Y-114583028D01*
X178513028Y-114727786D01*
X178392715Y-114893386D01*
X178345485Y-114986080D01*
X178297510Y-115036876D01*
X178229689Y-115053671D01*
X178163554Y-115031134D01*
X178124515Y-114986080D01*
X178077419Y-114893650D01*
X178077287Y-114893390D01*
X178069556Y-114882749D01*
X177956971Y-114727786D01*
X177812213Y-114583028D01*
X177646613Y-114462715D01*
X177646612Y-114462714D01*
X177646610Y-114462713D01*
X177589653Y-114433691D01*
X177464223Y-114369781D01*
X177269534Y-114306522D01*
X177094995Y-114278878D01*
X177067352Y-114274500D01*
X176862648Y-114274500D01*
X176838329Y-114278351D01*
X176660465Y-114306522D01*
X176465776Y-114369781D01*
X176283386Y-114462715D01*
X176117786Y-114583028D01*
X175973028Y-114727786D01*
X175852715Y-114893386D01*
X175805485Y-114986080D01*
X175757510Y-115036876D01*
X175689689Y-115053671D01*
X175623554Y-115031134D01*
X175584515Y-114986080D01*
X175537419Y-114893650D01*
X175537287Y-114893390D01*
X175529556Y-114882749D01*
X175416971Y-114727786D01*
X175272213Y-114583028D01*
X175106613Y-114462715D01*
X175106612Y-114462714D01*
X175106610Y-114462713D01*
X175049653Y-114433691D01*
X174924223Y-114369781D01*
X174729534Y-114306522D01*
X174554995Y-114278878D01*
X174527352Y-114274500D01*
X174322648Y-114274500D01*
X174298329Y-114278351D01*
X174120465Y-114306522D01*
X173925776Y-114369781D01*
X173743386Y-114462715D01*
X173577786Y-114583028D01*
X173433028Y-114727786D01*
X173312715Y-114893386D01*
X173265485Y-114986080D01*
X173217510Y-115036876D01*
X173149689Y-115053671D01*
X173083554Y-115031134D01*
X173044515Y-114986080D01*
X172997419Y-114893650D01*
X172997287Y-114893390D01*
X172989556Y-114882749D01*
X172876971Y-114727786D01*
X172732213Y-114583028D01*
X172566613Y-114462715D01*
X172566612Y-114462714D01*
X172566610Y-114462713D01*
X172509653Y-114433691D01*
X172384223Y-114369781D01*
X172189534Y-114306522D01*
X172014995Y-114278878D01*
X171987352Y-114274500D01*
X171782648Y-114274500D01*
X171758329Y-114278351D01*
X171580465Y-114306522D01*
X171385776Y-114369781D01*
X171203386Y-114462715D01*
X171037786Y-114583028D01*
X170893028Y-114727786D01*
X170772715Y-114893386D01*
X170725485Y-114986080D01*
X170677510Y-115036876D01*
X170609689Y-115053671D01*
X170543554Y-115031134D01*
X170504515Y-114986080D01*
X170457419Y-114893650D01*
X170457287Y-114893390D01*
X170449556Y-114882749D01*
X170336971Y-114727786D01*
X170192213Y-114583028D01*
X170026613Y-114462715D01*
X170026612Y-114462714D01*
X170026610Y-114462713D01*
X169969653Y-114433691D01*
X169844223Y-114369781D01*
X169649534Y-114306522D01*
X169474995Y-114278878D01*
X169447352Y-114274500D01*
X169242648Y-114274500D01*
X169218329Y-114278351D01*
X169040465Y-114306522D01*
X168845776Y-114369781D01*
X168663386Y-114462715D01*
X168497786Y-114583028D01*
X168353028Y-114727786D01*
X168232715Y-114893386D01*
X168139781Y-115075776D01*
X168076522Y-115270465D01*
X168044500Y-115472648D01*
X166585500Y-115472648D01*
X166553477Y-115270466D01*
X166552673Y-115267993D01*
X166490218Y-115075776D01*
X166397419Y-114893650D01*
X166397287Y-114893390D01*
X166389556Y-114882749D01*
X166276971Y-114727786D01*
X166132213Y-114583028D01*
X165966613Y-114462715D01*
X165966612Y-114462714D01*
X165966610Y-114462713D01*
X165909653Y-114433691D01*
X165784223Y-114369781D01*
X165589534Y-114306522D01*
X165414995Y-114278878D01*
X165387352Y-114274500D01*
X165182648Y-114274500D01*
X165158329Y-114278351D01*
X164980465Y-114306522D01*
X164785776Y-114369781D01*
X164603386Y-114462715D01*
X164437786Y-114583028D01*
X164293028Y-114727786D01*
X164172715Y-114893386D01*
X164125485Y-114986080D01*
X164077510Y-115036876D01*
X164009689Y-115053671D01*
X163943554Y-115031134D01*
X163904515Y-114986080D01*
X163857419Y-114893650D01*
X163857287Y-114893390D01*
X163849556Y-114882749D01*
X163736971Y-114727786D01*
X163592213Y-114583028D01*
X163426613Y-114462715D01*
X163426612Y-114462714D01*
X163426610Y-114462713D01*
X163369653Y-114433691D01*
X163244223Y-114369781D01*
X163049534Y-114306522D01*
X162874995Y-114278878D01*
X162847352Y-114274500D01*
X162642648Y-114274500D01*
X162618329Y-114278351D01*
X162440465Y-114306522D01*
X162245776Y-114369781D01*
X162063386Y-114462715D01*
X161897786Y-114583028D01*
X161753028Y-114727786D01*
X161632715Y-114893386D01*
X161585485Y-114986080D01*
X161537510Y-115036876D01*
X161469689Y-115053671D01*
X161403554Y-115031134D01*
X161364515Y-114986080D01*
X161317419Y-114893650D01*
X161317287Y-114893390D01*
X161309556Y-114882749D01*
X161196971Y-114727786D01*
X161052213Y-114583028D01*
X160886613Y-114462715D01*
X160886612Y-114462714D01*
X160886610Y-114462713D01*
X160829653Y-114433691D01*
X160704223Y-114369781D01*
X160509534Y-114306522D01*
X160334995Y-114278878D01*
X160307352Y-114274500D01*
X160102648Y-114274500D01*
X160078329Y-114278351D01*
X159900465Y-114306522D01*
X159705776Y-114369781D01*
X159523386Y-114462715D01*
X159357786Y-114583028D01*
X159213028Y-114727786D01*
X159092715Y-114893386D01*
X159045485Y-114986080D01*
X158997510Y-115036876D01*
X158929689Y-115053671D01*
X158863554Y-115031134D01*
X158824515Y-114986080D01*
X158777419Y-114893650D01*
X158777287Y-114893390D01*
X158769556Y-114882749D01*
X158656971Y-114727786D01*
X158512213Y-114583028D01*
X158346613Y-114462715D01*
X158346612Y-114462714D01*
X158346610Y-114462713D01*
X158289653Y-114433691D01*
X158164223Y-114369781D01*
X157969534Y-114306522D01*
X157794995Y-114278878D01*
X157767352Y-114274500D01*
X157562648Y-114274500D01*
X157538329Y-114278351D01*
X157360465Y-114306522D01*
X157165776Y-114369781D01*
X156983386Y-114462715D01*
X156817786Y-114583028D01*
X156673028Y-114727786D01*
X156552715Y-114893386D01*
X156505485Y-114986080D01*
X156457510Y-115036876D01*
X156389689Y-115053671D01*
X156323554Y-115031134D01*
X156284515Y-114986080D01*
X156237419Y-114893650D01*
X156237287Y-114893390D01*
X156229556Y-114882749D01*
X156116971Y-114727786D01*
X155972213Y-114583028D01*
X155806613Y-114462715D01*
X155806612Y-114462714D01*
X155806610Y-114462713D01*
X155749653Y-114433691D01*
X155624223Y-114369781D01*
X155429534Y-114306522D01*
X155254995Y-114278878D01*
X155227352Y-114274500D01*
X155022648Y-114274500D01*
X154998329Y-114278351D01*
X154820465Y-114306522D01*
X154625776Y-114369781D01*
X154443386Y-114462715D01*
X154277786Y-114583028D01*
X154133028Y-114727786D01*
X154012715Y-114893386D01*
X153965485Y-114986080D01*
X153917510Y-115036876D01*
X153849689Y-115053671D01*
X153783554Y-115031134D01*
X153744515Y-114986080D01*
X153697419Y-114893650D01*
X153697287Y-114893390D01*
X153689556Y-114882749D01*
X153576971Y-114727786D01*
X153432213Y-114583028D01*
X153266613Y-114462715D01*
X153266612Y-114462714D01*
X153266610Y-114462713D01*
X153209653Y-114433691D01*
X153084223Y-114369781D01*
X152889534Y-114306522D01*
X152714995Y-114278878D01*
X152687352Y-114274500D01*
X152482648Y-114274500D01*
X152458329Y-114278351D01*
X152280465Y-114306522D01*
X152085776Y-114369781D01*
X151903386Y-114462715D01*
X151737786Y-114583028D01*
X151593028Y-114727786D01*
X151472713Y-114893388D01*
X151425203Y-114986630D01*
X151377228Y-115037426D01*
X151309407Y-115054220D01*
X151243272Y-115031682D01*
X151204234Y-114986628D01*
X151156861Y-114893652D01*
X151036582Y-114728105D01*
X151036582Y-114728104D01*
X150891895Y-114583417D01*
X150726349Y-114463140D01*
X150544029Y-114370244D01*
X150349413Y-114307009D01*
X150295000Y-114298390D01*
X150295000Y-115141988D01*
X150237993Y-115109075D01*
X150110826Y-115075000D01*
X149979174Y-115075000D01*
X149852007Y-115109075D01*
X149795000Y-115141988D01*
X149795000Y-114298390D01*
X149740586Y-114307009D01*
X149545970Y-114370244D01*
X149363650Y-114463140D01*
X149198105Y-114583417D01*
X149198104Y-114583417D01*
X149053417Y-114728104D01*
X149053417Y-114728105D01*
X148933140Y-114893650D01*
X148885765Y-114986629D01*
X148837790Y-115037425D01*
X148769969Y-115054220D01*
X148703834Y-115031682D01*
X148664795Y-114986629D01*
X148617419Y-114893650D01*
X148617287Y-114893390D01*
X148609556Y-114882749D01*
X148496971Y-114727786D01*
X148352213Y-114583028D01*
X148186613Y-114462715D01*
X148186612Y-114462714D01*
X148186610Y-114462713D01*
X148129653Y-114433691D01*
X148004223Y-114369781D01*
X147809534Y-114306522D01*
X147634995Y-114278878D01*
X147607352Y-114274500D01*
X147402648Y-114274500D01*
X147378329Y-114278351D01*
X147200465Y-114306522D01*
X147005776Y-114369781D01*
X146823386Y-114462715D01*
X146657786Y-114583028D01*
X146513028Y-114727786D01*
X146392715Y-114893386D01*
X146345485Y-114986080D01*
X146297510Y-115036876D01*
X146229689Y-115053671D01*
X146163554Y-115031134D01*
X146124515Y-114986080D01*
X146077419Y-114893650D01*
X146077287Y-114893390D01*
X146069556Y-114882749D01*
X145956971Y-114727786D01*
X145812213Y-114583028D01*
X145646613Y-114462715D01*
X145646612Y-114462714D01*
X145646610Y-114462713D01*
X145589653Y-114433691D01*
X145464223Y-114369781D01*
X145269534Y-114306522D01*
X145094995Y-114278878D01*
X145067352Y-114274500D01*
X144862648Y-114274500D01*
X144838329Y-114278351D01*
X144660465Y-114306522D01*
X144465776Y-114369781D01*
X144283386Y-114462715D01*
X144117786Y-114583028D01*
X143973028Y-114727786D01*
X143852715Y-114893386D01*
X143805485Y-114986080D01*
X143757510Y-115036876D01*
X143689689Y-115053671D01*
X143623554Y-115031134D01*
X143584515Y-114986080D01*
X143537419Y-114893650D01*
X143537287Y-114893390D01*
X143529556Y-114882749D01*
X143416971Y-114727786D01*
X143272213Y-114583028D01*
X143106613Y-114462715D01*
X143106612Y-114462714D01*
X143106610Y-114462713D01*
X143049653Y-114433691D01*
X142924223Y-114369781D01*
X142729534Y-114306522D01*
X142554995Y-114278878D01*
X142527352Y-114274500D01*
X142322648Y-114274500D01*
X142298329Y-114278351D01*
X142120465Y-114306522D01*
X141925776Y-114369781D01*
X141743386Y-114462715D01*
X141577786Y-114583028D01*
X141433028Y-114727786D01*
X141312715Y-114893386D01*
X141219781Y-115075776D01*
X141156522Y-115270465D01*
X141124500Y-115472648D01*
X113000500Y-115472648D01*
X113000500Y-66467135D01*
X150264500Y-66467135D01*
X150264500Y-68162870D01*
X150264501Y-68162876D01*
X150270908Y-68222483D01*
X150321202Y-68357328D01*
X150321206Y-68357335D01*
X150407452Y-68472544D01*
X150407455Y-68472547D01*
X150522664Y-68558793D01*
X150522671Y-68558797D01*
X150657517Y-68609091D01*
X150657516Y-68609091D01*
X150664444Y-68609835D01*
X150717127Y-68615500D01*
X152412872Y-68615499D01*
X152472483Y-68609091D01*
X152607331Y-68558796D01*
X152722546Y-68472546D01*
X152808796Y-68357331D01*
X152859091Y-68222483D01*
X152863061Y-68185556D01*
X152889796Y-68121011D01*
X152947188Y-68081161D01*
X153017013Y-68078666D01*
X153077102Y-68114317D01*
X153086667Y-68125929D01*
X153113032Y-68162217D01*
X153257786Y-68306971D01*
X153412749Y-68419556D01*
X153423390Y-68427287D01*
X153512212Y-68472544D01*
X153605776Y-68520218D01*
X153605778Y-68520218D01*
X153605781Y-68520220D01*
X153710137Y-68554127D01*
X153800465Y-68583477D01*
X153901557Y-68599488D01*
X154002648Y-68615500D01*
X154002649Y-68615500D01*
X154207351Y-68615500D01*
X154207352Y-68615500D01*
X154409534Y-68583477D01*
X154604219Y-68520220D01*
X154786610Y-68427287D01*
X154882901Y-68357328D01*
X154952213Y-68306971D01*
X154952215Y-68306968D01*
X154952219Y-68306966D01*
X155096966Y-68162219D01*
X155096968Y-68162215D01*
X155096971Y-68162213D01*
X155217284Y-67996614D01*
X155217285Y-67996613D01*
X155217287Y-67996610D01*
X155264516Y-67903917D01*
X155312489Y-67853123D01*
X155380310Y-67836328D01*
X155446445Y-67858865D01*
X155485485Y-67903919D01*
X155532715Y-67996614D01*
X155653028Y-68162213D01*
X155797786Y-68306971D01*
X155952749Y-68419556D01*
X155963390Y-68427287D01*
X156052212Y-68472544D01*
X156145776Y-68520218D01*
X156145778Y-68520218D01*
X156145781Y-68520220D01*
X156250137Y-68554127D01*
X156340465Y-68583477D01*
X156441557Y-68599488D01*
X156542648Y-68615500D01*
X156542649Y-68615500D01*
X156747351Y-68615500D01*
X156747352Y-68615500D01*
X156949534Y-68583477D01*
X157144219Y-68520220D01*
X157326610Y-68427287D01*
X157422901Y-68357328D01*
X157492213Y-68306971D01*
X157492215Y-68306968D01*
X157492219Y-68306966D01*
X157636966Y-68162219D01*
X157636968Y-68162215D01*
X157636971Y-68162213D01*
X157757284Y-67996614D01*
X157757285Y-67996613D01*
X157757287Y-67996610D01*
X157804516Y-67903917D01*
X157852489Y-67853123D01*
X157920310Y-67836328D01*
X157986445Y-67858865D01*
X158025485Y-67903919D01*
X158072715Y-67996614D01*
X158193028Y-68162213D01*
X158337786Y-68306971D01*
X158492749Y-68419556D01*
X158503390Y-68427287D01*
X158592212Y-68472544D01*
X158685776Y-68520218D01*
X158685778Y-68520218D01*
X158685781Y-68520220D01*
X158790137Y-68554127D01*
X158880465Y-68583477D01*
X158981557Y-68599488D01*
X159082648Y-68615500D01*
X159082649Y-68615500D01*
X159287351Y-68615500D01*
X159287352Y-68615500D01*
X159489534Y-68583477D01*
X159684219Y-68520220D01*
X159866610Y-68427287D01*
X159962901Y-68357328D01*
X160032213Y-68306971D01*
X160032215Y-68306968D01*
X160032219Y-68306966D01*
X160176966Y-68162219D01*
X160176968Y-68162215D01*
X160176971Y-68162213D01*
X160297284Y-67996614D01*
X160297285Y-67996613D01*
X160297287Y-67996610D01*
X160344516Y-67903917D01*
X160392489Y-67853123D01*
X160460310Y-67836328D01*
X160526445Y-67858865D01*
X160565485Y-67903919D01*
X160612715Y-67996614D01*
X160733028Y-68162213D01*
X160877786Y-68306971D01*
X161032749Y-68419556D01*
X161043390Y-68427287D01*
X161132212Y-68472544D01*
X161225776Y-68520218D01*
X161225778Y-68520218D01*
X161225781Y-68520220D01*
X161330137Y-68554127D01*
X161420465Y-68583477D01*
X161521557Y-68599488D01*
X161622648Y-68615500D01*
X161622649Y-68615500D01*
X161827351Y-68615500D01*
X161827352Y-68615500D01*
X162029534Y-68583477D01*
X162224219Y-68520220D01*
X162406610Y-68427287D01*
X162502901Y-68357328D01*
X162572213Y-68306971D01*
X162572215Y-68306968D01*
X162572219Y-68306966D01*
X162716966Y-68162219D01*
X162716968Y-68162215D01*
X162716971Y-68162213D01*
X162837284Y-67996614D01*
X162837285Y-67996613D01*
X162837287Y-67996610D01*
X162884516Y-67903917D01*
X162932489Y-67853123D01*
X163000310Y-67836328D01*
X163066445Y-67858865D01*
X163105485Y-67903919D01*
X163152715Y-67996614D01*
X163273028Y-68162213D01*
X163417786Y-68306971D01*
X163572749Y-68419556D01*
X163583390Y-68427287D01*
X163672212Y-68472544D01*
X163765776Y-68520218D01*
X163765778Y-68520218D01*
X163765781Y-68520220D01*
X163870137Y-68554127D01*
X163960465Y-68583477D01*
X164061557Y-68599488D01*
X164162648Y-68615500D01*
X164162649Y-68615500D01*
X164367351Y-68615500D01*
X164367352Y-68615500D01*
X164569534Y-68583477D01*
X164764219Y-68520220D01*
X164946610Y-68427287D01*
X165042901Y-68357328D01*
X165112213Y-68306971D01*
X165112215Y-68306968D01*
X165112219Y-68306966D01*
X165256966Y-68162219D01*
X165256968Y-68162215D01*
X165256971Y-68162213D01*
X165377284Y-67996614D01*
X165377285Y-67996613D01*
X165377287Y-67996610D01*
X165424516Y-67903917D01*
X165472489Y-67853123D01*
X165540310Y-67836328D01*
X165606445Y-67858865D01*
X165645485Y-67903919D01*
X165692715Y-67996614D01*
X165813028Y-68162213D01*
X165957786Y-68306971D01*
X166112749Y-68419556D01*
X166123390Y-68427287D01*
X166212212Y-68472544D01*
X166305776Y-68520218D01*
X166305778Y-68520218D01*
X166305781Y-68520220D01*
X166410137Y-68554127D01*
X166500465Y-68583477D01*
X166601557Y-68599488D01*
X166702648Y-68615500D01*
X166702649Y-68615500D01*
X166907351Y-68615500D01*
X166907352Y-68615500D01*
X167109534Y-68583477D01*
X167304219Y-68520220D01*
X167486610Y-68427287D01*
X167582901Y-68357328D01*
X167652213Y-68306971D01*
X167652215Y-68306968D01*
X167652219Y-68306966D01*
X167796966Y-68162219D01*
X167796968Y-68162215D01*
X167796971Y-68162213D01*
X167917284Y-67996614D01*
X167917285Y-67996613D01*
X167917287Y-67996610D01*
X167964516Y-67903917D01*
X168012489Y-67853123D01*
X168080310Y-67836328D01*
X168146445Y-67858865D01*
X168185485Y-67903919D01*
X168232715Y-67996614D01*
X168353028Y-68162213D01*
X168497786Y-68306971D01*
X168652749Y-68419556D01*
X168663390Y-68427287D01*
X168752212Y-68472544D01*
X168845776Y-68520218D01*
X168845778Y-68520218D01*
X168845781Y-68520220D01*
X168950137Y-68554127D01*
X169040465Y-68583477D01*
X169141557Y-68599488D01*
X169242648Y-68615500D01*
X169242649Y-68615500D01*
X169447351Y-68615500D01*
X169447352Y-68615500D01*
X169649534Y-68583477D01*
X169844219Y-68520220D01*
X170026610Y-68427287D01*
X170122901Y-68357328D01*
X170192213Y-68306971D01*
X170192215Y-68306968D01*
X170192219Y-68306966D01*
X170336966Y-68162219D01*
X170336968Y-68162215D01*
X170336971Y-68162213D01*
X170397670Y-68078666D01*
X170457287Y-67996610D01*
X170550220Y-67814219D01*
X170613477Y-67619534D01*
X170645500Y-67417352D01*
X170645500Y-67212648D01*
X173124500Y-67212648D01*
X173124500Y-67417351D01*
X173156522Y-67619534D01*
X173219781Y-67814223D01*
X173312715Y-67996613D01*
X173433028Y-68162213D01*
X173577786Y-68306971D01*
X173732749Y-68419556D01*
X173743390Y-68427287D01*
X173832212Y-68472544D01*
X173925776Y-68520218D01*
X173925778Y-68520218D01*
X173925781Y-68520220D01*
X174030137Y-68554127D01*
X174120465Y-68583477D01*
X174221557Y-68599488D01*
X174322648Y-68615500D01*
X174322649Y-68615500D01*
X174527351Y-68615500D01*
X174527352Y-68615500D01*
X174729534Y-68583477D01*
X174924219Y-68520220D01*
X175106610Y-68427287D01*
X175202901Y-68357328D01*
X175272213Y-68306971D01*
X175272215Y-68306968D01*
X175272219Y-68306966D01*
X175416966Y-68162219D01*
X175416968Y-68162215D01*
X175416971Y-68162213D01*
X175537284Y-67996614D01*
X175537285Y-67996613D01*
X175537287Y-67996610D01*
X175584516Y-67903917D01*
X175632489Y-67853123D01*
X175700310Y-67836328D01*
X175766445Y-67858865D01*
X175805485Y-67903919D01*
X175852715Y-67996614D01*
X175973028Y-68162213D01*
X176117786Y-68306971D01*
X176272749Y-68419556D01*
X176283390Y-68427287D01*
X176372212Y-68472544D01*
X176465776Y-68520218D01*
X176465778Y-68520218D01*
X176465781Y-68520220D01*
X176570137Y-68554127D01*
X176660465Y-68583477D01*
X176761557Y-68599488D01*
X176862648Y-68615500D01*
X176862649Y-68615500D01*
X177067351Y-68615500D01*
X177067352Y-68615500D01*
X177269534Y-68583477D01*
X177464219Y-68520220D01*
X177646610Y-68427287D01*
X177742901Y-68357328D01*
X177812213Y-68306971D01*
X177812215Y-68306968D01*
X177812219Y-68306966D01*
X177956966Y-68162219D01*
X177956968Y-68162215D01*
X177956971Y-68162213D01*
X178077284Y-67996614D01*
X178077285Y-67996613D01*
X178077287Y-67996610D01*
X178124516Y-67903917D01*
X178172489Y-67853123D01*
X178240310Y-67836328D01*
X178306445Y-67858865D01*
X178345485Y-67903919D01*
X178392715Y-67996614D01*
X178513028Y-68162213D01*
X178657786Y-68306971D01*
X178812749Y-68419556D01*
X178823390Y-68427287D01*
X178912212Y-68472544D01*
X179005776Y-68520218D01*
X179005778Y-68520218D01*
X179005781Y-68520220D01*
X179110137Y-68554127D01*
X179200465Y-68583477D01*
X179301557Y-68599488D01*
X179402648Y-68615500D01*
X179402649Y-68615500D01*
X179607351Y-68615500D01*
X179607352Y-68615500D01*
X179809534Y-68583477D01*
X180004219Y-68520220D01*
X180186610Y-68427287D01*
X180282901Y-68357328D01*
X180352213Y-68306971D01*
X180352215Y-68306968D01*
X180352219Y-68306966D01*
X180496966Y-68162219D01*
X180496968Y-68162215D01*
X180496971Y-68162213D01*
X180617284Y-67996614D01*
X180617285Y-67996613D01*
X180617287Y-67996610D01*
X180664516Y-67903917D01*
X180712489Y-67853123D01*
X180780310Y-67836328D01*
X180846445Y-67858865D01*
X180885485Y-67903919D01*
X180932715Y-67996614D01*
X181053028Y-68162213D01*
X181197786Y-68306971D01*
X181352749Y-68419556D01*
X181363390Y-68427287D01*
X181452212Y-68472544D01*
X181545776Y-68520218D01*
X181545778Y-68520218D01*
X181545781Y-68520220D01*
X181650137Y-68554127D01*
X181740465Y-68583477D01*
X181841557Y-68599488D01*
X181942648Y-68615500D01*
X181942649Y-68615500D01*
X182147351Y-68615500D01*
X182147352Y-68615500D01*
X182349534Y-68583477D01*
X182544219Y-68520220D01*
X182726610Y-68427287D01*
X182822901Y-68357328D01*
X182892213Y-68306971D01*
X182892215Y-68306968D01*
X182892219Y-68306966D01*
X183036966Y-68162219D01*
X183036968Y-68162215D01*
X183036971Y-68162213D01*
X183157284Y-67996614D01*
X183157285Y-67996613D01*
X183157287Y-67996610D01*
X183204516Y-67903917D01*
X183252489Y-67853123D01*
X183320310Y-67836328D01*
X183386445Y-67858865D01*
X183425485Y-67903919D01*
X183472715Y-67996614D01*
X183593028Y-68162213D01*
X183737786Y-68306971D01*
X183892749Y-68419556D01*
X183903390Y-68427287D01*
X183992212Y-68472544D01*
X184085776Y-68520218D01*
X184085778Y-68520218D01*
X184085781Y-68520220D01*
X184190137Y-68554127D01*
X184280465Y-68583477D01*
X184381557Y-68599488D01*
X184482648Y-68615500D01*
X184482649Y-68615500D01*
X184687351Y-68615500D01*
X184687352Y-68615500D01*
X184889534Y-68583477D01*
X185084219Y-68520220D01*
X185266610Y-68427287D01*
X185362901Y-68357328D01*
X185432213Y-68306971D01*
X185432215Y-68306968D01*
X185432219Y-68306966D01*
X185576966Y-68162219D01*
X185576968Y-68162215D01*
X185576971Y-68162213D01*
X185697284Y-67996614D01*
X185697285Y-67996613D01*
X185697287Y-67996610D01*
X185744516Y-67903917D01*
X185792489Y-67853123D01*
X185860310Y-67836328D01*
X185926445Y-67858865D01*
X185965485Y-67903919D01*
X186012715Y-67996614D01*
X186133028Y-68162213D01*
X186277786Y-68306971D01*
X186432749Y-68419556D01*
X186443390Y-68427287D01*
X186532212Y-68472544D01*
X186625776Y-68520218D01*
X186625778Y-68520218D01*
X186625781Y-68520220D01*
X186730137Y-68554127D01*
X186820465Y-68583477D01*
X186921557Y-68599488D01*
X187022648Y-68615500D01*
X187022649Y-68615500D01*
X187227351Y-68615500D01*
X187227352Y-68615500D01*
X187429534Y-68583477D01*
X187624219Y-68520220D01*
X187806610Y-68427287D01*
X187902901Y-68357328D01*
X187972213Y-68306971D01*
X187972215Y-68306968D01*
X187972219Y-68306966D01*
X188116966Y-68162219D01*
X188116968Y-68162215D01*
X188116971Y-68162213D01*
X188177670Y-68078666D01*
X188237287Y-67996610D01*
X188330220Y-67814219D01*
X188393477Y-67619534D01*
X188425500Y-67417352D01*
X188425500Y-67212648D01*
X188393477Y-67010466D01*
X188330220Y-66815781D01*
X188330218Y-66815778D01*
X188330218Y-66815776D01*
X188284515Y-66726080D01*
X188237287Y-66633390D01*
X188229556Y-66622749D01*
X188116971Y-66467786D01*
X187972213Y-66323028D01*
X187806613Y-66202715D01*
X187806612Y-66202714D01*
X187806610Y-66202713D01*
X187749653Y-66173691D01*
X187624223Y-66109781D01*
X187429534Y-66046522D01*
X187254995Y-66018878D01*
X187227352Y-66014500D01*
X187022648Y-66014500D01*
X186998329Y-66018351D01*
X186820465Y-66046522D01*
X186625776Y-66109781D01*
X186443386Y-66202715D01*
X186277786Y-66323028D01*
X186133028Y-66467786D01*
X186012715Y-66633386D01*
X185965485Y-66726080D01*
X185917510Y-66776876D01*
X185849689Y-66793671D01*
X185783554Y-66771134D01*
X185744515Y-66726080D01*
X185743883Y-66724840D01*
X185697287Y-66633390D01*
X185689556Y-66622749D01*
X185576971Y-66467786D01*
X185432213Y-66323028D01*
X185266613Y-66202715D01*
X185266612Y-66202714D01*
X185266610Y-66202713D01*
X185209653Y-66173691D01*
X185084223Y-66109781D01*
X184889534Y-66046522D01*
X184714995Y-66018878D01*
X184687352Y-66014500D01*
X184482648Y-66014500D01*
X184458329Y-66018351D01*
X184280465Y-66046522D01*
X184085776Y-66109781D01*
X183903386Y-66202715D01*
X183737786Y-66323028D01*
X183593028Y-66467786D01*
X183472715Y-66633386D01*
X183425485Y-66726080D01*
X183377510Y-66776876D01*
X183309689Y-66793671D01*
X183243554Y-66771134D01*
X183204515Y-66726080D01*
X183203883Y-66724840D01*
X183157287Y-66633390D01*
X183149556Y-66622749D01*
X183036971Y-66467786D01*
X182892213Y-66323028D01*
X182726613Y-66202715D01*
X182726612Y-66202714D01*
X182726610Y-66202713D01*
X182669653Y-66173691D01*
X182544223Y-66109781D01*
X182349534Y-66046522D01*
X182174995Y-66018878D01*
X182147352Y-66014500D01*
X181942648Y-66014500D01*
X181918329Y-66018351D01*
X181740465Y-66046522D01*
X181545776Y-66109781D01*
X181363386Y-66202715D01*
X181197786Y-66323028D01*
X181053028Y-66467786D01*
X180932715Y-66633386D01*
X180885485Y-66726080D01*
X180837510Y-66776876D01*
X180769689Y-66793671D01*
X180703554Y-66771134D01*
X180664515Y-66726080D01*
X180663883Y-66724840D01*
X180617287Y-66633390D01*
X180609556Y-66622749D01*
X180496971Y-66467786D01*
X180352213Y-66323028D01*
X180186613Y-66202715D01*
X180186612Y-66202714D01*
X180186610Y-66202713D01*
X180129653Y-66173691D01*
X180004223Y-66109781D01*
X179809534Y-66046522D01*
X179634995Y-66018878D01*
X179607352Y-66014500D01*
X179402648Y-66014500D01*
X179378329Y-66018351D01*
X179200465Y-66046522D01*
X179005776Y-66109781D01*
X178823386Y-66202715D01*
X178657786Y-66323028D01*
X178513028Y-66467786D01*
X178392715Y-66633386D01*
X178345485Y-66726080D01*
X178297510Y-66776876D01*
X178229689Y-66793671D01*
X178163554Y-66771134D01*
X178124515Y-66726080D01*
X178123883Y-66724840D01*
X178077287Y-66633390D01*
X178069556Y-66622749D01*
X177956971Y-66467786D01*
X177812213Y-66323028D01*
X177646613Y-66202715D01*
X177646612Y-66202714D01*
X177646610Y-66202713D01*
X177589653Y-66173691D01*
X177464223Y-66109781D01*
X177269534Y-66046522D01*
X177094995Y-66018878D01*
X177067352Y-66014500D01*
X176862648Y-66014500D01*
X176838329Y-66018351D01*
X176660465Y-66046522D01*
X176465776Y-66109781D01*
X176283386Y-66202715D01*
X176117786Y-66323028D01*
X175973028Y-66467786D01*
X175852715Y-66633386D01*
X175805485Y-66726080D01*
X175757510Y-66776876D01*
X175689689Y-66793671D01*
X175623554Y-66771134D01*
X175584515Y-66726080D01*
X175583883Y-66724840D01*
X175537287Y-66633390D01*
X175529556Y-66622749D01*
X175416971Y-66467786D01*
X175272213Y-66323028D01*
X175106613Y-66202715D01*
X175106612Y-66202714D01*
X175106610Y-66202713D01*
X175049653Y-66173691D01*
X174924223Y-66109781D01*
X174729534Y-66046522D01*
X174554995Y-66018878D01*
X174527352Y-66014500D01*
X174322648Y-66014500D01*
X174298329Y-66018351D01*
X174120465Y-66046522D01*
X173925776Y-66109781D01*
X173743386Y-66202715D01*
X173577786Y-66323028D01*
X173433028Y-66467786D01*
X173312715Y-66633386D01*
X173219781Y-66815776D01*
X173156522Y-67010465D01*
X173124500Y-67212648D01*
X170645500Y-67212648D01*
X170613477Y-67010466D01*
X170550220Y-66815781D01*
X170550218Y-66815778D01*
X170550218Y-66815776D01*
X170504515Y-66726080D01*
X170457287Y-66633390D01*
X170449556Y-66622749D01*
X170336971Y-66467786D01*
X170192213Y-66323028D01*
X170026613Y-66202715D01*
X170026612Y-66202714D01*
X170026610Y-66202713D01*
X169969653Y-66173691D01*
X169844223Y-66109781D01*
X169649534Y-66046522D01*
X169474995Y-66018878D01*
X169447352Y-66014500D01*
X169242648Y-66014500D01*
X169218329Y-66018351D01*
X169040465Y-66046522D01*
X168845776Y-66109781D01*
X168663386Y-66202715D01*
X168497786Y-66323028D01*
X168353028Y-66467786D01*
X168232715Y-66633386D01*
X168185485Y-66726080D01*
X168137510Y-66776876D01*
X168069689Y-66793671D01*
X168003554Y-66771134D01*
X167964515Y-66726080D01*
X167963883Y-66724840D01*
X167917287Y-66633390D01*
X167909556Y-66622749D01*
X167796971Y-66467786D01*
X167652213Y-66323028D01*
X167486613Y-66202715D01*
X167486612Y-66202714D01*
X167486610Y-66202713D01*
X167429653Y-66173691D01*
X167304223Y-66109781D01*
X167109534Y-66046522D01*
X166934995Y-66018878D01*
X166907352Y-66014500D01*
X166702648Y-66014500D01*
X166678329Y-66018351D01*
X166500465Y-66046522D01*
X166305776Y-66109781D01*
X166123386Y-66202715D01*
X165957786Y-66323028D01*
X165813028Y-66467786D01*
X165692715Y-66633386D01*
X165645485Y-66726080D01*
X165597510Y-66776876D01*
X165529689Y-66793671D01*
X165463554Y-66771134D01*
X165424515Y-66726080D01*
X165423883Y-66724840D01*
X165377287Y-66633390D01*
X165369556Y-66622749D01*
X165256971Y-66467786D01*
X165112213Y-66323028D01*
X164946613Y-66202715D01*
X164946612Y-66202714D01*
X164946610Y-66202713D01*
X164889653Y-66173691D01*
X164764223Y-66109781D01*
X164569534Y-66046522D01*
X164394995Y-66018878D01*
X164367352Y-66014500D01*
X164162648Y-66014500D01*
X164138329Y-66018351D01*
X163960465Y-66046522D01*
X163765776Y-66109781D01*
X163583386Y-66202715D01*
X163417786Y-66323028D01*
X163273028Y-66467786D01*
X163152715Y-66633386D01*
X163105485Y-66726080D01*
X163057510Y-66776876D01*
X162989689Y-66793671D01*
X162923554Y-66771134D01*
X162884515Y-66726080D01*
X162883883Y-66724840D01*
X162837287Y-66633390D01*
X162829556Y-66622749D01*
X162716971Y-66467786D01*
X162572213Y-66323028D01*
X162406613Y-66202715D01*
X162406612Y-66202714D01*
X162406610Y-66202713D01*
X162349653Y-66173691D01*
X162224223Y-66109781D01*
X162029534Y-66046522D01*
X161854995Y-66018878D01*
X161827352Y-66014500D01*
X161622648Y-66014500D01*
X161598329Y-66018351D01*
X161420465Y-66046522D01*
X161225776Y-66109781D01*
X161043386Y-66202715D01*
X160877786Y-66323028D01*
X160733028Y-66467786D01*
X160612715Y-66633386D01*
X160565485Y-66726080D01*
X160517510Y-66776876D01*
X160449689Y-66793671D01*
X160383554Y-66771134D01*
X160344515Y-66726080D01*
X160343883Y-66724840D01*
X160297287Y-66633390D01*
X160289556Y-66622749D01*
X160176971Y-66467786D01*
X160032213Y-66323028D01*
X159866613Y-66202715D01*
X159866612Y-66202714D01*
X159866610Y-66202713D01*
X159809653Y-66173691D01*
X159684223Y-66109781D01*
X159489534Y-66046522D01*
X159314995Y-66018878D01*
X159287352Y-66014500D01*
X159082648Y-66014500D01*
X159058329Y-66018351D01*
X158880465Y-66046522D01*
X158685776Y-66109781D01*
X158503386Y-66202715D01*
X158337786Y-66323028D01*
X158193028Y-66467786D01*
X158072715Y-66633386D01*
X158025485Y-66726080D01*
X157977510Y-66776876D01*
X157909689Y-66793671D01*
X157843554Y-66771134D01*
X157804515Y-66726080D01*
X157803883Y-66724840D01*
X157757287Y-66633390D01*
X157749556Y-66622749D01*
X157636971Y-66467786D01*
X157492213Y-66323028D01*
X157326613Y-66202715D01*
X157326612Y-66202714D01*
X157326610Y-66202713D01*
X157269653Y-66173691D01*
X157144223Y-66109781D01*
X156949534Y-66046522D01*
X156774995Y-66018878D01*
X156747352Y-66014500D01*
X156542648Y-66014500D01*
X156518329Y-66018351D01*
X156340465Y-66046522D01*
X156145776Y-66109781D01*
X155963386Y-66202715D01*
X155797786Y-66323028D01*
X155653028Y-66467786D01*
X155532715Y-66633386D01*
X155485485Y-66726080D01*
X155437510Y-66776876D01*
X155369689Y-66793671D01*
X155303554Y-66771134D01*
X155264515Y-66726080D01*
X155263883Y-66724840D01*
X155217287Y-66633390D01*
X155209556Y-66622749D01*
X155096971Y-66467786D01*
X154952213Y-66323028D01*
X154786613Y-66202715D01*
X154786612Y-66202714D01*
X154786610Y-66202713D01*
X154729653Y-66173691D01*
X154604223Y-66109781D01*
X154409534Y-66046522D01*
X154234995Y-66018878D01*
X154207352Y-66014500D01*
X154002648Y-66014500D01*
X153978329Y-66018351D01*
X153800465Y-66046522D01*
X153605776Y-66109781D01*
X153423386Y-66202715D01*
X153257786Y-66323028D01*
X153113032Y-66467782D01*
X153086668Y-66504070D01*
X153031338Y-66546735D01*
X152961724Y-66552714D01*
X152899929Y-66520108D01*
X152865572Y-66459269D01*
X152863060Y-66444438D01*
X152862640Y-66440533D01*
X152859091Y-66407517D01*
X152808796Y-66272669D01*
X152808795Y-66272668D01*
X152808793Y-66272664D01*
X152722547Y-66157455D01*
X152722544Y-66157452D01*
X152607335Y-66071206D01*
X152607328Y-66071202D01*
X152472482Y-66020908D01*
X152472483Y-66020908D01*
X152412883Y-66014501D01*
X152412881Y-66014500D01*
X152412873Y-66014500D01*
X152412864Y-66014500D01*
X150717129Y-66014500D01*
X150717123Y-66014501D01*
X150657516Y-66020908D01*
X150522671Y-66071202D01*
X150522664Y-66071206D01*
X150407455Y-66157452D01*
X150407452Y-66157455D01*
X150321206Y-66272664D01*
X150321202Y-66272671D01*
X150270908Y-66407517D01*
X150264501Y-66467116D01*
X150264500Y-66467135D01*
X113000500Y-66467135D01*
X113000500Y-61624500D01*
X113020185Y-61557461D01*
X113072989Y-61511706D01*
X113124500Y-61500500D01*
X194375500Y-61500500D01*
X194442539Y-61520185D01*
G37*
%TD.AperFunction*%
%TD*%
M02*
