M48
; DRILL file KiCad 10.0.1 date 2026-07-01T00:03:39
; FORMAT={-:-/ absolute / metric / decimal}
; #@! TF.CreationDate,2026-07-01T00:03:39-07:00
; #@! TF.GenerationSoftware,Kicad,Pcbnew,10.0.1
; #@! TF.FileFunction,Plated,1,2,PTH
FMAT,2
METRIC
; #@! TA.AperFunction,Plated,PTH,ComponentDrill
T1C0.800
; #@! TA.AperFunction,Plated,PTH,ComponentDrill
T2C1.000
; #@! TA.AperFunction,Plated,PTH,ComponentDrill
T3C1.100
%
G90
G05
T1
X150.69Y-116.5
X158.31Y-116.5
X161.38Y-116.5
X169.0Y-116.5
X173.19Y-116.5
X180.81Y-116.5
T2
X146.425Y-110.575
X148.965Y-110.575
X151.505Y-110.575
X154.045Y-110.575
X155.565Y-62.315
X156.585Y-110.575
X158.105Y-62.315
X159.125Y-110.575
X160.645Y-62.315
X161.665Y-110.575
X163.185Y-62.315
X163.735Y-123.5
X164.205Y-110.575
X165.725Y-62.315
X166.275Y-123.5
X166.745Y-110.575
X168.265Y-62.315
X169.285Y-110.575
X170.805Y-62.315
X173.345Y-62.315
X173.345Y-110.575
X175.885Y-110.575
X178.425Y-62.315
X178.425Y-110.575
X180.965Y-62.315
X180.965Y-110.575
X183.505Y-62.315
X183.505Y-110.575
X186.045Y-62.315
X186.045Y-110.575
X188.585Y-62.315
X188.585Y-110.575
X191.125Y-62.315
X191.125Y-110.575
T3
X151.96Y-122.5
X154.5Y-122.5
X157.04Y-122.5
X159.92Y-128.5
X170.08Y-128.5
X184.0Y-116.5
X184.0Y-121.0
X190.5Y-116.5
X190.5Y-121.0
M30
