%TF.GenerationSoftware,KiCad,Pcbnew,10.0.1*%
%TF.CreationDate,2026-07-11T21:17:00-07:00*%
%TF.ProjectId,Rotary_Encoder_Motor_Controller,526f7461-7279-45f4-956e-636f6465725f,rev?*%
%TF.SameCoordinates,Original*%
%TF.FileFunction,Legend,Top*%
%TF.FilePolarity,Positive*%
%FSLAX46Y46*%
G04 Gerber Fmt 4.6, Leading zero omitted, Abs format (unit mm)*
G04 Created by KiCad (PCBNEW 10.0.1) date 2026-07-11 21:17:00*
%MOMM*%
%LPD*%
G01*
G04 APERTURE LIST*
%ADD10C,0.150000*%
%ADD11C,0.120000*%
G04 APERTURE END LIST*
D10*
X162230476Y-127454819D02*
X162230476Y-126454819D01*
X162230476Y-126454819D02*
X162563809Y-127169104D01*
X162563809Y-127169104D02*
X162897142Y-126454819D01*
X162897142Y-126454819D02*
X162897142Y-127454819D01*
X163897142Y-127454819D02*
X163325714Y-127454819D01*
X163611428Y-127454819D02*
X163611428Y-126454819D01*
X163611428Y-126454819D02*
X163516190Y-126597676D01*
X163516190Y-126597676D02*
X163420952Y-126692914D01*
X163420952Y-126692914D02*
X163325714Y-126740533D01*
X152120714Y-63674104D02*
X152596904Y-63674104D01*
X152025476Y-63959819D02*
X152358809Y-62959819D01*
X152358809Y-62959819D02*
X152692142Y-63959819D01*
X153549285Y-63959819D02*
X152977857Y-63959819D01*
X153263571Y-63959819D02*
X153263571Y-62959819D01*
X153263571Y-62959819D02*
X153168333Y-63102676D01*
X153168333Y-63102676D02*
X153073095Y-63197914D01*
X153073095Y-63197914D02*
X152977857Y-63245533D01*
X148523333Y-119454819D02*
X148190000Y-118978628D01*
X147951905Y-119454819D02*
X147951905Y-118454819D01*
X147951905Y-118454819D02*
X148332857Y-118454819D01*
X148332857Y-118454819D02*
X148428095Y-118502438D01*
X148428095Y-118502438D02*
X148475714Y-118550057D01*
X148475714Y-118550057D02*
X148523333Y-118645295D01*
X148523333Y-118645295D02*
X148523333Y-118788152D01*
X148523333Y-118788152D02*
X148475714Y-118883390D01*
X148475714Y-118883390D02*
X148428095Y-118931009D01*
X148428095Y-118931009D02*
X148332857Y-118978628D01*
X148332857Y-118978628D02*
X147951905Y-118978628D01*
X148904286Y-118550057D02*
X148951905Y-118502438D01*
X148951905Y-118502438D02*
X149047143Y-118454819D01*
X149047143Y-118454819D02*
X149285238Y-118454819D01*
X149285238Y-118454819D02*
X149380476Y-118502438D01*
X149380476Y-118502438D02*
X149428095Y-118550057D01*
X149428095Y-118550057D02*
X149475714Y-118645295D01*
X149475714Y-118645295D02*
X149475714Y-118740533D01*
X149475714Y-118740533D02*
X149428095Y-118883390D01*
X149428095Y-118883390D02*
X148856667Y-119454819D01*
X148856667Y-119454819D02*
X149475714Y-119454819D01*
X171907200Y-124833332D02*
X171954819Y-124690475D01*
X171954819Y-124690475D02*
X171954819Y-124452380D01*
X171954819Y-124452380D02*
X171907200Y-124357142D01*
X171907200Y-124357142D02*
X171859580Y-124309523D01*
X171859580Y-124309523D02*
X171764342Y-124261904D01*
X171764342Y-124261904D02*
X171669104Y-124261904D01*
X171669104Y-124261904D02*
X171573866Y-124309523D01*
X171573866Y-124309523D02*
X171526247Y-124357142D01*
X171526247Y-124357142D02*
X171478628Y-124452380D01*
X171478628Y-124452380D02*
X171431009Y-124642856D01*
X171431009Y-124642856D02*
X171383390Y-124738094D01*
X171383390Y-124738094D02*
X171335771Y-124785713D01*
X171335771Y-124785713D02*
X171240533Y-124833332D01*
X171240533Y-124833332D02*
X171145295Y-124833332D01*
X171145295Y-124833332D02*
X171050057Y-124785713D01*
X171050057Y-124785713D02*
X171002438Y-124738094D01*
X171002438Y-124738094D02*
X170954819Y-124642856D01*
X170954819Y-124642856D02*
X170954819Y-124404761D01*
X170954819Y-124404761D02*
X171002438Y-124261904D01*
X170954819Y-123928570D02*
X171954819Y-123690475D01*
X171954819Y-123690475D02*
X171240533Y-123499999D01*
X171240533Y-123499999D02*
X171954819Y-123309523D01*
X171954819Y-123309523D02*
X170954819Y-123071428D01*
X171954819Y-122166666D02*
X171954819Y-122738094D01*
X171954819Y-122452380D02*
X170954819Y-122452380D01*
X170954819Y-122452380D02*
X171097676Y-122547618D01*
X171097676Y-122547618D02*
X171192914Y-122642856D01*
X171192914Y-122642856D02*
X171240533Y-122738094D01*
X146904761Y-126050057D02*
X146809523Y-126002438D01*
X146809523Y-126002438D02*
X146714285Y-125907200D01*
X146714285Y-125907200D02*
X146571428Y-125764342D01*
X146571428Y-125764342D02*
X146476190Y-125716723D01*
X146476190Y-125716723D02*
X146380952Y-125716723D01*
X146428571Y-125954819D02*
X146333333Y-125907200D01*
X146333333Y-125907200D02*
X146238095Y-125811961D01*
X146238095Y-125811961D02*
X146190476Y-125621485D01*
X146190476Y-125621485D02*
X146190476Y-125288152D01*
X146190476Y-125288152D02*
X146238095Y-125097676D01*
X146238095Y-125097676D02*
X146333333Y-125002438D01*
X146333333Y-125002438D02*
X146428571Y-124954819D01*
X146428571Y-124954819D02*
X146619047Y-124954819D01*
X146619047Y-124954819D02*
X146714285Y-125002438D01*
X146714285Y-125002438D02*
X146809523Y-125097676D01*
X146809523Y-125097676D02*
X146857142Y-125288152D01*
X146857142Y-125288152D02*
X146857142Y-125621485D01*
X146857142Y-125621485D02*
X146809523Y-125811961D01*
X146809523Y-125811961D02*
X146714285Y-125907200D01*
X146714285Y-125907200D02*
X146619047Y-125954819D01*
X146619047Y-125954819D02*
X146428571Y-125954819D01*
X147809523Y-125954819D02*
X147238095Y-125954819D01*
X147523809Y-125954819D02*
X147523809Y-124954819D01*
X147523809Y-124954819D02*
X147428571Y-125097676D01*
X147428571Y-125097676D02*
X147333333Y-125192914D01*
X147333333Y-125192914D02*
X147238095Y-125240533D01*
X158833333Y-119454819D02*
X158500000Y-118978628D01*
X158261905Y-119454819D02*
X158261905Y-118454819D01*
X158261905Y-118454819D02*
X158642857Y-118454819D01*
X158642857Y-118454819D02*
X158738095Y-118502438D01*
X158738095Y-118502438D02*
X158785714Y-118550057D01*
X158785714Y-118550057D02*
X158833333Y-118645295D01*
X158833333Y-118645295D02*
X158833333Y-118788152D01*
X158833333Y-118788152D02*
X158785714Y-118883390D01*
X158785714Y-118883390D02*
X158738095Y-118931009D01*
X158738095Y-118931009D02*
X158642857Y-118978628D01*
X158642857Y-118978628D02*
X158261905Y-118978628D01*
X159785714Y-119454819D02*
X159214286Y-119454819D01*
X159500000Y-119454819D02*
X159500000Y-118454819D01*
X159500000Y-118454819D02*
X159404762Y-118597676D01*
X159404762Y-118597676D02*
X159309524Y-118692914D01*
X159309524Y-118692914D02*
X159214286Y-118740533D01*
X161301905Y-134954819D02*
X161301905Y-133954819D01*
X161301905Y-133954819D02*
X161540000Y-133954819D01*
X161540000Y-133954819D02*
X161682857Y-134002438D01*
X161682857Y-134002438D02*
X161778095Y-134097676D01*
X161778095Y-134097676D02*
X161825714Y-134192914D01*
X161825714Y-134192914D02*
X161873333Y-134383390D01*
X161873333Y-134383390D02*
X161873333Y-134526247D01*
X161873333Y-134526247D02*
X161825714Y-134716723D01*
X161825714Y-134716723D02*
X161778095Y-134811961D01*
X161778095Y-134811961D02*
X161682857Y-134907200D01*
X161682857Y-134907200D02*
X161540000Y-134954819D01*
X161540000Y-134954819D02*
X161301905Y-134954819D01*
X162825714Y-134954819D02*
X162254286Y-134954819D01*
X162540000Y-134954819D02*
X162540000Y-133954819D01*
X162540000Y-133954819D02*
X162444762Y-134097676D01*
X162444762Y-134097676D02*
X162349524Y-134192914D01*
X162349524Y-134192914D02*
X162254286Y-134240533D01*
X166278095Y-134954819D02*
X166278095Y-133954819D01*
X166849523Y-134954819D02*
X166420952Y-134383390D01*
X166849523Y-133954819D02*
X166278095Y-134526247D01*
%TO.C,M1*%
D11*
X161420000Y-126620000D02*
X161420000Y-128000000D01*
X160040000Y-126620000D02*
X161420000Y-126620000D01*
X158770000Y-129380000D02*
X156120000Y-129380000D01*
X158770000Y-126620000D02*
X158770000Y-129380000D01*
X158770000Y-126620000D02*
X156120000Y-126620000D01*
X156120000Y-126620000D02*
X156120000Y-129380000D01*
%TO.C,A1*%
X117145000Y-97035000D02*
X117145000Y-108715000D01*
X117145000Y-108715000D02*
X123495000Y-108715000D01*
X121595000Y-67825000D02*
X121595000Y-76965000D01*
X121595000Y-76965000D02*
X123495000Y-76965000D01*
X123495000Y-64645000D02*
X123495000Y-67825000D01*
X123495000Y-67825000D02*
X121595000Y-67825000D01*
X123495000Y-76965000D02*
X123495000Y-97035000D01*
X123495000Y-97035000D02*
X117145000Y-97035000D01*
X123495000Y-108715000D02*
X123495000Y-118245000D01*
X123495000Y-118245000D02*
X188145000Y-118245000D01*
X188145000Y-118245000D02*
X189795000Y-116595000D01*
X189795000Y-64645000D02*
X123495000Y-64645000D01*
X189795000Y-67315000D02*
X189795000Y-64645000D01*
X189795000Y-105165000D02*
X192335000Y-102625000D01*
X189795000Y-116595000D02*
X189795000Y-105165000D01*
X192335000Y-69855000D02*
X189795000Y-67315000D01*
X192335000Y-102625000D02*
X192335000Y-69855000D01*
%TO.C,R2*%
X145420000Y-119630000D02*
X151960000Y-119630000D01*
X145420000Y-119960000D02*
X145420000Y-119630000D01*
X145420000Y-122040000D02*
X145420000Y-122370000D01*
X145420000Y-122370000D02*
X151960000Y-122370000D01*
X151960000Y-119630000D02*
X151960000Y-119960000D01*
X151960000Y-122370000D02*
X151960000Y-122040000D01*
%TO.C,SW1*%
X173600000Y-126000000D02*
X173600000Y-121900000D01*
X173600000Y-134100000D02*
X173600000Y-130000000D01*
X176000000Y-134100000D02*
X173600000Y-134100000D01*
X179500000Y-127500000D02*
X179500000Y-128500000D01*
X180000000Y-128000000D02*
X179000000Y-128000000D01*
X180800000Y-134100000D02*
X178200000Y-134100000D01*
X183300000Y-120500000D02*
X183600000Y-120200000D01*
X183600000Y-120200000D02*
X183600000Y-120800000D01*
X183600000Y-120800000D02*
X183300000Y-120500000D01*
X185400000Y-121900000D02*
X173600000Y-121900000D01*
X185400000Y-126000000D02*
X185400000Y-121900000D01*
X185400000Y-130000000D02*
X185400000Y-134100000D01*
X185400000Y-134100000D02*
X183000000Y-134100000D01*
X182500000Y-128000000D02*
G75*
G02*
X176500000Y-128000000I-3000000J0D01*
G01*
X176500000Y-128000000D02*
G75*
G02*
X182500000Y-128000000I3000000J0D01*
G01*
%TO.C,Q1*%
X143540000Y-126240000D02*
X153760000Y-126240000D01*
X143540000Y-130860000D02*
X143540000Y-126240000D01*
X146800000Y-130860000D02*
X146800000Y-129480000D01*
X150500000Y-130860000D02*
X150500000Y-129480000D01*
X153760000Y-126240000D02*
X153760000Y-130860000D01*
X153760000Y-129480000D02*
X143540000Y-129480000D01*
X153760000Y-130860000D02*
X143540000Y-130860000D01*
%TO.C,R1*%
X155730000Y-119630000D02*
X155730000Y-119960000D01*
X155730000Y-122370000D02*
X155730000Y-122040000D01*
X162270000Y-119630000D02*
X155730000Y-119630000D01*
X162270000Y-119960000D02*
X162270000Y-119630000D01*
X162270000Y-122040000D02*
X162270000Y-122370000D01*
X162270000Y-122370000D02*
X155730000Y-122370000D01*
%TO.C,D1*%
X158300000Y-132000000D02*
X159320000Y-132000000D01*
X163740000Y-133470000D02*
X163740000Y-130530000D01*
X163860000Y-133470000D02*
X163860000Y-130530000D01*
X163980000Y-133470000D02*
X163980000Y-130530000D01*
X165780000Y-132000000D02*
X164760000Y-132000000D01*
X159320000Y-130530000D02*
X164760000Y-130530000D01*
X164760000Y-133470000D01*
X159320000Y-133470000D01*
X159320000Y-130530000D01*
%TD*%
M02*
