%TF.GenerationSoftware,KiCad,Pcbnew,10.0.1*%
%TF.CreationDate,2026-07-01T00:03:45-07:00*%
%TF.ProjectId,PWM_Fan_Controller,50574d5f-4661-46e5-9f43-6f6e74726f6c,rev?*%
%TF.SameCoordinates,Original*%
%TF.FileFunction,Copper,L2,Bot*%
%TF.FilePolarity,Positive*%
%FSLAX46Y46*%
G04 Gerber Fmt 4.6, Leading zero omitted, Abs format (unit mm)*
G04 Created by KiCad (PCBNEW 10.0.1) date 2026-07-01 00:03:45*
%MOMM*%
%LPD*%
G01*
G04 APERTURE LIST*
G04 Aperture macros list*
%AMRoundRect*
0 Rectangle with rounded corners*
0 $1 Rounding radius*
0 $2 $3 $4 $5 $6 $7 $8 $9 X,Y pos of 4 corners*
0 Add a 4 corners polygon primitive as box body*
4,1,4,$2,$3,$4,$5,$6,$7,$8,$9,$2,$3,0*
0 Add four circle primitives for the rounded corners*
1,1,$1+$1,$2,$3*
1,1,$1+$1,$4,$5*
1,1,$1+$1,$6,$7*
1,1,$1+$1,$8,$9*
0 Add four rect primitives between the rounded corners*
20,1,$1+$1,$2,$3,$4,$5,0*
20,1,$1+$1,$4,$5,$6,$7,0*
20,1,$1+$1,$6,$7,$8,$9,0*
20,1,$1+$1,$8,$9,$2,$3,0*%
G04 Aperture macros list end*
%TA.AperFunction,ComponentPad*%
%ADD10R,1.700000X1.700000*%
%TD*%
%TA.AperFunction,ComponentPad*%
%ADD11C,1.700000*%
%TD*%
%TA.AperFunction,ComponentPad*%
%ADD12C,1.600000*%
%TD*%
%TA.AperFunction,ComponentPad*%
%ADD13RoundRect,0.249999X0.850001X0.850001X-0.850001X0.850001X-0.850001X-0.850001X0.850001X-0.850001X0*%
%TD*%
%TA.AperFunction,ComponentPad*%
%ADD14C,2.200000*%
%TD*%
%TA.AperFunction,ComponentPad*%
%ADD15C,2.000000*%
%TD*%
%TA.AperFunction,ComponentPad*%
%ADD16R,1.905000X2.000000*%
%TD*%
%TA.AperFunction,ComponentPad*%
%ADD17O,1.905000X2.000000*%
%TD*%
%TA.AperFunction,ComponentPad*%
%ADD18R,1.600000X1.600000*%
%TD*%
%TA.AperFunction,ComponentPad*%
%ADD19O,1.600000X1.600000*%
%TD*%
G04 APERTURE END LIST*
D10*
%TO.P,M1,1,+_1*%
%TO.N,VCC*%
X166275000Y-123500000D03*
D11*
%TO.P,M1,2,-_2*%
%TO.N,Net-(D1-A)*%
X163735000Y-123500000D03*
%TD*%
D12*
%TO.P,R3,1*%
%TO.N,Net-(Q2-G)*%
X158310000Y-116500000D03*
%TO.P,R3,2*%
%TO.N,GND*%
X150690000Y-116500000D03*
%TD*%
D13*
%TO.P,D1,1,K_1*%
%TO.N,VCC*%
X170080000Y-128500000D03*
D14*
%TO.P,D1,2,A_2*%
%TO.N,Net-(D1-A)*%
X159920000Y-128500000D03*
%TD*%
D12*
%TO.P,R1,1*%
%TO.N,Net-(A1-D2)*%
X180810000Y-116500000D03*
%TO.P,R1,2*%
%TO.N,GND*%
X173190000Y-116500000D03*
%TD*%
D15*
%TO.P,SW1,1,1_1*%
%TO.N,VCC*%
X190500000Y-121000000D03*
X184000000Y-121000000D03*
%TO.P,SW1,2,2_2*%
%TO.N,Net-(A1-D2)*%
X190500000Y-116500000D03*
X184000000Y-116500000D03*
%TD*%
D16*
%TO.P,Q2,1,G_1*%
%TO.N,Net-(Q2-G)*%
X157040000Y-122500000D03*
D17*
%TO.P,Q2,2,D_2*%
%TO.N,Net-(D1-A)*%
X154500000Y-122500000D03*
%TO.P,Q2,3,S_3*%
%TO.N,GND*%
X151960000Y-122500000D03*
%TD*%
D18*
%TO.P,A1,1,NC_1*%
%TO.N,unconnected-(A1-NC-Pad1)*%
X155565000Y-62315000D03*
D19*
%TO.P,A1,2,IOREF_2*%
%TO.N,unconnected-(A1-IOREF-Pad2)*%
X158105000Y-62315000D03*
%TO.P,A1,3,~{RESET}_3*%
%TO.N,unconnected-(A1-~{RESET}-Pad3)*%
X160645000Y-62315000D03*
%TO.P,A1,4,3V3_4*%
%TO.N,unconnected-(A1-3V3-Pad4)*%
X163185000Y-62315000D03*
%TO.P,A1,5,+5V_5*%
%TO.N,unconnected-(A1-+5V-Pad5)*%
X165725000Y-62315000D03*
%TO.P,A1,6,GND_6*%
%TO.N,unconnected-(A1-GND-Pad6)*%
X168265000Y-62315000D03*
%TO.P,A1,7,GND_7*%
%TO.N,unconnected-(A1-GND-Pad7)*%
X170805000Y-62315000D03*
%TO.P,A1,8,VIN_8*%
%TO.N,unconnected-(A1-VIN-Pad8)*%
X173345000Y-62315000D03*
%TO.P,A1,9,A0_9*%
%TO.N,unconnected-(A1-A0-Pad9)*%
X178425000Y-62315000D03*
%TO.P,A1,10,A1_10*%
%TO.N,unconnected-(A1-A1-Pad10)*%
X180965000Y-62315000D03*
%TO.P,A1,11,A2_11*%
%TO.N,unconnected-(A1-A2-Pad11)*%
X183505000Y-62315000D03*
%TO.P,A1,12,A3_12*%
%TO.N,unconnected-(A1-A3-Pad12)*%
X186045000Y-62315000D03*
%TO.P,A1,13,SDA/A4_13*%
%TO.N,unconnected-(A1-SDA{slash}A4-Pad13)*%
X188585000Y-62315000D03*
%TO.P,A1,14,SCL/A5_14*%
%TO.N,unconnected-(A1-SCL{slash}A5-Pad14)*%
X191125000Y-62315000D03*
%TO.P,A1,15,D0/RX_15*%
%TO.N,unconnected-(A1-D0{slash}RX-Pad15)*%
X191125000Y-110575000D03*
%TO.P,A1,16,D1/TX_16*%
%TO.N,unconnected-(A1-D1{slash}TX-Pad16)*%
X188585000Y-110575000D03*
%TO.P,A1,17,D2_17*%
%TO.N,Net-(A1-D2)*%
X186045000Y-110575000D03*
%TO.P,A1,18,D3_18*%
%TO.N,unconnected-(A1-D3-Pad18)*%
X183505000Y-110575000D03*
%TO.P,A1,19,D4_19*%
%TO.N,unconnected-(A1-D4-Pad19)*%
X180965000Y-110575000D03*
%TO.P,A1,20,D5_20*%
%TO.N,unconnected-(A1-D5-Pad20)*%
X178425000Y-110575000D03*
%TO.P,A1,21,D6_21*%
%TO.N,unconnected-(A1-D6-Pad21)*%
X175885000Y-110575000D03*
%TO.P,A1,22,D7_22*%
%TO.N,unconnected-(A1-D7-Pad22)*%
X173345000Y-110575000D03*
%TO.P,A1,23,D8_23*%
%TO.N,unconnected-(A1-D8-Pad23)*%
X169285000Y-110575000D03*
%TO.P,A1,24,D9_24*%
%TO.N,Net-(A1-D9)*%
X166745000Y-110575000D03*
%TO.P,A1,25,D10_25*%
%TO.N,unconnected-(A1-D10-Pad25)*%
X164205000Y-110575000D03*
%TO.P,A1,26,D11_26*%
%TO.N,unconnected-(A1-D11-Pad26)*%
X161665000Y-110575000D03*
%TO.P,A1,27,D12_27*%
%TO.N,unconnected-(A1-D12-Pad27)*%
X159125000Y-110575000D03*
%TO.P,A1,28,D13_28*%
%TO.N,unconnected-(A1-D13-Pad28)*%
X156585000Y-110575000D03*
%TO.P,A1,29,GND_29*%
%TO.N,GND*%
X154045000Y-110575000D03*
%TO.P,A1,30,AREF_30*%
%TO.N,unconnected-(A1-AREF-Pad30)*%
X151505000Y-110575000D03*
%TO.P,A1,31,SDA/A4_31*%
%TO.N,unconnected-(A1-SDA{slash}A4-Pad31)*%
X148965000Y-110575000D03*
%TO.P,A1,32,SCL/A5_32*%
%TO.N,unconnected-(A1-SCL{slash}A5-Pad32)*%
X146425000Y-110575000D03*
%TD*%
D12*
%TO.P,R2,1*%
%TO.N,Net-(A1-D9)*%
X169000000Y-116500000D03*
%TO.P,R2,2*%
%TO.N,Net-(Q2-G)*%
X161380000Y-116500000D03*
%TD*%
M02*
