%TF.GenerationSoftware,KiCad,Pcbnew,10.0.1*%
%TF.CreationDate,2026-07-01T00:03:44-07:00*%
%TF.ProjectId,PWM_Fan_Controller,50574d5f-4661-46e5-9f43-6f6e74726f6c,rev?*%
%TF.SameCoordinates,Original*%
%TF.FileFunction,Copper,L1,Top*%
%TF.FilePolarity,Positive*%
%FSLAX46Y46*%
G04 Gerber Fmt 4.6, Leading zero omitted, Abs format (unit mm)*
G04 Created by KiCad (PCBNEW 10.0.1) date 2026-07-01 00:03:44*
%MOMM*%
%LPD*%
G01*
G04 APERTURE LIST*
G04 Aperture macros list*
%AMRoundRect*
0 Rectangle with rounded corners*
0 $1 Rounding radius*
0 $2 $3 $4 $5 $6 $7 $8 $9 X,Y pos of 4 corners*
0 Add a 4 corners polygon primitive as box body*
4,1,4,$2,$3,$4,$5,$6,$7,$8,$9,$2,$3,0*
0 Add four circle primitives for the rounded corners*
1,1,$1+$1,$2,$3*
1,1,$1+$1,$4,$5*
1,1,$1+$1,$6,$7*
1,1,$1+$1,$8,$9*
0 Add four rect primitives between the rounded corners*
20,1,$1+$1,$2,$3,$4,$5,0*
20,1,$1+$1,$4,$5,$6,$7,0*
20,1,$1+$1,$6,$7,$8,$9,0*
20,1,$1+$1,$8,$9,$2,$3,0*%
G04 Aperture macros list end*
%TA.AperFunction,ComponentPad*%
%ADD10R,1.700000X1.700000*%
%TD*%
%TA.AperFunction,ComponentPad*%
%ADD11C,1.700000*%
%TD*%
%TA.AperFunction,ComponentPad*%
%ADD12C,1.600000*%
%TD*%
%TA.AperFunction,ComponentPad*%
%ADD13RoundRect,0.249999X0.850001X0.850001X-0.850001X0.850001X-0.850001X-0.850001X0.850001X-0.850001X0*%
%TD*%
%TA.AperFunction,ComponentPad*%
%ADD14C,2.200000*%
%TD*%
%TA.AperFunction,ComponentPad*%
%ADD15C,2.000000*%
%TD*%
%TA.AperFunction,ComponentPad*%
%ADD16R,1.905000X2.000000*%
%TD*%
%TA.AperFunction,ComponentPad*%
%ADD17O,1.905000X2.000000*%
%TD*%
%TA.AperFunction,ComponentPad*%
%ADD18R,1.600000X1.600000*%
%TD*%
%TA.AperFunction,ComponentPad*%
%ADD19O,1.600000X1.600000*%
%TD*%
%TA.AperFunction,Conductor*%
%ADD20C,0.200000*%
%TD*%
%TA.AperFunction,Conductor*%
%ADD21C,0.800000*%
%TD*%
G04 APERTURE END LIST*
D10*
%TO.P,M1,1,+_1*%
%TO.N,VCC*%
X166275000Y-123500000D03*
D11*
%TO.P,M1,2,-_2*%
%TO.N,Net-(D1-A)*%
X163735000Y-123500000D03*
%TD*%
D12*
%TO.P,R3,1*%
%TO.N,Net-(Q2-G)*%
X158310000Y-116500000D03*
%TO.P,R3,2*%
%TO.N,GND*%
X150690000Y-116500000D03*
%TD*%
D13*
%TO.P,D1,1,K_1*%
%TO.N,VCC*%
X170080000Y-128500000D03*
D14*
%TO.P,D1,2,A_2*%
%TO.N,Net-(D1-A)*%
X159920000Y-128500000D03*
%TD*%
D12*
%TO.P,R1,1*%
%TO.N,Net-(A1-D2)*%
X180810000Y-116500000D03*
%TO.P,R1,2*%
%TO.N,GND*%
X173190000Y-116500000D03*
%TD*%
D15*
%TO.P,SW1,1,1_1*%
%TO.N,VCC*%
X190500000Y-121000000D03*
X184000000Y-121000000D03*
%TO.P,SW1,2,2_2*%
%TO.N,Net-(A1-D2)*%
X190500000Y-116500000D03*
X184000000Y-116500000D03*
%TD*%
D16*
%TO.P,Q2,1,G_1*%
%TO.N,Net-(Q2-G)*%
X157040000Y-122500000D03*
D17*
%TO.P,Q2,2,D_2*%
%TO.N,Net-(D1-A)*%
X154500000Y-122500000D03*
%TO.P,Q2,3,S_3*%
%TO.N,GND*%
X151960000Y-122500000D03*
%TD*%
D18*
%TO.P,A1,1,NC_1*%
%TO.N,unconnected-(A1-NC-Pad1)*%
X155565000Y-62315000D03*
D19*
%TO.P,A1,2,IOREF_2*%
%TO.N,unconnected-(A1-IOREF-Pad2)*%
X158105000Y-62315000D03*
%TO.P,A1,3,~{RESET}_3*%
%TO.N,unconnected-(A1-~{RESET}-Pad3)*%
X160645000Y-62315000D03*
%TO.P,A1,4,3V3_4*%
%TO.N,unconnected-(A1-3V3-Pad4)*%
X163185000Y-62315000D03*
%TO.P,A1,5,+5V_5*%
%TO.N,unconnected-(A1-+5V-Pad5)*%
X165725000Y-62315000D03*
%TO.P,A1,6,GND_6*%
%TO.N,unconnected-(A1-GND-Pad6)*%
X168265000Y-62315000D03*
%TO.P,A1,7,GND_7*%
%TO.N,unconnected-(A1-GND-Pad7)*%
X170805000Y-62315000D03*
%TO.P,A1,8,VIN_8*%
%TO.N,unconnected-(A1-VIN-Pad8)*%
X173345000Y-62315000D03*
%TO.P,A1,9,A0_9*%
%TO.N,unconnected-(A1-A0-Pad9)*%
X178425000Y-62315000D03*
%TO.P,A1,10,A1_10*%
%TO.N,unconnected-(A1-A1-Pad10)*%
X180965000Y-62315000D03*
%TO.P,A1,11,A2_11*%
%TO.N,unconnected-(A1-A2-Pad11)*%
X183505000Y-62315000D03*
%TO.P,A1,12,A3_12*%
%TO.N,unconnected-(A1-A3-Pad12)*%
X186045000Y-62315000D03*
%TO.P,A1,13,SDA/A4_13*%
%TO.N,unconnected-(A1-SDA{slash}A4-Pad13)*%
X188585000Y-62315000D03*
%TO.P,A1,14,SCL/A5_14*%
%TO.N,unconnected-(A1-SCL{slash}A5-Pad14)*%
X191125000Y-62315000D03*
%TO.P,A1,15,D0/RX_15*%
%TO.N,unconnected-(A1-D0{slash}RX-Pad15)*%
X191125000Y-110575000D03*
%TO.P,A1,16,D1/TX_16*%
%TO.N,unconnected-(A1-D1{slash}TX-Pad16)*%
X188585000Y-110575000D03*
%TO.P,A1,17,D2_17*%
%TO.N,Net-(A1-D2)*%
X186045000Y-110575000D03*
%TO.P,A1,18,D3_18*%
%TO.N,unconnected-(A1-D3-Pad18)*%
X183505000Y-110575000D03*
%TO.P,A1,19,D4_19*%
%TO.N,unconnected-(A1-D4-Pad19)*%
X180965000Y-110575000D03*
%TO.P,A1,20,D5_20*%
%TO.N,unconnected-(A1-D5-Pad20)*%
X178425000Y-110575000D03*
%TO.P,A1,21,D6_21*%
%TO.N,unconnected-(A1-D6-Pad21)*%
X175885000Y-110575000D03*
%TO.P,A1,22,D7_22*%
%TO.N,unconnected-(A1-D7-Pad22)*%
X173345000Y-110575000D03*
%TO.P,A1,23,D8_23*%
%TO.N,unconnected-(A1-D8-Pad23)*%
X169285000Y-110575000D03*
%TO.P,A1,24,D9_24*%
%TO.N,Net-(A1-D9)*%
X166745000Y-110575000D03*
%TO.P,A1,25,D10_25*%
%TO.N,unconnected-(A1-D10-Pad25)*%
X164205000Y-110575000D03*
%TO.P,A1,26,D11_26*%
%TO.N,unconnected-(A1-D11-Pad26)*%
X161665000Y-110575000D03*
%TO.P,A1,27,D12_27*%
%TO.N,unconnected-(A1-D12-Pad27)*%
X159125000Y-110575000D03*
%TO.P,A1,28,D13_28*%
%TO.N,unconnected-(A1-D13-Pad28)*%
X156585000Y-110575000D03*
%TO.P,A1,29,GND_29*%
%TO.N,GND*%
X154045000Y-110575000D03*
%TO.P,A1,30,AREF_30*%
%TO.N,unconnected-(A1-AREF-Pad30)*%
X151505000Y-110575000D03*
%TO.P,A1,31,SDA/A4_31*%
%TO.N,unconnected-(A1-SDA{slash}A4-Pad31)*%
X148965000Y-110575000D03*
%TO.P,A1,32,SCL/A5_32*%
%TO.N,unconnected-(A1-SCL{slash}A5-Pad32)*%
X146425000Y-110575000D03*
%TD*%
D12*
%TO.P,R2,1*%
%TO.N,Net-(A1-D9)*%
X169000000Y-116500000D03*
%TO.P,R2,2*%
%TO.N,Net-(Q2-G)*%
X161380000Y-116500000D03*
%TD*%
%TO.N,VCC*%
D20*
X170080000Y-128500000D02*
X170080000Y-127305000D01*
X190500000Y-121000000D02*
X184000000Y-121000000D01*
D21*
X170080000Y-127305000D02*
X166275000Y-123500000D01*
D20*
X176500000Y-128500000D02*
X184000000Y-121000000D01*
X170080000Y-128500000D02*
X176500000Y-128500000D01*
%TO.N,Net-(D1-A)*%
D21*
X155770000Y-124350000D02*
X154500000Y-123080000D01*
X162885000Y-124350000D02*
X155770000Y-124350000D01*
X163735000Y-123500000D02*
X159920000Y-127315000D01*
X154500000Y-123080000D02*
X154500000Y-122500000D01*
D20*
X163735000Y-123500000D02*
X162885000Y-124350000D01*
D21*
X159920000Y-128500000D02*
X155770000Y-124350000D01*
X159920000Y-127315000D02*
X159920000Y-128500000D01*
%TO.N,Net-(Q2-G)*%
D20*
X158310000Y-121230000D02*
X157040000Y-122500000D01*
X161380000Y-118160000D02*
X157040000Y-122500000D01*
X161380000Y-116500000D02*
X161380000Y-118160000D01*
X161380000Y-116500000D02*
X158310000Y-116500000D01*
X158310000Y-116500000D02*
X158310000Y-121230000D01*
%TO.N,GND*%
X151960000Y-122500000D02*
X150500000Y-122500000D01*
X173190000Y-116500000D02*
X173190000Y-112690000D01*
X149500000Y-115120000D02*
X154045000Y-110575000D01*
X150690000Y-113930000D02*
X154045000Y-110575000D01*
X173190000Y-112690000D02*
X169975000Y-109475000D01*
X150500000Y-122500000D02*
X149500000Y-121500000D01*
X169975000Y-109475000D02*
X155145000Y-109475000D01*
X149500000Y-121500000D02*
X149500000Y-115120000D01*
X155145000Y-109475000D02*
X154045000Y-110575000D01*
X150690000Y-116500000D02*
X150690000Y-113930000D01*
%TO.N,Net-(A1-D2)*%
X186045000Y-114455000D02*
X184000000Y-116500000D01*
X180810000Y-116500000D02*
X184000000Y-116500000D01*
X190500000Y-116500000D02*
X184000000Y-116500000D01*
X186045000Y-110575000D02*
X186045000Y-114455000D01*
%TO.N,Net-(A1-D9)*%
X169000000Y-112830000D02*
X169000000Y-116500000D01*
X166745000Y-110575000D02*
X169000000Y-112830000D01*
%TD*%
%TA.AperFunction,Conductor*%
%TO.N,GND*%
G36*
X199442539Y-55520185D02*
G01*
X199488294Y-55572989D01*
X199499500Y-55624500D01*
X199499500Y-134375500D01*
X199479815Y-134442539D01*
X199427011Y-134488294D01*
X199375500Y-134499500D01*
X120624500Y-134499500D01*
X120557461Y-134479815D01*
X120511706Y-134427011D01*
X120500500Y-134375500D01*
X120500500Y-122250000D01*
X150521468Y-122250000D01*
X151469252Y-122250000D01*
X151447482Y-122287708D01*
X151410000Y-122427591D01*
X151410000Y-122572409D01*
X151447482Y-122712292D01*
X151469252Y-122750000D01*
X150521468Y-122750000D01*
X150543265Y-122887628D01*
X150613917Y-123105070D01*
X150717711Y-123308776D01*
X150852097Y-123493742D01*
X151013757Y-123655402D01*
X151198723Y-123789788D01*
X151402429Y-123893582D01*
X151619871Y-123964234D01*
X151710000Y-123978509D01*
X151710000Y-122990747D01*
X151747708Y-123012518D01*
X151887591Y-123050000D01*
X152032409Y-123050000D01*
X152172292Y-123012518D01*
X152210000Y-122990747D01*
X152210000Y-123978508D01*
X152300128Y-123964234D01*
X152517570Y-123893582D01*
X152721276Y-123789788D01*
X152906242Y-123655402D01*
X153067905Y-123493739D01*
X153129371Y-123409137D01*
X153184701Y-123366470D01*
X153254314Y-123360491D01*
X153316109Y-123393096D01*
X153330007Y-123409134D01*
X153391714Y-123494066D01*
X153553434Y-123655786D01*
X153738462Y-123790217D01*
X153838410Y-123841143D01*
X153942241Y-123894048D01*
X153942247Y-123894050D01*
X154059549Y-123932163D01*
X154108913Y-123962413D01*
X158302311Y-128155811D01*
X158335796Y-128217134D01*
X158337103Y-128262889D01*
X158319500Y-128374032D01*
X158319500Y-128625961D01*
X158358910Y-128874785D01*
X158436760Y-129114383D01*
X158551132Y-129338848D01*
X158699201Y-129542649D01*
X158699205Y-129542654D01*
X158877345Y-129720794D01*
X158877350Y-129720798D01*
X159055117Y-129849952D01*
X159081155Y-129868870D01*
X159224184Y-129941747D01*
X159305616Y-129983239D01*
X159305618Y-129983239D01*
X159305621Y-129983241D01*
X159545215Y-130061090D01*
X159794038Y-130100500D01*
X159794039Y-130100500D01*
X160045961Y-130100500D01*
X160045962Y-130100500D01*
X160294785Y-130061090D01*
X160534379Y-129983241D01*
X160758845Y-129868870D01*
X160962656Y-129720793D01*
X161140793Y-129542656D01*
X161288870Y-129338845D01*
X161403241Y-129114379D01*
X161481090Y-128874785D01*
X161520500Y-128625962D01*
X161520500Y-128374038D01*
X161481090Y-128125215D01*
X161403241Y-127885621D01*
X161403239Y-127885618D01*
X161403239Y-127885616D01*
X161361747Y-127804184D01*
X161288870Y-127661155D01*
X161169752Y-127497203D01*
X161165322Y-127491105D01*
X161141842Y-127425299D01*
X161157667Y-127357245D01*
X161177955Y-127330543D01*
X163621680Y-124886819D01*
X163683003Y-124853334D01*
X163709361Y-124850500D01*
X163841286Y-124850500D01*
X163841287Y-124850500D01*
X164051243Y-124817246D01*
X164253412Y-124751557D01*
X164442816Y-124655051D01*
X164614792Y-124530104D01*
X164728329Y-124416566D01*
X164789648Y-124383084D01*
X164859340Y-124388068D01*
X164915274Y-124429939D01*
X164932189Y-124460917D01*
X164981202Y-124592328D01*
X164981206Y-124592335D01*
X165067452Y-124707544D01*
X165067455Y-124707547D01*
X165182664Y-124793793D01*
X165182671Y-124793797D01*
X165317517Y-124844091D01*
X165317516Y-124844091D01*
X165324444Y-124844835D01*
X165377127Y-124850500D01*
X166300637Y-124850499D01*
X166367676Y-124870183D01*
X166388318Y-124886818D01*
X168585338Y-127083837D01*
X168618823Y-127145160D01*
X168613839Y-127214852D01*
X168603196Y-127236614D01*
X168545189Y-127330658D01*
X168545186Y-127330665D01*
X168490001Y-127497202D01*
X168490001Y-127497203D01*
X168490000Y-127497203D01*
X168479500Y-127599982D01*
X168479500Y-129400017D01*
X168490000Y-129502796D01*
X168545185Y-129669332D01*
X168545186Y-129669335D01*
X168637288Y-129818656D01*
X168761344Y-129942712D01*
X168910665Y-130034814D01*
X169077202Y-130089999D01*
X169179990Y-130100500D01*
X169179995Y-130100500D01*
X170980005Y-130100500D01*
X170980010Y-130100500D01*
X171082798Y-130089999D01*
X171249335Y-130034814D01*
X171398656Y-129942712D01*
X171522712Y-129818656D01*
X171614814Y-129669335D01*
X171669999Y-129502798D01*
X171680500Y-129400010D01*
X171680500Y-129224500D01*
X171700185Y-129157461D01*
X171752989Y-129111706D01*
X171804500Y-129100500D01*
X176413331Y-129100500D01*
X176413347Y-129100501D01*
X176420943Y-129100501D01*
X176579054Y-129100501D01*
X176579057Y-129100501D01*
X176731785Y-129059577D01*
X176781904Y-129030639D01*
X176868716Y-128980520D01*
X176980520Y-128868716D01*
X176980520Y-128868714D01*
X176990728Y-128858507D01*
X176990730Y-128858504D01*
X183396437Y-122452796D01*
X183457758Y-122419313D01*
X183522433Y-122422547D01*
X183648632Y-122463553D01*
X183736110Y-122477408D01*
X183881903Y-122500500D01*
X183881908Y-122500500D01*
X184118097Y-122500500D01*
X184351368Y-122463553D01*
X184384468Y-122452798D01*
X184575992Y-122390568D01*
X184786433Y-122283343D01*
X184977510Y-122144517D01*
X185144517Y-121977510D01*
X185283343Y-121786433D01*
X185343583Y-121668204D01*
X185391558Y-121617409D01*
X185454068Y-121600500D01*
X189045932Y-121600500D01*
X189112971Y-121620185D01*
X189156416Y-121668203D01*
X189216657Y-121786433D01*
X189355483Y-121977510D01*
X189522490Y-122144517D01*
X189713567Y-122283343D01*
X189812991Y-122334002D01*
X189924003Y-122390566D01*
X189924005Y-122390566D01*
X189924008Y-122390568D01*
X190012476Y-122419313D01*
X190148631Y-122463553D01*
X190381903Y-122500500D01*
X190381908Y-122500500D01*
X190618097Y-122500500D01*
X190851368Y-122463553D01*
X190884468Y-122452798D01*
X191075992Y-122390568D01*
X191286433Y-122283343D01*
X191477510Y-122144517D01*
X191644517Y-121977510D01*
X191783343Y-121786433D01*
X191890568Y-121575992D01*
X191963553Y-121351368D01*
X191973979Y-121285541D01*
X192000500Y-121118097D01*
X192000500Y-120881902D01*
X191963553Y-120648631D01*
X191890566Y-120424003D01*
X191783342Y-120213566D01*
X191644517Y-120022490D01*
X191477510Y-119855483D01*
X191286433Y-119716657D01*
X191075996Y-119609433D01*
X190851368Y-119536446D01*
X190618097Y-119499500D01*
X190618092Y-119499500D01*
X190381908Y-119499500D01*
X190381903Y-119499500D01*
X190148631Y-119536446D01*
X189924003Y-119609433D01*
X189713566Y-119716657D01*
X189626018Y-119780265D01*
X189522490Y-119855483D01*
X189522488Y-119855485D01*
X189522487Y-119855485D01*
X189355485Y-120022487D01*
X189355485Y-120022488D01*
X189355483Y-120022490D01*
X189295862Y-120104550D01*
X189216657Y-120213566D01*
X189156417Y-120331795D01*
X189108442Y-120382591D01*
X189045932Y-120399500D01*
X185454068Y-120399500D01*
X185387029Y-120379815D01*
X185343583Y-120331795D01*
X185283342Y-120213566D01*
X185144517Y-120022490D01*
X184977510Y-119855483D01*
X184786433Y-119716657D01*
X184575996Y-119609433D01*
X184351368Y-119536446D01*
X184118097Y-119499500D01*
X184118092Y-119499500D01*
X183881908Y-119499500D01*
X183881903Y-119499500D01*
X183648631Y-119536446D01*
X183424003Y-119609433D01*
X183213566Y-119716657D01*
X183126018Y-119780265D01*
X183022490Y-119855483D01*
X183022488Y-119855485D01*
X183022487Y-119855485D01*
X182855485Y-120022487D01*
X182855485Y-120022488D01*
X182855483Y-120022490D01*
X182795862Y-120104550D01*
X182716657Y-120213566D01*
X182609433Y-120424003D01*
X182536446Y-120648631D01*
X182499500Y-120881902D01*
X182499500Y-121118097D01*
X182536447Y-121351369D01*
X182536447Y-121351372D01*
X182577450Y-121477564D01*
X182579445Y-121547405D01*
X182547200Y-121603563D01*
X176287584Y-127863181D01*
X176226261Y-127896666D01*
X176199903Y-127899500D01*
X171804500Y-127899500D01*
X171737461Y-127879815D01*
X171691706Y-127827011D01*
X171680500Y-127775500D01*
X171680500Y-127599995D01*
X171680499Y-127599982D01*
X171669999Y-127497203D01*
X171669999Y-127497202D01*
X171614814Y-127330665D01*
X171522712Y-127181344D01*
X171398656Y-127057288D01*
X171249335Y-126965186D01*
X171082798Y-126910001D01*
X171082796Y-126910000D01*
X170980017Y-126899500D01*
X170980010Y-126899500D01*
X170958355Y-126899500D01*
X170891316Y-126879815D01*
X170855253Y-126844391D01*
X170779464Y-126730964D01*
X167661818Y-123613318D01*
X167628333Y-123551995D01*
X167625499Y-123525637D01*
X167625499Y-122602129D01*
X167625498Y-122602123D01*
X167619091Y-122542516D01*
X167568797Y-122407671D01*
X167568793Y-122407664D01*
X167482547Y-122292455D01*
X167482544Y-122292452D01*
X167367335Y-122206206D01*
X167367328Y-122206202D01*
X167232482Y-122155908D01*
X167232483Y-122155908D01*
X167172883Y-122149501D01*
X167172881Y-122149500D01*
X167172873Y-122149500D01*
X167172864Y-122149500D01*
X165377129Y-122149500D01*
X165377123Y-122149501D01*
X165317516Y-122155908D01*
X165182671Y-122206202D01*
X165182664Y-122206206D01*
X165067455Y-122292452D01*
X165067452Y-122292455D01*
X164981206Y-122407664D01*
X164981203Y-122407669D01*
X164932189Y-122539083D01*
X164890317Y-122595016D01*
X164824853Y-122619433D01*
X164756580Y-122604581D01*
X164728326Y-122583430D01*
X164614786Y-122469890D01*
X164442820Y-122344951D01*
X164253414Y-122248444D01*
X164253413Y-122248443D01*
X164253412Y-122248443D01*
X164051243Y-122182754D01*
X164051241Y-122182753D01*
X164051240Y-122182753D01*
X163889957Y-122157208D01*
X163841287Y-122149500D01*
X163628713Y-122149500D01*
X163580042Y-122157208D01*
X163418760Y-122182753D01*
X163216585Y-122248444D01*
X163027179Y-122344951D01*
X162855213Y-122469890D01*
X162704890Y-122620213D01*
X162579951Y-122792179D01*
X162483444Y-122981585D01*
X162417753Y-123183759D01*
X162392232Y-123344898D01*
X162362303Y-123408032D01*
X162302992Y-123444964D01*
X162269759Y-123449500D01*
X158617000Y-123449500D01*
X158549961Y-123429815D01*
X158504206Y-123377011D01*
X158493000Y-123325500D01*
X158492999Y-121947596D01*
X158501643Y-121918155D01*
X158508167Y-121888169D01*
X158511921Y-121883153D01*
X158512684Y-121880557D01*
X158529313Y-121859920D01*
X158668506Y-121720728D01*
X158668511Y-121720724D01*
X158678714Y-121710520D01*
X158678716Y-121710520D01*
X158790520Y-121598716D01*
X158790520Y-121598714D01*
X158800724Y-121588511D01*
X158800728Y-121588506D01*
X161748713Y-118640521D01*
X161748716Y-118640520D01*
X161860520Y-118528716D01*
X161910639Y-118441904D01*
X161939577Y-118391785D01*
X161980501Y-118239057D01*
X161980501Y-118080943D01*
X161980501Y-118073348D01*
X161980500Y-118073330D01*
X161980500Y-117729601D01*
X162000185Y-117662562D01*
X162048206Y-117619116D01*
X162061610Y-117612287D01*
X162227219Y-117491966D01*
X162371966Y-117347219D01*
X162371968Y-117347215D01*
X162371971Y-117347213D01*
X162424732Y-117274590D01*
X162492287Y-117181610D01*
X162585220Y-116999219D01*
X162648477Y-116804534D01*
X162680500Y-116602352D01*
X162680500Y-116397648D01*
X162672257Y-116345606D01*
X162648477Y-116195465D01*
X162617458Y-116100000D01*
X162585220Y-116000781D01*
X162585218Y-116000778D01*
X162585218Y-116000776D01*
X162546100Y-115924003D01*
X162492287Y-115818390D01*
X162460092Y-115774077D01*
X162371971Y-115652786D01*
X162227213Y-115508028D01*
X162061613Y-115387715D01*
X162061612Y-115387714D01*
X162061610Y-115387713D01*
X161998355Y-115355483D01*
X161879223Y-115294781D01*
X161684534Y-115231522D01*
X161509995Y-115203878D01*
X161482352Y-115199500D01*
X161277648Y-115199500D01*
X161253329Y-115203351D01*
X161075465Y-115231522D01*
X160880776Y-115294781D01*
X160698386Y-115387715D01*
X160532786Y-115508028D01*
X160388028Y-115652786D01*
X160267715Y-115818385D01*
X160260883Y-115831795D01*
X160212909Y-115882591D01*
X160150398Y-115899500D01*
X159539602Y-115899500D01*
X159472563Y-115879815D01*
X159429117Y-115831795D01*
X159422287Y-115818390D01*
X159422285Y-115818387D01*
X159422284Y-115818385D01*
X159301971Y-115652786D01*
X159157213Y-115508028D01*
X158991613Y-115387715D01*
X158991612Y-115387714D01*
X158991610Y-115387713D01*
X158928355Y-115355483D01*
X158809223Y-115294781D01*
X158614534Y-115231522D01*
X158439995Y-115203878D01*
X158412352Y-115199500D01*
X158207648Y-115199500D01*
X158183329Y-115203351D01*
X158005465Y-115231522D01*
X157810776Y-115294781D01*
X157628386Y-115387715D01*
X157462786Y-115508028D01*
X157318028Y-115652786D01*
X157197715Y-115818386D01*
X157104781Y-116000776D01*
X157041522Y-116195465D01*
X157009500Y-116397648D01*
X157009500Y-116602351D01*
X157041522Y-116804534D01*
X157104781Y-116999223D01*
X157165001Y-117117409D01*
X157197585Y-117181359D01*
X157197715Y-117181613D01*
X157318028Y-117347213D01*
X157318034Y-117347219D01*
X157462781Y-117491966D01*
X157628390Y-117612287D01*
X157641793Y-117619116D01*
X157692589Y-117667088D01*
X157709500Y-117729601D01*
X157709500Y-120875500D01*
X157689815Y-120942539D01*
X157637011Y-120988294D01*
X157585500Y-120999500D01*
X156039629Y-120999500D01*
X156039623Y-120999501D01*
X155980016Y-121005908D01*
X155845171Y-121056202D01*
X155845164Y-121056206D01*
X155729955Y-121142452D01*
X155729952Y-121142455D01*
X155643706Y-121257664D01*
X155643703Y-121257670D01*
X155633308Y-121285541D01*
X155591436Y-121341474D01*
X155525972Y-121365891D01*
X155457699Y-121351039D01*
X155444250Y-121342531D01*
X155261538Y-121209783D01*
X155057755Y-121105950D01*
X154840248Y-121035278D01*
X154654812Y-121005908D01*
X154614354Y-120999500D01*
X154385646Y-120999500D01*
X154345188Y-121005908D01*
X154159753Y-121035278D01*
X154159750Y-121035278D01*
X153942244Y-121105950D01*
X153738461Y-121209783D01*
X153672551Y-121257670D01*
X153553434Y-121344214D01*
X153553432Y-121344216D01*
X153553431Y-121344216D01*
X153391716Y-121505931D01*
X153391709Y-121505940D01*
X153330007Y-121590864D01*
X153274677Y-121633530D01*
X153205063Y-121639508D01*
X153143269Y-121606901D01*
X153129372Y-121590863D01*
X153067907Y-121506263D01*
X153067902Y-121506257D01*
X152906242Y-121344597D01*
X152721276Y-121210211D01*
X152517568Y-121106417D01*
X152300124Y-121035765D01*
X152210000Y-121021490D01*
X152210000Y-122009252D01*
X152172292Y-121987482D01*
X152032409Y-121950000D01*
X151887591Y-121950000D01*
X151747708Y-121987482D01*
X151710000Y-122009252D01*
X151710000Y-121021490D01*
X151709999Y-121021490D01*
X151619875Y-121035765D01*
X151402431Y-121106417D01*
X151198723Y-121210211D01*
X151013757Y-121344597D01*
X150852097Y-121506257D01*
X150717711Y-121691223D01*
X150613917Y-121894929D01*
X150543265Y-122112371D01*
X150521468Y-122250000D01*
X120500500Y-122250000D01*
X120500500Y-116397682D01*
X149390000Y-116397682D01*
X149390000Y-116602317D01*
X149422009Y-116804417D01*
X149485244Y-116999031D01*
X149578141Y-117181350D01*
X149578147Y-117181359D01*
X149610523Y-117225921D01*
X149610524Y-117225922D01*
X150290000Y-116546446D01*
X150290000Y-116552661D01*
X150317259Y-116654394D01*
X150369920Y-116745606D01*
X150444394Y-116820080D01*
X150535606Y-116872741D01*
X150637339Y-116900000D01*
X150643553Y-116900000D01*
X149964076Y-117579474D01*
X150008650Y-117611859D01*
X150190968Y-117704755D01*
X150385582Y-117767990D01*
X150587683Y-117800000D01*
X150792317Y-117800000D01*
X150994417Y-117767990D01*
X151189031Y-117704755D01*
X151371349Y-117611859D01*
X151415921Y-117579474D01*
X150736447Y-116900000D01*
X150742661Y-116900000D01*
X150844394Y-116872741D01*
X150935606Y-116820080D01*
X151010080Y-116745606D01*
X151062741Y-116654394D01*
X151090000Y-116552661D01*
X151090000Y-116546447D01*
X151769474Y-117225921D01*
X151801859Y-117181349D01*
X151894755Y-116999031D01*
X151957990Y-116804417D01*
X151990000Y-116602317D01*
X151990000Y-116397682D01*
X151957990Y-116195582D01*
X151894755Y-116000968D01*
X151801859Y-115818650D01*
X151769474Y-115774077D01*
X151769474Y-115774076D01*
X151090000Y-116453551D01*
X151090000Y-116447339D01*
X151062741Y-116345606D01*
X151010080Y-116254394D01*
X150935606Y-116179920D01*
X150844394Y-116127259D01*
X150742661Y-116100000D01*
X150736446Y-116100000D01*
X151415922Y-115420524D01*
X151415921Y-115420523D01*
X151371359Y-115388147D01*
X151371350Y-115388141D01*
X151189031Y-115295244D01*
X150994417Y-115232009D01*
X150792317Y-115200000D01*
X150587683Y-115200000D01*
X150385582Y-115232009D01*
X150190968Y-115295244D01*
X150008644Y-115388143D01*
X149964077Y-115420523D01*
X149964077Y-115420524D01*
X150643554Y-116100000D01*
X150637339Y-116100000D01*
X150535606Y-116127259D01*
X150444394Y-116179920D01*
X150369920Y-116254394D01*
X150317259Y-116345606D01*
X150290000Y-116447339D01*
X150290000Y-116453553D01*
X149610524Y-115774077D01*
X149610523Y-115774077D01*
X149578143Y-115818644D01*
X149485244Y-116000968D01*
X149422009Y-116195582D01*
X149390000Y-116397682D01*
X120500500Y-116397682D01*
X120500500Y-110472648D01*
X145124500Y-110472648D01*
X145124500Y-110677351D01*
X145156522Y-110879534D01*
X145219781Y-111074223D01*
X145312715Y-111256613D01*
X145433028Y-111422213D01*
X145577786Y-111566971D01*
X145732749Y-111679556D01*
X145743390Y-111687287D01*
X145824499Y-111728614D01*
X145925776Y-111780218D01*
X145925778Y-111780218D01*
X145925781Y-111780220D01*
X146000818Y-111804601D01*
X146120465Y-111843477D01*
X146221557Y-111859488D01*
X146322648Y-111875500D01*
X146322649Y-111875500D01*
X146527351Y-111875500D01*
X146527352Y-111875500D01*
X146729534Y-111843477D01*
X146924219Y-111780220D01*
X147106610Y-111687287D01*
X147199590Y-111619732D01*
X147272213Y-111566971D01*
X147272215Y-111566968D01*
X147272219Y-111566966D01*
X147416966Y-111422219D01*
X147416968Y-111422215D01*
X147416971Y-111422213D01*
X147537284Y-111256614D01*
X147537286Y-111256611D01*
X147537287Y-111256610D01*
X147584516Y-111163917D01*
X147632489Y-111113123D01*
X147700310Y-111096328D01*
X147766445Y-111118865D01*
X147805485Y-111163919D01*
X147852715Y-111256614D01*
X147973028Y-111422213D01*
X148117786Y-111566971D01*
X148272749Y-111679556D01*
X148283390Y-111687287D01*
X148364499Y-111728614D01*
X148465776Y-111780218D01*
X148465778Y-111780218D01*
X148465781Y-111780220D01*
X148540818Y-111804601D01*
X148660465Y-111843477D01*
X148761557Y-111859488D01*
X148862648Y-111875500D01*
X148862649Y-111875500D01*
X149067351Y-111875500D01*
X149067352Y-111875500D01*
X149269534Y-111843477D01*
X149464219Y-111780220D01*
X149646610Y-111687287D01*
X149739590Y-111619732D01*
X149812213Y-111566971D01*
X149812215Y-111566968D01*
X149812219Y-111566966D01*
X149956966Y-111422219D01*
X149956968Y-111422215D01*
X149956971Y-111422213D01*
X150077284Y-111256614D01*
X150077286Y-111256611D01*
X150077287Y-111256610D01*
X150124516Y-111163917D01*
X150172489Y-111113123D01*
X150240310Y-111096328D01*
X150306445Y-111118865D01*
X150345485Y-111163919D01*
X150392715Y-111256614D01*
X150513028Y-111422213D01*
X150657786Y-111566971D01*
X150812749Y-111679556D01*
X150823390Y-111687287D01*
X150904499Y-111728614D01*
X151005776Y-111780218D01*
X151005778Y-111780218D01*
X151005781Y-111780220D01*
X151080818Y-111804601D01*
X151200465Y-111843477D01*
X151301557Y-111859488D01*
X151402648Y-111875500D01*
X151402649Y-111875500D01*
X151607351Y-111875500D01*
X151607352Y-111875500D01*
X151809534Y-111843477D01*
X152004219Y-111780220D01*
X152186610Y-111687287D01*
X152279590Y-111619732D01*
X152352213Y-111566971D01*
X152352215Y-111566968D01*
X152352219Y-111566966D01*
X152496966Y-111422219D01*
X152496968Y-111422215D01*
X152496971Y-111422213D01*
X152617284Y-111256614D01*
X152617286Y-111256611D01*
X152617287Y-111256610D01*
X152664795Y-111163369D01*
X152712770Y-111112574D01*
X152780591Y-111095779D01*
X152846725Y-111118316D01*
X152885765Y-111163370D01*
X152933140Y-111256349D01*
X153053417Y-111421894D01*
X153053417Y-111421895D01*
X153198104Y-111566582D01*
X153363650Y-111686859D01*
X153545968Y-111779754D01*
X153740578Y-111842988D01*
X153795000Y-111851607D01*
X153795000Y-111008012D01*
X153852007Y-111040925D01*
X153979174Y-111075000D01*
X154110826Y-111075000D01*
X154237993Y-111040925D01*
X154295000Y-111008012D01*
X154295000Y-111851606D01*
X154349421Y-111842988D01*
X154544031Y-111779754D01*
X154726349Y-111686859D01*
X154891894Y-111566582D01*
X154891895Y-111566582D01*
X155036582Y-111421895D01*
X155036582Y-111421894D01*
X155156861Y-111256347D01*
X155204234Y-111163371D01*
X155252208Y-111112575D01*
X155320028Y-111095779D01*
X155386164Y-111118316D01*
X155425203Y-111163369D01*
X155472713Y-111256611D01*
X155593028Y-111422213D01*
X155737786Y-111566971D01*
X155892749Y-111679556D01*
X155903390Y-111687287D01*
X155984499Y-111728614D01*
X156085776Y-111780218D01*
X156085778Y-111780218D01*
X156085781Y-111780220D01*
X156160818Y-111804601D01*
X156280465Y-111843477D01*
X156381557Y-111859488D01*
X156482648Y-111875500D01*
X156482649Y-111875500D01*
X156687351Y-111875500D01*
X156687352Y-111875500D01*
X156889534Y-111843477D01*
X157084219Y-111780220D01*
X157266610Y-111687287D01*
X157359590Y-111619732D01*
X157432213Y-111566971D01*
X157432215Y-111566968D01*
X157432219Y-111566966D01*
X157576966Y-111422219D01*
X157576968Y-111422215D01*
X157576971Y-111422213D01*
X157697284Y-111256614D01*
X157697286Y-111256611D01*
X157697287Y-111256610D01*
X157744516Y-111163917D01*
X157792489Y-111113123D01*
X157860310Y-111096328D01*
X157926445Y-111118865D01*
X157965485Y-111163919D01*
X158012715Y-111256614D01*
X158133028Y-111422213D01*
X158277786Y-111566971D01*
X158432749Y-111679556D01*
X158443390Y-111687287D01*
X158524499Y-111728614D01*
X158625776Y-111780218D01*
X158625778Y-111780218D01*
X158625781Y-111780220D01*
X158700818Y-111804601D01*
X158820465Y-111843477D01*
X158921557Y-111859488D01*
X159022648Y-111875500D01*
X159022649Y-111875500D01*
X159227351Y-111875500D01*
X159227352Y-111875500D01*
X159429534Y-111843477D01*
X159624219Y-111780220D01*
X159806610Y-111687287D01*
X159899590Y-111619732D01*
X159972213Y-111566971D01*
X159972215Y-111566968D01*
X159972219Y-111566966D01*
X160116966Y-111422219D01*
X160116968Y-111422215D01*
X160116971Y-111422213D01*
X160237284Y-111256614D01*
X160237286Y-111256611D01*
X160237287Y-111256610D01*
X160284516Y-111163917D01*
X160332489Y-111113123D01*
X160400310Y-111096328D01*
X160466445Y-111118865D01*
X160505485Y-111163919D01*
X160552715Y-111256614D01*
X160673028Y-111422213D01*
X160817786Y-111566971D01*
X160972749Y-111679556D01*
X160983390Y-111687287D01*
X161064499Y-111728614D01*
X161165776Y-111780218D01*
X161165778Y-111780218D01*
X161165781Y-111780220D01*
X161240818Y-111804601D01*
X161360465Y-111843477D01*
X161461557Y-111859488D01*
X161562648Y-111875500D01*
X161562649Y-111875500D01*
X161767351Y-111875500D01*
X161767352Y-111875500D01*
X161969534Y-111843477D01*
X162164219Y-111780220D01*
X162346610Y-111687287D01*
X162439590Y-111619732D01*
X162512213Y-111566971D01*
X162512215Y-111566968D01*
X162512219Y-111566966D01*
X162656966Y-111422219D01*
X162656968Y-111422215D01*
X162656971Y-111422213D01*
X162777284Y-111256614D01*
X162777286Y-111256611D01*
X162777287Y-111256610D01*
X162824516Y-111163917D01*
X162872489Y-111113123D01*
X162940310Y-111096328D01*
X163006445Y-111118865D01*
X163045485Y-111163919D01*
X163092715Y-111256614D01*
X163213028Y-111422213D01*
X163357786Y-111566971D01*
X163512749Y-111679556D01*
X163523390Y-111687287D01*
X163604499Y-111728614D01*
X163705776Y-111780218D01*
X163705778Y-111780218D01*
X163705781Y-111780220D01*
X163780818Y-111804601D01*
X163900465Y-111843477D01*
X164001557Y-111859488D01*
X164102648Y-111875500D01*
X164102649Y-111875500D01*
X164307351Y-111875500D01*
X164307352Y-111875500D01*
X164509534Y-111843477D01*
X164704219Y-111780220D01*
X164886610Y-111687287D01*
X164979590Y-111619732D01*
X165052213Y-111566971D01*
X165052215Y-111566968D01*
X165052219Y-111566966D01*
X165196966Y-111422219D01*
X165196968Y-111422215D01*
X165196971Y-111422213D01*
X165317284Y-111256614D01*
X165317286Y-111256611D01*
X165317287Y-111256610D01*
X165364516Y-111163917D01*
X165412489Y-111113123D01*
X165480310Y-111096328D01*
X165546445Y-111118865D01*
X165585485Y-111163919D01*
X165632715Y-111256614D01*
X165753028Y-111422213D01*
X165897786Y-111566971D01*
X166052749Y-111679556D01*
X166063390Y-111687287D01*
X166144499Y-111728614D01*
X166245776Y-111780218D01*
X166245778Y-111780218D01*
X166245781Y-111780220D01*
X166320818Y-111804601D01*
X166440465Y-111843477D01*
X166541557Y-111859488D01*
X166642648Y-111875500D01*
X166642649Y-111875500D01*
X166847351Y-111875500D01*
X166847352Y-111875500D01*
X167049534Y-111843477D01*
X167063842Y-111838827D01*
X167133682Y-111836831D01*
X167189842Y-111869077D01*
X168363181Y-113042416D01*
X168396666Y-113103739D01*
X168399500Y-113130097D01*
X168399500Y-115270397D01*
X168379815Y-115337436D01*
X168331800Y-115380879D01*
X168318389Y-115387712D01*
X168152786Y-115508028D01*
X168008028Y-115652786D01*
X167887715Y-115818386D01*
X167794781Y-116000776D01*
X167731522Y-116195465D01*
X167699500Y-116397648D01*
X167699500Y-116602351D01*
X167731522Y-116804534D01*
X167794781Y-116999223D01*
X167855001Y-117117409D01*
X167887585Y-117181359D01*
X167887715Y-117181613D01*
X168008028Y-117347213D01*
X168152786Y-117491971D01*
X168273226Y-117579474D01*
X168318390Y-117612287D01*
X168399499Y-117653614D01*
X168500776Y-117705218D01*
X168500778Y-117705218D01*
X168500781Y-117705220D01*
X168575818Y-117729601D01*
X168695465Y-117768477D01*
X168789318Y-117783342D01*
X168897648Y-117800500D01*
X168897649Y-117800500D01*
X169102351Y-117800500D01*
X169102352Y-117800500D01*
X169304534Y-117768477D01*
X169499219Y-117705220D01*
X169681610Y-117612287D01*
X169774590Y-117544732D01*
X169847213Y-117491971D01*
X169847215Y-117491968D01*
X169847219Y-117491966D01*
X169991966Y-117347219D01*
X169991968Y-117347215D01*
X169991971Y-117347213D01*
X170044732Y-117274590D01*
X170112287Y-117181610D01*
X170205220Y-116999219D01*
X170268477Y-116804534D01*
X170300500Y-116602352D01*
X170300500Y-116397682D01*
X171890000Y-116397682D01*
X171890000Y-116602317D01*
X171922009Y-116804417D01*
X171985244Y-116999031D01*
X172078141Y-117181350D01*
X172078147Y-117181359D01*
X172110523Y-117225921D01*
X172110524Y-117225922D01*
X172790000Y-116546446D01*
X172790000Y-116552661D01*
X172817259Y-116654394D01*
X172869920Y-116745606D01*
X172944394Y-116820080D01*
X173035606Y-116872741D01*
X173137339Y-116900000D01*
X173143553Y-116900000D01*
X172464076Y-117579474D01*
X172508650Y-117611859D01*
X172690968Y-117704755D01*
X172885582Y-117767990D01*
X173087683Y-117800000D01*
X173292317Y-117800000D01*
X173494417Y-117767990D01*
X173689031Y-117704755D01*
X173871349Y-117611859D01*
X173915921Y-117579474D01*
X173236447Y-116900000D01*
X173242661Y-116900000D01*
X173344394Y-116872741D01*
X173435606Y-116820080D01*
X173510080Y-116745606D01*
X173562741Y-116654394D01*
X173590000Y-116552661D01*
X173590000Y-116546448D01*
X174269474Y-117225922D01*
X174269474Y-117225921D01*
X174301859Y-117181349D01*
X174394755Y-116999031D01*
X174457990Y-116804417D01*
X174490000Y-116602317D01*
X174490000Y-116397682D01*
X174457990Y-116195582D01*
X174394755Y-116000968D01*
X174301859Y-115818650D01*
X174269474Y-115774077D01*
X174269474Y-115774076D01*
X173590000Y-116453551D01*
X173590000Y-116447339D01*
X173562741Y-116345606D01*
X173510080Y-116254394D01*
X173435606Y-116179920D01*
X173344394Y-116127259D01*
X173242661Y-116100000D01*
X173236446Y-116100000D01*
X173915922Y-115420524D01*
X173915921Y-115420523D01*
X173871359Y-115388147D01*
X173871350Y-115388141D01*
X173689031Y-115295244D01*
X173494417Y-115232009D01*
X173292317Y-115200000D01*
X173087683Y-115200000D01*
X172885582Y-115232009D01*
X172690968Y-115295244D01*
X172508644Y-115388143D01*
X172464077Y-115420523D01*
X172464077Y-115420524D01*
X173143554Y-116100000D01*
X173137339Y-116100000D01*
X173035606Y-116127259D01*
X172944394Y-116179920D01*
X172869920Y-116254394D01*
X172817259Y-116345606D01*
X172790000Y-116447339D01*
X172790000Y-116453553D01*
X172110524Y-115774077D01*
X172110523Y-115774077D01*
X172078143Y-115818644D01*
X171985244Y-116000968D01*
X171922009Y-116195582D01*
X171890000Y-116397682D01*
X170300500Y-116397682D01*
X170300500Y-116397648D01*
X170292257Y-116345606D01*
X170268477Y-116195465D01*
X170237458Y-116100000D01*
X170205220Y-116000781D01*
X170205218Y-116000778D01*
X170205218Y-116000776D01*
X170166100Y-115924003D01*
X170112287Y-115818390D01*
X170080092Y-115774077D01*
X169991971Y-115652786D01*
X169847213Y-115508028D01*
X169681610Y-115387712D01*
X169668200Y-115380879D01*
X169617406Y-115332903D01*
X169600500Y-115270397D01*
X169600500Y-112919060D01*
X169600501Y-112919047D01*
X169600501Y-112750944D01*
X169559576Y-112598214D01*
X169559573Y-112598209D01*
X169480524Y-112461290D01*
X169480518Y-112461282D01*
X169106417Y-112087181D01*
X169072932Y-112025858D01*
X169077916Y-111956166D01*
X169119788Y-111900233D01*
X169185252Y-111875816D01*
X169194098Y-111875500D01*
X169387351Y-111875500D01*
X169387352Y-111875500D01*
X169589534Y-111843477D01*
X169784219Y-111780220D01*
X169966610Y-111687287D01*
X170059590Y-111619732D01*
X170132213Y-111566971D01*
X170132215Y-111566968D01*
X170132219Y-111566966D01*
X170276966Y-111422219D01*
X170276968Y-111422215D01*
X170276971Y-111422213D01*
X170329732Y-111349590D01*
X170397287Y-111256610D01*
X170490220Y-111074219D01*
X170553477Y-110879534D01*
X170585500Y-110677352D01*
X170585500Y-110472648D01*
X172044500Y-110472648D01*
X172044500Y-110677351D01*
X172076522Y-110879534D01*
X172139781Y-111074223D01*
X172232715Y-111256613D01*
X172353028Y-111422213D01*
X172497786Y-111566971D01*
X172652749Y-111679556D01*
X172663390Y-111687287D01*
X172744499Y-111728614D01*
X172845776Y-111780218D01*
X172845778Y-111780218D01*
X172845781Y-111780220D01*
X172920818Y-111804601D01*
X173040465Y-111843477D01*
X173141557Y-111859488D01*
X173242648Y-111875500D01*
X173242649Y-111875500D01*
X173447351Y-111875500D01*
X173447352Y-111875500D01*
X173649534Y-111843477D01*
X173844219Y-111780220D01*
X174026610Y-111687287D01*
X174119590Y-111619732D01*
X174192213Y-111566971D01*
X174192215Y-111566968D01*
X174192219Y-111566966D01*
X174336966Y-111422219D01*
X174336968Y-111422215D01*
X174336971Y-111422213D01*
X174457284Y-111256614D01*
X174457286Y-111256611D01*
X174457287Y-111256610D01*
X174504516Y-111163917D01*
X174552489Y-111113123D01*
X174620310Y-111096328D01*
X174686445Y-111118865D01*
X174725485Y-111163919D01*
X174772715Y-111256614D01*
X174893028Y-111422213D01*
X175037786Y-111566971D01*
X175192749Y-111679556D01*
X175203390Y-111687287D01*
X175284499Y-111728614D01*
X175385776Y-111780218D01*
X175385778Y-111780218D01*
X175385781Y-111780220D01*
X175460818Y-111804601D01*
X175580465Y-111843477D01*
X175681557Y-111859488D01*
X175782648Y-111875500D01*
X175782649Y-111875500D01*
X175987351Y-111875500D01*
X175987352Y-111875500D01*
X176189534Y-111843477D01*
X176384219Y-111780220D01*
X176566610Y-111687287D01*
X176659590Y-111619732D01*
X176732213Y-111566971D01*
X176732215Y-111566968D01*
X176732219Y-111566966D01*
X176876966Y-111422219D01*
X176876968Y-111422215D01*
X176876971Y-111422213D01*
X176997284Y-111256614D01*
X176997286Y-111256611D01*
X176997287Y-111256610D01*
X177044516Y-111163917D01*
X177092489Y-111113123D01*
X177160310Y-111096328D01*
X177226445Y-111118865D01*
X177265485Y-111163919D01*
X177312715Y-111256614D01*
X177433028Y-111422213D01*
X177577786Y-111566971D01*
X177732749Y-111679556D01*
X177743390Y-111687287D01*
X177824499Y-111728614D01*
X177925776Y-111780218D01*
X177925778Y-111780218D01*
X177925781Y-111780220D01*
X178000818Y-111804601D01*
X178120465Y-111843477D01*
X178221557Y-111859488D01*
X178322648Y-111875500D01*
X178322649Y-111875500D01*
X178527351Y-111875500D01*
X178527352Y-111875500D01*
X178729534Y-111843477D01*
X178924219Y-111780220D01*
X179106610Y-111687287D01*
X179199590Y-111619732D01*
X179272213Y-111566971D01*
X179272215Y-111566968D01*
X179272219Y-111566966D01*
X179416966Y-111422219D01*
X179416968Y-111422215D01*
X179416971Y-111422213D01*
X179537284Y-111256614D01*
X179537286Y-111256611D01*
X179537287Y-111256610D01*
X179584516Y-111163917D01*
X179632489Y-111113123D01*
X179700310Y-111096328D01*
X179766445Y-111118865D01*
X179805485Y-111163919D01*
X179852715Y-111256614D01*
X179973028Y-111422213D01*
X180117786Y-111566971D01*
X180272749Y-111679556D01*
X180283390Y-111687287D01*
X180364499Y-111728614D01*
X180465776Y-111780218D01*
X180465778Y-111780218D01*
X180465781Y-111780220D01*
X180540818Y-111804601D01*
X180660465Y-111843477D01*
X180761557Y-111859488D01*
X180862648Y-111875500D01*
X180862649Y-111875500D01*
X181067351Y-111875500D01*
X181067352Y-111875500D01*
X181269534Y-111843477D01*
X181464219Y-111780220D01*
X181646610Y-111687287D01*
X181739590Y-111619732D01*
X181812213Y-111566971D01*
X181812215Y-111566968D01*
X181812219Y-111566966D01*
X181956966Y-111422219D01*
X181956968Y-111422215D01*
X181956971Y-111422213D01*
X182077284Y-111256614D01*
X182077286Y-111256611D01*
X182077287Y-111256610D01*
X182124516Y-111163917D01*
X182172489Y-111113123D01*
X182240310Y-111096328D01*
X182306445Y-111118865D01*
X182345485Y-111163919D01*
X182392715Y-111256614D01*
X182513028Y-111422213D01*
X182657786Y-111566971D01*
X182812749Y-111679556D01*
X182823390Y-111687287D01*
X182904499Y-111728614D01*
X183005776Y-111780218D01*
X183005778Y-111780218D01*
X183005781Y-111780220D01*
X183080818Y-111804601D01*
X183200465Y-111843477D01*
X183301557Y-111859488D01*
X183402648Y-111875500D01*
X183402649Y-111875500D01*
X183607351Y-111875500D01*
X183607352Y-111875500D01*
X183809534Y-111843477D01*
X184004219Y-111780220D01*
X184186610Y-111687287D01*
X184279590Y-111619732D01*
X184352213Y-111566971D01*
X184352215Y-111566968D01*
X184352219Y-111566966D01*
X184496966Y-111422219D01*
X184496968Y-111422215D01*
X184496971Y-111422213D01*
X184617284Y-111256614D01*
X184617286Y-111256611D01*
X184617287Y-111256610D01*
X184664516Y-111163917D01*
X184712489Y-111113123D01*
X184780310Y-111096328D01*
X184846445Y-111118865D01*
X184885485Y-111163919D01*
X184932715Y-111256614D01*
X185053028Y-111422213D01*
X185053034Y-111422219D01*
X185197781Y-111566966D01*
X185363390Y-111687287D01*
X185376793Y-111694116D01*
X185427589Y-111742088D01*
X185444500Y-111804601D01*
X185444500Y-114154902D01*
X185424815Y-114221941D01*
X185408181Y-114242583D01*
X184603563Y-115047200D01*
X184542240Y-115080685D01*
X184477564Y-115077450D01*
X184351370Y-115036447D01*
X184118097Y-114999500D01*
X184118092Y-114999500D01*
X183881908Y-114999500D01*
X183881903Y-114999500D01*
X183648631Y-115036446D01*
X183424003Y-115109433D01*
X183213566Y-115216657D01*
X183139600Y-115270397D01*
X183022490Y-115355483D01*
X183022488Y-115355485D01*
X183022487Y-115355485D01*
X182855485Y-115522487D01*
X182855485Y-115522488D01*
X182855483Y-115522490D01*
X182795862Y-115604550D01*
X182716657Y-115713566D01*
X182694092Y-115757853D01*
X182658855Y-115827011D01*
X182656417Y-115831795D01*
X182608442Y-115882591D01*
X182545932Y-115899500D01*
X182039602Y-115899500D01*
X181972563Y-115879815D01*
X181929117Y-115831795D01*
X181922287Y-115818390D01*
X181922285Y-115818387D01*
X181922284Y-115818385D01*
X181801971Y-115652786D01*
X181657213Y-115508028D01*
X181491613Y-115387715D01*
X181491612Y-115387714D01*
X181491610Y-115387713D01*
X181428355Y-115355483D01*
X181309223Y-115294781D01*
X181114534Y-115231522D01*
X180939995Y-115203878D01*
X180912352Y-115199500D01*
X180707648Y-115199500D01*
X180683329Y-115203351D01*
X180505465Y-115231522D01*
X180310776Y-115294781D01*
X180128386Y-115387715D01*
X179962786Y-115508028D01*
X179818028Y-115652786D01*
X179697715Y-115818386D01*
X179604781Y-116000776D01*
X179541522Y-116195465D01*
X179509500Y-116397648D01*
X179509500Y-116602351D01*
X179541522Y-116804534D01*
X179604781Y-116999223D01*
X179665001Y-117117409D01*
X179697585Y-117181359D01*
X179697715Y-117181613D01*
X179818028Y-117347213D01*
X179962786Y-117491971D01*
X180083226Y-117579474D01*
X180128390Y-117612287D01*
X180209499Y-117653614D01*
X180310776Y-117705218D01*
X180310778Y-117705218D01*
X180310781Y-117705220D01*
X180385818Y-117729601D01*
X180505465Y-117768477D01*
X180599318Y-117783342D01*
X180707648Y-117800500D01*
X180707649Y-117800500D01*
X180912351Y-117800500D01*
X180912352Y-117800500D01*
X181114534Y-117768477D01*
X181309219Y-117705220D01*
X181491610Y-117612287D01*
X181584590Y-117544732D01*
X181657213Y-117491971D01*
X181657215Y-117491968D01*
X181657219Y-117491966D01*
X181801966Y-117347219D01*
X181801968Y-117347215D01*
X181801971Y-117347213D01*
X181922284Y-117181614D01*
X181922285Y-117181613D01*
X181922287Y-117181610D01*
X181929117Y-117168204D01*
X181977091Y-117117409D01*
X182039602Y-117100500D01*
X182545932Y-117100500D01*
X182612971Y-117120185D01*
X182656416Y-117168203D01*
X182716657Y-117286433D01*
X182855483Y-117477510D01*
X183022490Y-117644517D01*
X183213567Y-117783343D01*
X183247240Y-117800500D01*
X183424003Y-117890566D01*
X183424005Y-117890566D01*
X183424008Y-117890568D01*
X183487707Y-117911265D01*
X183648631Y-117963553D01*
X183881903Y-118000500D01*
X183881908Y-118000500D01*
X184118097Y-118000500D01*
X184351368Y-117963553D01*
X184400515Y-117947584D01*
X184575992Y-117890568D01*
X184786433Y-117783343D01*
X184977510Y-117644517D01*
X185144517Y-117477510D01*
X185283343Y-117286433D01*
X185343583Y-117168204D01*
X185391558Y-117117409D01*
X185454068Y-117100500D01*
X189045932Y-117100500D01*
X189112971Y-117120185D01*
X189156416Y-117168203D01*
X189216657Y-117286433D01*
X189355483Y-117477510D01*
X189522490Y-117644517D01*
X189713567Y-117783343D01*
X189747240Y-117800500D01*
X189924003Y-117890566D01*
X189924005Y-117890566D01*
X189924008Y-117890568D01*
X189987707Y-117911265D01*
X190148631Y-117963553D01*
X190381903Y-118000500D01*
X190381908Y-118000500D01*
X190618097Y-118000500D01*
X190851368Y-117963553D01*
X190900515Y-117947584D01*
X191075992Y-117890568D01*
X191286433Y-117783343D01*
X191477510Y-117644517D01*
X191644517Y-117477510D01*
X191783343Y-117286433D01*
X191890568Y-117075992D01*
X191963553Y-116851368D01*
X192000500Y-116618097D01*
X192000500Y-116381902D01*
X191963553Y-116148631D01*
X191915513Y-116000781D01*
X191890568Y-115924008D01*
X191890566Y-115924005D01*
X191890566Y-115924003D01*
X191783342Y-115713566D01*
X191769342Y-115694297D01*
X191644517Y-115522490D01*
X191477510Y-115355483D01*
X191286433Y-115216657D01*
X191253742Y-115200000D01*
X191075996Y-115109433D01*
X190851368Y-115036446D01*
X190618097Y-114999500D01*
X190618092Y-114999500D01*
X190381908Y-114999500D01*
X190381903Y-114999500D01*
X190148631Y-115036446D01*
X189924003Y-115109433D01*
X189713566Y-115216657D01*
X189639600Y-115270397D01*
X189522490Y-115355483D01*
X189522488Y-115355485D01*
X189522487Y-115355485D01*
X189355485Y-115522487D01*
X189355485Y-115522488D01*
X189355483Y-115522490D01*
X189295862Y-115604550D01*
X189216657Y-115713566D01*
X189194092Y-115757853D01*
X189158855Y-115827011D01*
X189156417Y-115831795D01*
X189108442Y-115882591D01*
X189045932Y-115899500D01*
X185749098Y-115899500D01*
X185682059Y-115879815D01*
X185636304Y-115827011D01*
X185626360Y-115757853D01*
X185655385Y-115694297D01*
X185661417Y-115687819D01*
X186078839Y-115270397D01*
X186525520Y-114823716D01*
X186604577Y-114686784D01*
X186645501Y-114534057D01*
X186645501Y-114375942D01*
X186645501Y-114368347D01*
X186645500Y-114368329D01*
X186645500Y-111804601D01*
X186665185Y-111737562D01*
X186713206Y-111694116D01*
X186726610Y-111687287D01*
X186892219Y-111566966D01*
X187036966Y-111422219D01*
X187036968Y-111422215D01*
X187036971Y-111422213D01*
X187157284Y-111256614D01*
X187157286Y-111256611D01*
X187157287Y-111256610D01*
X187204516Y-111163917D01*
X187252489Y-111113123D01*
X187320310Y-111096328D01*
X187386445Y-111118865D01*
X187425485Y-111163919D01*
X187472715Y-111256614D01*
X187593028Y-111422213D01*
X187737786Y-111566971D01*
X187892749Y-111679556D01*
X187903390Y-111687287D01*
X187984499Y-111728614D01*
X188085776Y-111780218D01*
X188085778Y-111780218D01*
X188085781Y-111780220D01*
X188160818Y-111804601D01*
X188280465Y-111843477D01*
X188381557Y-111859488D01*
X188482648Y-111875500D01*
X188482649Y-111875500D01*
X188687351Y-111875500D01*
X188687352Y-111875500D01*
X188889534Y-111843477D01*
X189084219Y-111780220D01*
X189266610Y-111687287D01*
X189359590Y-111619732D01*
X189432213Y-111566971D01*
X189432215Y-111566968D01*
X189432219Y-111566966D01*
X189576966Y-111422219D01*
X189576968Y-111422215D01*
X189576971Y-111422213D01*
X189697284Y-111256614D01*
X189697286Y-111256611D01*
X189697287Y-111256610D01*
X189744516Y-111163917D01*
X189792489Y-111113123D01*
X189860310Y-111096328D01*
X189926445Y-111118865D01*
X189965485Y-111163919D01*
X190012715Y-111256614D01*
X190133028Y-111422213D01*
X190277786Y-111566971D01*
X190432749Y-111679556D01*
X190443390Y-111687287D01*
X190524499Y-111728614D01*
X190625776Y-111780218D01*
X190625778Y-111780218D01*
X190625781Y-111780220D01*
X190700818Y-111804601D01*
X190820465Y-111843477D01*
X190921557Y-111859488D01*
X191022648Y-111875500D01*
X191022649Y-111875500D01*
X191227351Y-111875500D01*
X191227352Y-111875500D01*
X191429534Y-111843477D01*
X191624219Y-111780220D01*
X191806610Y-111687287D01*
X191899590Y-111619732D01*
X191972213Y-111566971D01*
X191972215Y-111566968D01*
X191972219Y-111566966D01*
X192116966Y-111422219D01*
X192116968Y-111422215D01*
X192116971Y-111422213D01*
X192169732Y-111349590D01*
X192237287Y-111256610D01*
X192330220Y-111074219D01*
X192393477Y-110879534D01*
X192425500Y-110677352D01*
X192425500Y-110472648D01*
X192393477Y-110270466D01*
X192392673Y-110267993D01*
X192330218Y-110075776D01*
X192237419Y-109893650D01*
X192237287Y-109893390D01*
X192229556Y-109882749D01*
X192116971Y-109727786D01*
X191972213Y-109583028D01*
X191806613Y-109462715D01*
X191806612Y-109462714D01*
X191806610Y-109462713D01*
X191749653Y-109433691D01*
X191624223Y-109369781D01*
X191429534Y-109306522D01*
X191254995Y-109278878D01*
X191227352Y-109274500D01*
X191022648Y-109274500D01*
X190998329Y-109278351D01*
X190820465Y-109306522D01*
X190625776Y-109369781D01*
X190443386Y-109462715D01*
X190277786Y-109583028D01*
X190133028Y-109727786D01*
X190012715Y-109893386D01*
X189965485Y-109986080D01*
X189917510Y-110036876D01*
X189849689Y-110053671D01*
X189783554Y-110031134D01*
X189744515Y-109986080D01*
X189697419Y-109893650D01*
X189697287Y-109893390D01*
X189689556Y-109882749D01*
X189576971Y-109727786D01*
X189432213Y-109583028D01*
X189266613Y-109462715D01*
X189266612Y-109462714D01*
X189266610Y-109462713D01*
X189209653Y-109433691D01*
X189084223Y-109369781D01*
X188889534Y-109306522D01*
X188714995Y-109278878D01*
X188687352Y-109274500D01*
X188482648Y-109274500D01*
X188458329Y-109278351D01*
X188280465Y-109306522D01*
X188085776Y-109369781D01*
X187903386Y-109462715D01*
X187737786Y-109583028D01*
X187593028Y-109727786D01*
X187472715Y-109893386D01*
X187425485Y-109986080D01*
X187377510Y-110036876D01*
X187309689Y-110053671D01*
X187243554Y-110031134D01*
X187204515Y-109986080D01*
X187157419Y-109893650D01*
X187157287Y-109893390D01*
X187149556Y-109882749D01*
X187036971Y-109727786D01*
X186892213Y-109583028D01*
X186726613Y-109462715D01*
X186726612Y-109462714D01*
X186726610Y-109462713D01*
X186669653Y-109433691D01*
X186544223Y-109369781D01*
X186349534Y-109306522D01*
X186174995Y-109278878D01*
X186147352Y-109274500D01*
X185942648Y-109274500D01*
X185918329Y-109278351D01*
X185740465Y-109306522D01*
X185545776Y-109369781D01*
X185363386Y-109462715D01*
X185197786Y-109583028D01*
X185053028Y-109727786D01*
X184932715Y-109893386D01*
X184885485Y-109986080D01*
X184837510Y-110036876D01*
X184769689Y-110053671D01*
X184703554Y-110031134D01*
X184664515Y-109986080D01*
X184617419Y-109893650D01*
X184617287Y-109893390D01*
X184609556Y-109882749D01*
X184496971Y-109727786D01*
X184352213Y-109583028D01*
X184186613Y-109462715D01*
X184186612Y-109462714D01*
X184186610Y-109462713D01*
X184129653Y-109433691D01*
X184004223Y-109369781D01*
X183809534Y-109306522D01*
X183634995Y-109278878D01*
X183607352Y-109274500D01*
X183402648Y-109274500D01*
X183378329Y-109278351D01*
X183200465Y-109306522D01*
X183005776Y-109369781D01*
X182823386Y-109462715D01*
X182657786Y-109583028D01*
X182513028Y-109727786D01*
X182392715Y-109893386D01*
X182345485Y-109986080D01*
X182297510Y-110036876D01*
X182229689Y-110053671D01*
X182163554Y-110031134D01*
X182124515Y-109986080D01*
X182077419Y-109893650D01*
X182077287Y-109893390D01*
X182069556Y-109882749D01*
X181956971Y-109727786D01*
X181812213Y-109583028D01*
X181646613Y-109462715D01*
X181646612Y-109462714D01*
X181646610Y-109462713D01*
X181589653Y-109433691D01*
X181464223Y-109369781D01*
X181269534Y-109306522D01*
X181094995Y-109278878D01*
X181067352Y-109274500D01*
X180862648Y-109274500D01*
X180838329Y-109278351D01*
X180660465Y-109306522D01*
X180465776Y-109369781D01*
X180283386Y-109462715D01*
X180117786Y-109583028D01*
X179973028Y-109727786D01*
X179852715Y-109893386D01*
X179805485Y-109986080D01*
X179757510Y-110036876D01*
X179689689Y-110053671D01*
X179623554Y-110031134D01*
X179584515Y-109986080D01*
X179537419Y-109893650D01*
X179537287Y-109893390D01*
X179529556Y-109882749D01*
X179416971Y-109727786D01*
X179272213Y-109583028D01*
X179106613Y-109462715D01*
X179106612Y-109462714D01*
X179106610Y-109462713D01*
X179049653Y-109433691D01*
X178924223Y-109369781D01*
X178729534Y-109306522D01*
X178554995Y-109278878D01*
X178527352Y-109274500D01*
X178322648Y-109274500D01*
X178298329Y-109278351D01*
X178120465Y-109306522D01*
X177925776Y-109369781D01*
X177743386Y-109462715D01*
X177577786Y-109583028D01*
X177433028Y-109727786D01*
X177312715Y-109893386D01*
X177265485Y-109986080D01*
X177217510Y-110036876D01*
X177149689Y-110053671D01*
X177083554Y-110031134D01*
X177044515Y-109986080D01*
X176997419Y-109893650D01*
X176997287Y-109893390D01*
X176989556Y-109882749D01*
X176876971Y-109727786D01*
X176732213Y-109583028D01*
X176566613Y-109462715D01*
X176566612Y-109462714D01*
X176566610Y-109462713D01*
X176509653Y-109433691D01*
X176384223Y-109369781D01*
X176189534Y-109306522D01*
X176014995Y-109278878D01*
X175987352Y-109274500D01*
X175782648Y-109274500D01*
X175758329Y-109278351D01*
X175580465Y-109306522D01*
X175385776Y-109369781D01*
X175203386Y-109462715D01*
X175037786Y-109583028D01*
X174893028Y-109727786D01*
X174772715Y-109893386D01*
X174725485Y-109986080D01*
X174677510Y-110036876D01*
X174609689Y-110053671D01*
X174543554Y-110031134D01*
X174504515Y-109986080D01*
X174457419Y-109893650D01*
X174457287Y-109893390D01*
X174449556Y-109882749D01*
X174336971Y-109727786D01*
X174192213Y-109583028D01*
X174026613Y-109462715D01*
X174026612Y-109462714D01*
X174026610Y-109462713D01*
X173969653Y-109433691D01*
X173844223Y-109369781D01*
X173649534Y-109306522D01*
X173474995Y-109278878D01*
X173447352Y-109274500D01*
X173242648Y-109274500D01*
X173218329Y-109278351D01*
X173040465Y-109306522D01*
X172845776Y-109369781D01*
X172663386Y-109462715D01*
X172497786Y-109583028D01*
X172353028Y-109727786D01*
X172232715Y-109893386D01*
X172139781Y-110075776D01*
X172076522Y-110270465D01*
X172044500Y-110472648D01*
X170585500Y-110472648D01*
X170553477Y-110270466D01*
X170552673Y-110267993D01*
X170490218Y-110075776D01*
X170397419Y-109893650D01*
X170397287Y-109893390D01*
X170389556Y-109882749D01*
X170276971Y-109727786D01*
X170132213Y-109583028D01*
X169966613Y-109462715D01*
X169966612Y-109462714D01*
X169966610Y-109462713D01*
X169909653Y-109433691D01*
X169784223Y-109369781D01*
X169589534Y-109306522D01*
X169414995Y-109278878D01*
X169387352Y-109274500D01*
X169182648Y-109274500D01*
X169158329Y-109278351D01*
X168980465Y-109306522D01*
X168785776Y-109369781D01*
X168603386Y-109462715D01*
X168437786Y-109583028D01*
X168293028Y-109727786D01*
X168172715Y-109893386D01*
X168125485Y-109986080D01*
X168077510Y-110036876D01*
X168009689Y-110053671D01*
X167943554Y-110031134D01*
X167904515Y-109986080D01*
X167857419Y-109893650D01*
X167857287Y-109893390D01*
X167849556Y-109882749D01*
X167736971Y-109727786D01*
X167592213Y-109583028D01*
X167426613Y-109462715D01*
X167426612Y-109462714D01*
X167426610Y-109462713D01*
X167369653Y-109433691D01*
X167244223Y-109369781D01*
X167049534Y-109306522D01*
X166874995Y-109278878D01*
X166847352Y-109274500D01*
X166642648Y-109274500D01*
X166618329Y-109278351D01*
X166440465Y-109306522D01*
X166245776Y-109369781D01*
X166063386Y-109462715D01*
X165897786Y-109583028D01*
X165753028Y-109727786D01*
X165632715Y-109893386D01*
X165585485Y-109986080D01*
X165537510Y-110036876D01*
X165469689Y-110053671D01*
X165403554Y-110031134D01*
X165364515Y-109986080D01*
X165317419Y-109893650D01*
X165317287Y-109893390D01*
X165309556Y-109882749D01*
X165196971Y-109727786D01*
X165052213Y-109583028D01*
X164886613Y-109462715D01*
X164886612Y-109462714D01*
X164886610Y-109462713D01*
X164829653Y-109433691D01*
X164704223Y-109369781D01*
X164509534Y-109306522D01*
X164334995Y-109278878D01*
X164307352Y-109274500D01*
X164102648Y-109274500D01*
X164078329Y-109278351D01*
X163900465Y-109306522D01*
X163705776Y-109369781D01*
X163523386Y-109462715D01*
X163357786Y-109583028D01*
X163213028Y-109727786D01*
X163092715Y-109893386D01*
X163045485Y-109986080D01*
X162997510Y-110036876D01*
X162929689Y-110053671D01*
X162863554Y-110031134D01*
X162824515Y-109986080D01*
X162777419Y-109893650D01*
X162777287Y-109893390D01*
X162769556Y-109882749D01*
X162656971Y-109727786D01*
X162512213Y-109583028D01*
X162346613Y-109462715D01*
X162346612Y-109462714D01*
X162346610Y-109462713D01*
X162289653Y-109433691D01*
X162164223Y-109369781D01*
X161969534Y-109306522D01*
X161794995Y-109278878D01*
X161767352Y-109274500D01*
X161562648Y-109274500D01*
X161538329Y-109278351D01*
X161360465Y-109306522D01*
X161165776Y-109369781D01*
X160983386Y-109462715D01*
X160817786Y-109583028D01*
X160673028Y-109727786D01*
X160552715Y-109893386D01*
X160505485Y-109986080D01*
X160457510Y-110036876D01*
X160389689Y-110053671D01*
X160323554Y-110031134D01*
X160284515Y-109986080D01*
X160237419Y-109893650D01*
X160237287Y-109893390D01*
X160229556Y-109882749D01*
X160116971Y-109727786D01*
X159972213Y-109583028D01*
X159806613Y-109462715D01*
X159806612Y-109462714D01*
X159806610Y-109462713D01*
X159749653Y-109433691D01*
X159624223Y-109369781D01*
X159429534Y-109306522D01*
X159254995Y-109278878D01*
X159227352Y-109274500D01*
X159022648Y-109274500D01*
X158998329Y-109278351D01*
X158820465Y-109306522D01*
X158625776Y-109369781D01*
X158443386Y-109462715D01*
X158277786Y-109583028D01*
X158133028Y-109727786D01*
X158012715Y-109893386D01*
X157965485Y-109986080D01*
X157917510Y-110036876D01*
X157849689Y-110053671D01*
X157783554Y-110031134D01*
X157744515Y-109986080D01*
X157697419Y-109893650D01*
X157697287Y-109893390D01*
X157689556Y-109882749D01*
X157576971Y-109727786D01*
X157432213Y-109583028D01*
X157266613Y-109462715D01*
X157266612Y-109462714D01*
X157266610Y-109462713D01*
X157209653Y-109433691D01*
X157084223Y-109369781D01*
X156889534Y-109306522D01*
X156714995Y-109278878D01*
X156687352Y-109274500D01*
X156482648Y-109274500D01*
X156458329Y-109278351D01*
X156280465Y-109306522D01*
X156085776Y-109369781D01*
X155903386Y-109462715D01*
X155737786Y-109583028D01*
X155593028Y-109727786D01*
X155472713Y-109893388D01*
X155425203Y-109986630D01*
X155377228Y-110037426D01*
X155309407Y-110054220D01*
X155243272Y-110031682D01*
X155204234Y-109986628D01*
X155156861Y-109893652D01*
X155036582Y-109728105D01*
X155036582Y-109728104D01*
X154891895Y-109583417D01*
X154726349Y-109463140D01*
X154544029Y-109370244D01*
X154349413Y-109307009D01*
X154295000Y-109298390D01*
X154295000Y-110141988D01*
X154237993Y-110109075D01*
X154110826Y-110075000D01*
X153979174Y-110075000D01*
X153852007Y-110109075D01*
X153795000Y-110141988D01*
X153795000Y-109298390D01*
X153740586Y-109307009D01*
X153545970Y-109370244D01*
X153363650Y-109463140D01*
X153198105Y-109583417D01*
X153198104Y-109583417D01*
X153053417Y-109728104D01*
X153053417Y-109728105D01*
X152933140Y-109893650D01*
X152885765Y-109986629D01*
X152837790Y-110037425D01*
X152769969Y-110054220D01*
X152703834Y-110031682D01*
X152664795Y-109986629D01*
X152617419Y-109893650D01*
X152617287Y-109893390D01*
X152609556Y-109882749D01*
X152496971Y-109727786D01*
X152352213Y-109583028D01*
X152186613Y-109462715D01*
X152186612Y-109462714D01*
X152186610Y-109462713D01*
X152129653Y-109433691D01*
X152004223Y-109369781D01*
X151809534Y-109306522D01*
X151634995Y-109278878D01*
X151607352Y-109274500D01*
X151402648Y-109274500D01*
X151378329Y-109278351D01*
X151200465Y-109306522D01*
X151005776Y-109369781D01*
X150823386Y-109462715D01*
X150657786Y-109583028D01*
X150513028Y-109727786D01*
X150392715Y-109893386D01*
X150345485Y-109986080D01*
X150297510Y-110036876D01*
X150229689Y-110053671D01*
X150163554Y-110031134D01*
X150124515Y-109986080D01*
X150077419Y-109893650D01*
X150077287Y-109893390D01*
X150069556Y-109882749D01*
X149956971Y-109727786D01*
X149812213Y-109583028D01*
X149646613Y-109462715D01*
X149646612Y-109462714D01*
X149646610Y-109462713D01*
X149589653Y-109433691D01*
X149464223Y-109369781D01*
X149269534Y-109306522D01*
X149094995Y-109278878D01*
X149067352Y-109274500D01*
X148862648Y-109274500D01*
X148838329Y-109278351D01*
X148660465Y-109306522D01*
X148465776Y-109369781D01*
X148283386Y-109462715D01*
X148117786Y-109583028D01*
X147973028Y-109727786D01*
X147852715Y-109893386D01*
X147805485Y-109986080D01*
X147757510Y-110036876D01*
X147689689Y-110053671D01*
X147623554Y-110031134D01*
X147584515Y-109986080D01*
X147537419Y-109893650D01*
X147537287Y-109893390D01*
X147529556Y-109882749D01*
X147416971Y-109727786D01*
X147272213Y-109583028D01*
X147106613Y-109462715D01*
X147106612Y-109462714D01*
X147106610Y-109462713D01*
X147049653Y-109433691D01*
X146924223Y-109369781D01*
X146729534Y-109306522D01*
X146554995Y-109278878D01*
X146527352Y-109274500D01*
X146322648Y-109274500D01*
X146298329Y-109278351D01*
X146120465Y-109306522D01*
X145925776Y-109369781D01*
X145743386Y-109462715D01*
X145577786Y-109583028D01*
X145433028Y-109727786D01*
X145312715Y-109893386D01*
X145219781Y-110075776D01*
X145156522Y-110270465D01*
X145124500Y-110472648D01*
X120500500Y-110472648D01*
X120500500Y-61467135D01*
X154264500Y-61467135D01*
X154264500Y-63162870D01*
X154264501Y-63162876D01*
X154270908Y-63222483D01*
X154321202Y-63357328D01*
X154321206Y-63357335D01*
X154407452Y-63472544D01*
X154407455Y-63472547D01*
X154522664Y-63558793D01*
X154522671Y-63558797D01*
X154657517Y-63609091D01*
X154657516Y-63609091D01*
X154664444Y-63609835D01*
X154717127Y-63615500D01*
X156412872Y-63615499D01*
X156472483Y-63609091D01*
X156607331Y-63558796D01*
X156722546Y-63472546D01*
X156808796Y-63357331D01*
X156859091Y-63222483D01*
X156863061Y-63185556D01*
X156889796Y-63121011D01*
X156947188Y-63081161D01*
X157017013Y-63078666D01*
X157077102Y-63114317D01*
X157086667Y-63125929D01*
X157113032Y-63162217D01*
X157257786Y-63306971D01*
X157412749Y-63419556D01*
X157423390Y-63427287D01*
X157512212Y-63472544D01*
X157605776Y-63520218D01*
X157605778Y-63520218D01*
X157605781Y-63520220D01*
X157710137Y-63554127D01*
X157800465Y-63583477D01*
X157901557Y-63599488D01*
X158002648Y-63615500D01*
X158002649Y-63615500D01*
X158207351Y-63615500D01*
X158207352Y-63615500D01*
X158409534Y-63583477D01*
X158604219Y-63520220D01*
X158786610Y-63427287D01*
X158882901Y-63357328D01*
X158952213Y-63306971D01*
X158952215Y-63306968D01*
X158952219Y-63306966D01*
X159096966Y-63162219D01*
X159096968Y-63162215D01*
X159096971Y-63162213D01*
X159217284Y-62996614D01*
X159217285Y-62996613D01*
X159217287Y-62996610D01*
X159264516Y-62903917D01*
X159312489Y-62853123D01*
X159380310Y-62836328D01*
X159446445Y-62858865D01*
X159485485Y-62903919D01*
X159532715Y-62996614D01*
X159653028Y-63162213D01*
X159797786Y-63306971D01*
X159952749Y-63419556D01*
X159963390Y-63427287D01*
X160052212Y-63472544D01*
X160145776Y-63520218D01*
X160145778Y-63520218D01*
X160145781Y-63520220D01*
X160250137Y-63554127D01*
X160340465Y-63583477D01*
X160441557Y-63599488D01*
X160542648Y-63615500D01*
X160542649Y-63615500D01*
X160747351Y-63615500D01*
X160747352Y-63615500D01*
X160949534Y-63583477D01*
X161144219Y-63520220D01*
X161326610Y-63427287D01*
X161422901Y-63357328D01*
X161492213Y-63306971D01*
X161492215Y-63306968D01*
X161492219Y-63306966D01*
X161636966Y-63162219D01*
X161636968Y-63162215D01*
X161636971Y-63162213D01*
X161757284Y-62996614D01*
X161757285Y-62996613D01*
X161757287Y-62996610D01*
X161804516Y-62903917D01*
X161852489Y-62853123D01*
X161920310Y-62836328D01*
X161986445Y-62858865D01*
X162025485Y-62903919D01*
X162072715Y-62996614D01*
X162193028Y-63162213D01*
X162337786Y-63306971D01*
X162492749Y-63419556D01*
X162503390Y-63427287D01*
X162592212Y-63472544D01*
X162685776Y-63520218D01*
X162685778Y-63520218D01*
X162685781Y-63520220D01*
X162790137Y-63554127D01*
X162880465Y-63583477D01*
X162981557Y-63599488D01*
X163082648Y-63615500D01*
X163082649Y-63615500D01*
X163287351Y-63615500D01*
X163287352Y-63615500D01*
X163489534Y-63583477D01*
X163684219Y-63520220D01*
X163866610Y-63427287D01*
X163962901Y-63357328D01*
X164032213Y-63306971D01*
X164032215Y-63306968D01*
X164032219Y-63306966D01*
X164176966Y-63162219D01*
X164176968Y-63162215D01*
X164176971Y-63162213D01*
X164297284Y-62996614D01*
X164297285Y-62996613D01*
X164297287Y-62996610D01*
X164344516Y-62903917D01*
X164392489Y-62853123D01*
X164460310Y-62836328D01*
X164526445Y-62858865D01*
X164565485Y-62903919D01*
X164612715Y-62996614D01*
X164733028Y-63162213D01*
X164877786Y-63306971D01*
X165032749Y-63419556D01*
X165043390Y-63427287D01*
X165132212Y-63472544D01*
X165225776Y-63520218D01*
X165225778Y-63520218D01*
X165225781Y-63520220D01*
X165330137Y-63554127D01*
X165420465Y-63583477D01*
X165521557Y-63599488D01*
X165622648Y-63615500D01*
X165622649Y-63615500D01*
X165827351Y-63615500D01*
X165827352Y-63615500D01*
X166029534Y-63583477D01*
X166224219Y-63520220D01*
X166406610Y-63427287D01*
X166502901Y-63357328D01*
X166572213Y-63306971D01*
X166572215Y-63306968D01*
X166572219Y-63306966D01*
X166716966Y-63162219D01*
X166716968Y-63162215D01*
X166716971Y-63162213D01*
X166837284Y-62996614D01*
X166837285Y-62996613D01*
X166837287Y-62996610D01*
X166884516Y-62903917D01*
X166932489Y-62853123D01*
X167000310Y-62836328D01*
X167066445Y-62858865D01*
X167105485Y-62903919D01*
X167152715Y-62996614D01*
X167273028Y-63162213D01*
X167417786Y-63306971D01*
X167572749Y-63419556D01*
X167583390Y-63427287D01*
X167672212Y-63472544D01*
X167765776Y-63520218D01*
X167765778Y-63520218D01*
X167765781Y-63520220D01*
X167870137Y-63554127D01*
X167960465Y-63583477D01*
X168061557Y-63599488D01*
X168162648Y-63615500D01*
X168162649Y-63615500D01*
X168367351Y-63615500D01*
X168367352Y-63615500D01*
X168569534Y-63583477D01*
X168764219Y-63520220D01*
X168946610Y-63427287D01*
X169042901Y-63357328D01*
X169112213Y-63306971D01*
X169112215Y-63306968D01*
X169112219Y-63306966D01*
X169256966Y-63162219D01*
X169256968Y-63162215D01*
X169256971Y-63162213D01*
X169377284Y-62996614D01*
X169377285Y-62996613D01*
X169377287Y-62996610D01*
X169424516Y-62903917D01*
X169472489Y-62853123D01*
X169540310Y-62836328D01*
X169606445Y-62858865D01*
X169645485Y-62903919D01*
X169692715Y-62996614D01*
X169813028Y-63162213D01*
X169957786Y-63306971D01*
X170112749Y-63419556D01*
X170123390Y-63427287D01*
X170212212Y-63472544D01*
X170305776Y-63520218D01*
X170305778Y-63520218D01*
X170305781Y-63520220D01*
X170410137Y-63554127D01*
X170500465Y-63583477D01*
X170601557Y-63599488D01*
X170702648Y-63615500D01*
X170702649Y-63615500D01*
X170907351Y-63615500D01*
X170907352Y-63615500D01*
X171109534Y-63583477D01*
X171304219Y-63520220D01*
X171486610Y-63427287D01*
X171582901Y-63357328D01*
X171652213Y-63306971D01*
X171652215Y-63306968D01*
X171652219Y-63306966D01*
X171796966Y-63162219D01*
X171796968Y-63162215D01*
X171796971Y-63162213D01*
X171917284Y-62996614D01*
X171917285Y-62996613D01*
X171917287Y-62996610D01*
X171964516Y-62903917D01*
X172012489Y-62853123D01*
X172080310Y-62836328D01*
X172146445Y-62858865D01*
X172185485Y-62903919D01*
X172232715Y-62996614D01*
X172353028Y-63162213D01*
X172497786Y-63306971D01*
X172652749Y-63419556D01*
X172663390Y-63427287D01*
X172752212Y-63472544D01*
X172845776Y-63520218D01*
X172845778Y-63520218D01*
X172845781Y-63520220D01*
X172950137Y-63554127D01*
X173040465Y-63583477D01*
X173141557Y-63599488D01*
X173242648Y-63615500D01*
X173242649Y-63615500D01*
X173447351Y-63615500D01*
X173447352Y-63615500D01*
X173649534Y-63583477D01*
X173844219Y-63520220D01*
X174026610Y-63427287D01*
X174122901Y-63357328D01*
X174192213Y-63306971D01*
X174192215Y-63306968D01*
X174192219Y-63306966D01*
X174336966Y-63162219D01*
X174336968Y-63162215D01*
X174336971Y-63162213D01*
X174397670Y-63078666D01*
X174457287Y-62996610D01*
X174550220Y-62814219D01*
X174613477Y-62619534D01*
X174645500Y-62417352D01*
X174645500Y-62212648D01*
X177124500Y-62212648D01*
X177124500Y-62417351D01*
X177156522Y-62619534D01*
X177219781Y-62814223D01*
X177312715Y-62996613D01*
X177433028Y-63162213D01*
X177577786Y-63306971D01*
X177732749Y-63419556D01*
X177743390Y-63427287D01*
X177832212Y-63472544D01*
X177925776Y-63520218D01*
X177925778Y-63520218D01*
X177925781Y-63520220D01*
X178030137Y-63554127D01*
X178120465Y-63583477D01*
X178221557Y-63599488D01*
X178322648Y-63615500D01*
X178322649Y-63615500D01*
X178527351Y-63615500D01*
X178527352Y-63615500D01*
X178729534Y-63583477D01*
X178924219Y-63520220D01*
X179106610Y-63427287D01*
X179202901Y-63357328D01*
X179272213Y-63306971D01*
X179272215Y-63306968D01*
X179272219Y-63306966D01*
X179416966Y-63162219D01*
X179416968Y-63162215D01*
X179416971Y-63162213D01*
X179537284Y-62996614D01*
X179537285Y-62996613D01*
X179537287Y-62996610D01*
X179584516Y-62903917D01*
X179632489Y-62853123D01*
X179700310Y-62836328D01*
X179766445Y-62858865D01*
X179805485Y-62903919D01*
X179852715Y-62996614D01*
X179973028Y-63162213D01*
X180117786Y-63306971D01*
X180272749Y-63419556D01*
X180283390Y-63427287D01*
X180372212Y-63472544D01*
X180465776Y-63520218D01*
X180465778Y-63520218D01*
X180465781Y-63520220D01*
X180570137Y-63554127D01*
X180660465Y-63583477D01*
X180761557Y-63599488D01*
X180862648Y-63615500D01*
X180862649Y-63615500D01*
X181067351Y-63615500D01*
X181067352Y-63615500D01*
X181269534Y-63583477D01*
X181464219Y-63520220D01*
X181646610Y-63427287D01*
X181742901Y-63357328D01*
X181812213Y-63306971D01*
X181812215Y-63306968D01*
X181812219Y-63306966D01*
X181956966Y-63162219D01*
X181956968Y-63162215D01*
X181956971Y-63162213D01*
X182077284Y-62996614D01*
X182077285Y-62996613D01*
X182077287Y-62996610D01*
X182124516Y-62903917D01*
X182172489Y-62853123D01*
X182240310Y-62836328D01*
X182306445Y-62858865D01*
X182345485Y-62903919D01*
X182392715Y-62996614D01*
X182513028Y-63162213D01*
X182657786Y-63306971D01*
X182812749Y-63419556D01*
X182823390Y-63427287D01*
X182912212Y-63472544D01*
X183005776Y-63520218D01*
X183005778Y-63520218D01*
X183005781Y-63520220D01*
X183110137Y-63554127D01*
X183200465Y-63583477D01*
X183301557Y-63599488D01*
X183402648Y-63615500D01*
X183402649Y-63615500D01*
X183607351Y-63615500D01*
X183607352Y-63615500D01*
X183809534Y-63583477D01*
X184004219Y-63520220D01*
X184186610Y-63427287D01*
X184282901Y-63357328D01*
X184352213Y-63306971D01*
X184352215Y-63306968D01*
X184352219Y-63306966D01*
X184496966Y-63162219D01*
X184496968Y-63162215D01*
X184496971Y-63162213D01*
X184617284Y-62996614D01*
X184617285Y-62996613D01*
X184617287Y-62996610D01*
X184664516Y-62903917D01*
X184712489Y-62853123D01*
X184780310Y-62836328D01*
X184846445Y-62858865D01*
X184885485Y-62903919D01*
X184932715Y-62996614D01*
X185053028Y-63162213D01*
X185197786Y-63306971D01*
X185352749Y-63419556D01*
X185363390Y-63427287D01*
X185452212Y-63472544D01*
X185545776Y-63520218D01*
X185545778Y-63520218D01*
X185545781Y-63520220D01*
X185650137Y-63554127D01*
X185740465Y-63583477D01*
X185841557Y-63599488D01*
X185942648Y-63615500D01*
X185942649Y-63615500D01*
X186147351Y-63615500D01*
X186147352Y-63615500D01*
X186349534Y-63583477D01*
X186544219Y-63520220D01*
X186726610Y-63427287D01*
X186822901Y-63357328D01*
X186892213Y-63306971D01*
X186892215Y-63306968D01*
X186892219Y-63306966D01*
X187036966Y-63162219D01*
X187036968Y-63162215D01*
X187036971Y-63162213D01*
X187157284Y-62996614D01*
X187157285Y-62996613D01*
X187157287Y-62996610D01*
X187204516Y-62903917D01*
X187252489Y-62853123D01*
X187320310Y-62836328D01*
X187386445Y-62858865D01*
X187425485Y-62903919D01*
X187472715Y-62996614D01*
X187593028Y-63162213D01*
X187737786Y-63306971D01*
X187892749Y-63419556D01*
X187903390Y-63427287D01*
X187992212Y-63472544D01*
X188085776Y-63520218D01*
X188085778Y-63520218D01*
X188085781Y-63520220D01*
X188190137Y-63554127D01*
X188280465Y-63583477D01*
X188381557Y-63599488D01*
X188482648Y-63615500D01*
X188482649Y-63615500D01*
X188687351Y-63615500D01*
X188687352Y-63615500D01*
X188889534Y-63583477D01*
X189084219Y-63520220D01*
X189266610Y-63427287D01*
X189362901Y-63357328D01*
X189432213Y-63306971D01*
X189432215Y-63306968D01*
X189432219Y-63306966D01*
X189576966Y-63162219D01*
X189576968Y-63162215D01*
X189576971Y-63162213D01*
X189697284Y-62996614D01*
X189697285Y-62996613D01*
X189697287Y-62996610D01*
X189744516Y-62903917D01*
X189792489Y-62853123D01*
X189860310Y-62836328D01*
X189926445Y-62858865D01*
X189965485Y-62903919D01*
X190012715Y-62996614D01*
X190133028Y-63162213D01*
X190277786Y-63306971D01*
X190432749Y-63419556D01*
X190443390Y-63427287D01*
X190532212Y-63472544D01*
X190625776Y-63520218D01*
X190625778Y-63520218D01*
X190625781Y-63520220D01*
X190730137Y-63554127D01*
X190820465Y-63583477D01*
X190921557Y-63599488D01*
X191022648Y-63615500D01*
X191022649Y-63615500D01*
X191227351Y-63615500D01*
X191227352Y-63615500D01*
X191429534Y-63583477D01*
X191624219Y-63520220D01*
X191806610Y-63427287D01*
X191902901Y-63357328D01*
X191972213Y-63306971D01*
X191972215Y-63306968D01*
X191972219Y-63306966D01*
X192116966Y-63162219D01*
X192116968Y-63162215D01*
X192116971Y-63162213D01*
X192177670Y-63078666D01*
X192237287Y-62996610D01*
X192330220Y-62814219D01*
X192393477Y-62619534D01*
X192425500Y-62417352D01*
X192425500Y-62212648D01*
X192393477Y-62010466D01*
X192330220Y-61815781D01*
X192330218Y-61815778D01*
X192330218Y-61815776D01*
X192284515Y-61726080D01*
X192237287Y-61633390D01*
X192229556Y-61622749D01*
X192116971Y-61467786D01*
X191972213Y-61323028D01*
X191806613Y-61202715D01*
X191806612Y-61202714D01*
X191806610Y-61202713D01*
X191749653Y-61173691D01*
X191624223Y-61109781D01*
X191429534Y-61046522D01*
X191254995Y-61018878D01*
X191227352Y-61014500D01*
X191022648Y-61014500D01*
X190998329Y-61018351D01*
X190820465Y-61046522D01*
X190625776Y-61109781D01*
X190443386Y-61202715D01*
X190277786Y-61323028D01*
X190133028Y-61467786D01*
X190012715Y-61633386D01*
X189965485Y-61726080D01*
X189917510Y-61776876D01*
X189849689Y-61793671D01*
X189783554Y-61771134D01*
X189744515Y-61726080D01*
X189743883Y-61724840D01*
X189697287Y-61633390D01*
X189689556Y-61622749D01*
X189576971Y-61467786D01*
X189432213Y-61323028D01*
X189266613Y-61202715D01*
X189266612Y-61202714D01*
X189266610Y-61202713D01*
X189209653Y-61173691D01*
X189084223Y-61109781D01*
X188889534Y-61046522D01*
X188714995Y-61018878D01*
X188687352Y-61014500D01*
X188482648Y-61014500D01*
X188458329Y-61018351D01*
X188280465Y-61046522D01*
X188085776Y-61109781D01*
X187903386Y-61202715D01*
X187737786Y-61323028D01*
X187593028Y-61467786D01*
X187472715Y-61633386D01*
X187425485Y-61726080D01*
X187377510Y-61776876D01*
X187309689Y-61793671D01*
X187243554Y-61771134D01*
X187204515Y-61726080D01*
X187203883Y-61724840D01*
X187157287Y-61633390D01*
X187149556Y-61622749D01*
X187036971Y-61467786D01*
X186892213Y-61323028D01*
X186726613Y-61202715D01*
X186726612Y-61202714D01*
X186726610Y-61202713D01*
X186669653Y-61173691D01*
X186544223Y-61109781D01*
X186349534Y-61046522D01*
X186174995Y-61018878D01*
X186147352Y-61014500D01*
X185942648Y-61014500D01*
X185918329Y-61018351D01*
X185740465Y-61046522D01*
X185545776Y-61109781D01*
X185363386Y-61202715D01*
X185197786Y-61323028D01*
X185053028Y-61467786D01*
X184932715Y-61633386D01*
X184885485Y-61726080D01*
X184837510Y-61776876D01*
X184769689Y-61793671D01*
X184703554Y-61771134D01*
X184664515Y-61726080D01*
X184663883Y-61724840D01*
X184617287Y-61633390D01*
X184609556Y-61622749D01*
X184496971Y-61467786D01*
X184352213Y-61323028D01*
X184186613Y-61202715D01*
X184186612Y-61202714D01*
X184186610Y-61202713D01*
X184129653Y-61173691D01*
X184004223Y-61109781D01*
X183809534Y-61046522D01*
X183634995Y-61018878D01*
X183607352Y-61014500D01*
X183402648Y-61014500D01*
X183378329Y-61018351D01*
X183200465Y-61046522D01*
X183005776Y-61109781D01*
X182823386Y-61202715D01*
X182657786Y-61323028D01*
X182513028Y-61467786D01*
X182392715Y-61633386D01*
X182345485Y-61726080D01*
X182297510Y-61776876D01*
X182229689Y-61793671D01*
X182163554Y-61771134D01*
X182124515Y-61726080D01*
X182123883Y-61724840D01*
X182077287Y-61633390D01*
X182069556Y-61622749D01*
X181956971Y-61467786D01*
X181812213Y-61323028D01*
X181646613Y-61202715D01*
X181646612Y-61202714D01*
X181646610Y-61202713D01*
X181589653Y-61173691D01*
X181464223Y-61109781D01*
X181269534Y-61046522D01*
X181094995Y-61018878D01*
X181067352Y-61014500D01*
X180862648Y-61014500D01*
X180838329Y-61018351D01*
X180660465Y-61046522D01*
X180465776Y-61109781D01*
X180283386Y-61202715D01*
X180117786Y-61323028D01*
X179973028Y-61467786D01*
X179852715Y-61633386D01*
X179805485Y-61726080D01*
X179757510Y-61776876D01*
X179689689Y-61793671D01*
X179623554Y-61771134D01*
X179584515Y-61726080D01*
X179583883Y-61724840D01*
X179537287Y-61633390D01*
X179529556Y-61622749D01*
X179416971Y-61467786D01*
X179272213Y-61323028D01*
X179106613Y-61202715D01*
X179106612Y-61202714D01*
X179106610Y-61202713D01*
X179049653Y-61173691D01*
X178924223Y-61109781D01*
X178729534Y-61046522D01*
X178554995Y-61018878D01*
X178527352Y-61014500D01*
X178322648Y-61014500D01*
X178298329Y-61018351D01*
X178120465Y-61046522D01*
X177925776Y-61109781D01*
X177743386Y-61202715D01*
X177577786Y-61323028D01*
X177433028Y-61467786D01*
X177312715Y-61633386D01*
X177219781Y-61815776D01*
X177156522Y-62010465D01*
X177124500Y-62212648D01*
X174645500Y-62212648D01*
X174613477Y-62010466D01*
X174550220Y-61815781D01*
X174550218Y-61815778D01*
X174550218Y-61815776D01*
X174504515Y-61726080D01*
X174457287Y-61633390D01*
X174449556Y-61622749D01*
X174336971Y-61467786D01*
X174192213Y-61323028D01*
X174026613Y-61202715D01*
X174026612Y-61202714D01*
X174026610Y-61202713D01*
X173969653Y-61173691D01*
X173844223Y-61109781D01*
X173649534Y-61046522D01*
X173474995Y-61018878D01*
X173447352Y-61014500D01*
X173242648Y-61014500D01*
X173218329Y-61018351D01*
X173040465Y-61046522D01*
X172845776Y-61109781D01*
X172663386Y-61202715D01*
X172497786Y-61323028D01*
X172353028Y-61467786D01*
X172232715Y-61633386D01*
X172185485Y-61726080D01*
X172137510Y-61776876D01*
X172069689Y-61793671D01*
X172003554Y-61771134D01*
X171964515Y-61726080D01*
X171963883Y-61724840D01*
X171917287Y-61633390D01*
X171909556Y-61622749D01*
X171796971Y-61467786D01*
X171652213Y-61323028D01*
X171486613Y-61202715D01*
X171486612Y-61202714D01*
X171486610Y-61202713D01*
X171429653Y-61173691D01*
X171304223Y-61109781D01*
X171109534Y-61046522D01*
X170934995Y-61018878D01*
X170907352Y-61014500D01*
X170702648Y-61014500D01*
X170678329Y-61018351D01*
X170500465Y-61046522D01*
X170305776Y-61109781D01*
X170123386Y-61202715D01*
X169957786Y-61323028D01*
X169813028Y-61467786D01*
X169692715Y-61633386D01*
X169645485Y-61726080D01*
X169597510Y-61776876D01*
X169529689Y-61793671D01*
X169463554Y-61771134D01*
X169424515Y-61726080D01*
X169423883Y-61724840D01*
X169377287Y-61633390D01*
X169369556Y-61622749D01*
X169256971Y-61467786D01*
X169112213Y-61323028D01*
X168946613Y-61202715D01*
X168946612Y-61202714D01*
X168946610Y-61202713D01*
X168889653Y-61173691D01*
X168764223Y-61109781D01*
X168569534Y-61046522D01*
X168394995Y-61018878D01*
X168367352Y-61014500D01*
X168162648Y-61014500D01*
X168138329Y-61018351D01*
X167960465Y-61046522D01*
X167765776Y-61109781D01*
X167583386Y-61202715D01*
X167417786Y-61323028D01*
X167273028Y-61467786D01*
X167152715Y-61633386D01*
X167105485Y-61726080D01*
X167057510Y-61776876D01*
X166989689Y-61793671D01*
X166923554Y-61771134D01*
X166884515Y-61726080D01*
X166883883Y-61724840D01*
X166837287Y-61633390D01*
X166829556Y-61622749D01*
X166716971Y-61467786D01*
X166572213Y-61323028D01*
X166406613Y-61202715D01*
X166406612Y-61202714D01*
X166406610Y-61202713D01*
X166349653Y-61173691D01*
X166224223Y-61109781D01*
X166029534Y-61046522D01*
X165854995Y-61018878D01*
X165827352Y-61014500D01*
X165622648Y-61014500D01*
X165598329Y-61018351D01*
X165420465Y-61046522D01*
X165225776Y-61109781D01*
X165043386Y-61202715D01*
X164877786Y-61323028D01*
X164733028Y-61467786D01*
X164612715Y-61633386D01*
X164565485Y-61726080D01*
X164517510Y-61776876D01*
X164449689Y-61793671D01*
X164383554Y-61771134D01*
X164344515Y-61726080D01*
X164343883Y-61724840D01*
X164297287Y-61633390D01*
X164289556Y-61622749D01*
X164176971Y-61467786D01*
X164032213Y-61323028D01*
X163866613Y-61202715D01*
X163866612Y-61202714D01*
X163866610Y-61202713D01*
X163809653Y-61173691D01*
X163684223Y-61109781D01*
X163489534Y-61046522D01*
X163314995Y-61018878D01*
X163287352Y-61014500D01*
X163082648Y-61014500D01*
X163058329Y-61018351D01*
X162880465Y-61046522D01*
X162685776Y-61109781D01*
X162503386Y-61202715D01*
X162337786Y-61323028D01*
X162193028Y-61467786D01*
X162072715Y-61633386D01*
X162025485Y-61726080D01*
X161977510Y-61776876D01*
X161909689Y-61793671D01*
X161843554Y-61771134D01*
X161804515Y-61726080D01*
X161803883Y-61724840D01*
X161757287Y-61633390D01*
X161749556Y-61622749D01*
X161636971Y-61467786D01*
X161492213Y-61323028D01*
X161326613Y-61202715D01*
X161326612Y-61202714D01*
X161326610Y-61202713D01*
X161269653Y-61173691D01*
X161144223Y-61109781D01*
X160949534Y-61046522D01*
X160774995Y-61018878D01*
X160747352Y-61014500D01*
X160542648Y-61014500D01*
X160518329Y-61018351D01*
X160340465Y-61046522D01*
X160145776Y-61109781D01*
X159963386Y-61202715D01*
X159797786Y-61323028D01*
X159653028Y-61467786D01*
X159532715Y-61633386D01*
X159485485Y-61726080D01*
X159437510Y-61776876D01*
X159369689Y-61793671D01*
X159303554Y-61771134D01*
X159264515Y-61726080D01*
X159263883Y-61724840D01*
X159217287Y-61633390D01*
X159209556Y-61622749D01*
X159096971Y-61467786D01*
X158952213Y-61323028D01*
X158786613Y-61202715D01*
X158786612Y-61202714D01*
X158786610Y-61202713D01*
X158729653Y-61173691D01*
X158604223Y-61109781D01*
X158409534Y-61046522D01*
X158234995Y-61018878D01*
X158207352Y-61014500D01*
X158002648Y-61014500D01*
X157978329Y-61018351D01*
X157800465Y-61046522D01*
X157605776Y-61109781D01*
X157423386Y-61202715D01*
X157257786Y-61323028D01*
X157113032Y-61467782D01*
X157086668Y-61504070D01*
X157031338Y-61546735D01*
X156961724Y-61552714D01*
X156899929Y-61520108D01*
X156865572Y-61459269D01*
X156863060Y-61444438D01*
X156862640Y-61440533D01*
X156859091Y-61407517D01*
X156808796Y-61272669D01*
X156808795Y-61272668D01*
X156808793Y-61272664D01*
X156722547Y-61157455D01*
X156722544Y-61157452D01*
X156607335Y-61071206D01*
X156607328Y-61071202D01*
X156472482Y-61020908D01*
X156472483Y-61020908D01*
X156412883Y-61014501D01*
X156412881Y-61014500D01*
X156412873Y-61014500D01*
X156412864Y-61014500D01*
X154717129Y-61014500D01*
X154717123Y-61014501D01*
X154657516Y-61020908D01*
X154522671Y-61071202D01*
X154522664Y-61071206D01*
X154407455Y-61157452D01*
X154407452Y-61157455D01*
X154321206Y-61272664D01*
X154321202Y-61272671D01*
X154270908Y-61407517D01*
X154264501Y-61467116D01*
X154264500Y-61467135D01*
X120500500Y-61467135D01*
X120500500Y-55624500D01*
X120520185Y-55557461D01*
X120572989Y-55511706D01*
X120624500Y-55500500D01*
X199375500Y-55500500D01*
X199442539Y-55520185D01*
G37*
%TD.AperFunction*%
%TD*%
M02*
