%TF.GenerationSoftware,KiCad,Pcbnew,10.0.1*%
%TF.CreationDate,2026-07-01T00:03:45-07:00*%
%TF.ProjectId,PWM_Fan_Controller,50574d5f-4661-46e5-9f43-6f6e74726f6c,rev?*%
%TF.SameCoordinates,Original*%
%TF.FileFunction,Soldermask,Top*%
%TF.FilePolarity,Negative*%
%FSLAX46Y46*%
G04 Gerber Fmt 4.6, Leading zero omitted, Abs format (unit mm)*
G04 Created by KiCad (PCBNEW 10.0.1) date 2026-07-01 00:03:45*
%MOMM*%
%LPD*%
G01*
G04 APERTURE LIST*
G04 Aperture macros list*
%AMRoundRect*
0 Rectangle with rounded corners*
0 $1 Rounding radius*
0 $2 $3 $4 $5 $6 $7 $8 $9 X,Y pos of 4 corners*
0 Add a 4 corners polygon primitive as box body*
4,1,4,$2,$3,$4,$5,$6,$7,$8,$9,$2,$3,0*
0 Add four circle primitives for the rounded corners*
1,1,$1+$1,$2,$3*
1,1,$1+$1,$4,$5*
1,1,$1+$1,$6,$7*
1,1,$1+$1,$8,$9*
0 Add four rect primitives between the rounded corners*
20,1,$1+$1,$2,$3,$4,$5,0*
20,1,$1+$1,$4,$5,$6,$7,0*
20,1,$1+$1,$6,$7,$8,$9,0*
20,1,$1+$1,$8,$9,$2,$3,0*%
G04 Aperture macros list end*
%ADD10R,1.700000X1.700000*%
%ADD11C,1.700000*%
%ADD12C,1.600000*%
%ADD13RoundRect,0.249999X0.850001X0.850001X-0.850001X0.850001X-0.850001X-0.850001X0.850001X-0.850001X0*%
%ADD14C,2.200000*%
%ADD15C,2.000000*%
%ADD16R,1.905000X2.000000*%
%ADD17O,1.905000X2.000000*%
%ADD18R,1.600000X1.600000*%
%ADD19O,1.600000X1.600000*%
G04 APERTURE END LIST*
D10*
%TO.C,M1*%
X166275000Y-123500000D03*
D11*
X163735000Y-123500000D03*
%TD*%
D12*
%TO.C,R3*%
X158310000Y-116500000D03*
X150690000Y-116500000D03*
%TD*%
D13*
%TO.C,D1*%
X170080000Y-128500000D03*
D14*
X159920000Y-128500000D03*
%TD*%
D12*
%TO.C,R1*%
X180810000Y-116500000D03*
X173190000Y-116500000D03*
%TD*%
D15*
%TO.C,SW1*%
X190500000Y-121000000D03*
X184000000Y-121000000D03*
X190500000Y-116500000D03*
X184000000Y-116500000D03*
%TD*%
D16*
%TO.C,Q2*%
X157040000Y-122500000D03*
D17*
X154500000Y-122500000D03*
X151960000Y-122500000D03*
%TD*%
D18*
%TO.C,A1*%
X155565000Y-62315000D03*
D19*
X158105000Y-62315000D03*
X160645000Y-62315000D03*
X163185000Y-62315000D03*
X165725000Y-62315000D03*
X168265000Y-62315000D03*
X170805000Y-62315000D03*
X173345000Y-62315000D03*
X178425000Y-62315000D03*
X180965000Y-62315000D03*
X183505000Y-62315000D03*
X186045000Y-62315000D03*
X188585000Y-62315000D03*
X191125000Y-62315000D03*
X191125000Y-110575000D03*
X188585000Y-110575000D03*
X186045000Y-110575000D03*
X183505000Y-110575000D03*
X180965000Y-110575000D03*
X178425000Y-110575000D03*
X175885000Y-110575000D03*
X173345000Y-110575000D03*
X169285000Y-110575000D03*
X166745000Y-110575000D03*
X164205000Y-110575000D03*
X161665000Y-110575000D03*
X159125000Y-110575000D03*
X156585000Y-110575000D03*
X154045000Y-110575000D03*
X151505000Y-110575000D03*
X148965000Y-110575000D03*
X146425000Y-110575000D03*
%TD*%
D12*
%TO.C,R2*%
X169000000Y-116500000D03*
X161380000Y-116500000D03*
%TD*%
M02*
