M48
; DRILL file KiCad 10.0.1 date 2026-07-11T21:16:57
; FORMAT={-:-/ absolute / metric / decimal}
; #@! TF.CreationDate,2026-07-11T21:16:57-07:00
; #@! TF.GenerationSoftware,Kicad,Pcbnew,10.0.1
; #@! TF.FileFunction,Plated,1,2,PTH
FMAT,2
METRIC
; #@! TA.AperFunction,Plated,PTH,ComponentDrill
T1C0.800
; #@! TA.AperFunction,Plated,PTH,ComponentDrill
T2C1.000
; #@! TA.AperFunction,Plated,PTH,ComponentDrill
T3C1.100
; #@! TA.AperFunction,Plated,PTH,ComponentDrill
T4C1.500
%
G90
G05
T1
X144.88Y-121.0
X152.5Y-121.0
X155.19Y-121.0
X162.81Y-121.0
T2
X142.425Y-115.575
X144.965Y-115.575
X147.505Y-115.575
X150.045Y-115.575
X151.565Y-67.315
X152.585Y-115.575
X154.105Y-67.315
X155.125Y-115.575
X156.645Y-67.315
X157.5Y-128.0
X157.665Y-115.575
X159.185Y-67.315
X160.04Y-128.0
X160.205Y-115.575
X161.725Y-67.315
X162.745Y-115.575
X164.265Y-67.315
X165.285Y-115.575
X166.805Y-67.315
X169.345Y-67.315
X169.345Y-115.575
X171.885Y-115.575
X174.425Y-67.315
X174.425Y-115.575
X176.965Y-67.315
X176.965Y-115.575
X177.0Y-120.5
X177.0Y-135.0
X179.5Y-120.5
X179.505Y-67.315
X179.505Y-115.575
X182.0Y-120.5
X182.0Y-135.0
X182.045Y-67.315
X182.045Y-115.575
X184.585Y-67.315
X184.585Y-115.575
X187.125Y-67.315
X187.125Y-115.575
T3
X146.11Y-127.6
X148.65Y-127.6
X151.19Y-127.6
X156.96Y-132.0
X167.12Y-132.0
T4
G00X173.9Y-127.35
M15
G01X173.9Y-128.65
M16
G05
G00X185.1Y-127.35
M15
G01X185.1Y-128.65
M16
G05
M30
